<?xml version="1.0" encoding="utf-8"?>
<!-- Generator: Adobe Illustrator 23.1.0, SVG Export Plug-In . SVG Version: 6.00 Build 0)  -->
<svg version="1.1" id="Layer_1" xmlns="http://www.w3.org/2000/svg" xmlns:xlink="http://www.w3.org/1999/xlink" x="0px" y="0px"
	 viewBox="0 0 1366 768" style="enable-background:new 0 0 1366 768;" xml:space="preserve">
<style type="text/css">
	.st0{fill:none;}
	.st1{fill:#F44AF0;}
	.st2{fill:#EA13EA;}
	.st3{fill:#EA7128;}
	.st4{fill:#D81DFF;}
	.st5{fill:#AA0CC6;}
	.st6{fill:#662D91;}
	.st7{display:none;opacity:0.6;}
	.st8{display:inline;}
	.st9{fill:#45737E;}
	.st10{font-family:'BerlinSansFBDemi-Bold';}
	.st11{font-size:258.7466px;}
</style>
<g>
	<g>
		<path class="st0" d="M323.51,308.11c-7.05-6.14-14.06-12.33-21.04-18.54l-8.84,3.9c-10.27,4.53-22.21,0.89-29.15-6.94
			c0,0-6.96,3.33-17.38,8.21l0.49,7.73c0.72,11.2-6.81,21.16-16.55,24.98c0,0,1.48,15.62,3.12,35.57l8.81,1.31
			c11.1,1.65,19.26,11.1,20.96,21.42c0,0,10.92,1.28,26.12,3.21l2.43-4.91c4.99-10.06,16.49-14.91,26.83-13.35
			c0,0,5.79-12.64,13.61-29.2l-4.19-3.88C320.49,330,319.09,317.59,323.51,308.11z"/>
		<path class="st1" d="M272.63,220.25c3.85-2.12,6.99-2.94,9.43-2.98c-2.94-3.12-5.86-6.28-8.37-9.76
			c-2.72-3.77-5.16-7.75-7.55-11.74c-5.08-8.5-9.82-17.19-14.47-25.93c-4.73-8.88-9.35-17.82-13.91-26.79
			c20.1-4.59,40.87-5.72,61.4-4c19.85,1.66,39.58,5.88,58.19,13.02l0.1-0.27c0.24,0.09,0.48,0.18,0.71,0.27l7.31-19.05
			c-18.6-7.14-38.22-11.59-58.01-13.72c-20.41-2.19-41.18-1.94-61.46,1.34c-18.8,3.04-37.23,8.69-54.55,16.58
			c-16.62,7.57-31.99,17.35-46.37,28.57c-8.39,6.55-16.67,13.41-24.09,21.06l14.23,13.81l0.42,0.4c5.92-6.1,12.48-11.59,19.11-16.89
			c6.94-5.54,14.07-10.85,21.58-15.6c5.38-3.41,10.93-6.55,16.61-9.42c10.21,16.58,20.51,33.12,31.27,49.35
			c4.69,7.08,9.36,14.3,14.74,20.88c0,0,0,0,0,0c3.78,4.71,8.15,8.96,12.45,13.19C255.38,230.25,266.87,223.41,272.63,220.25
			C276.48,218.14,266.87,223.41,272.63,220.25z"/>
		<path class="st1" d="M332.63,275l-14.33,6.32l-8.85,3.9l-6.17,2.72c6.99,6.21,13.99,12.4,21.04,18.54
			c-4.42,9.48-3.02,21.88,5.22,29.51l4.19,3.88l7.83,7.26l7.1,6.57l11.49,10.64c3,2.78,8.14,3.14,11.75,1.43
			c1.55-0.73,2.86-1.82,3.22-3.55c0.34-1.58,0.18-3.21,0.26-4.82c0.06-1.21,0.26-2.03,1.47-2.45c1.47-0.51,3.01-0.74,4.46-1.33
			c1.67-0.69,3.55-1.87,4.14-3.67c0.55-1.7,0.17-3.52,0.33-5.27c0.35-4.05,4.86-3.14,7.61-4.44c1.59-0.75,2.6-1.97,2.93-3.69
			c0.31-1.59,0.23-3.22,0.27-4.83c0.03-1.05-0.02-2.49,0.98-3.13c1.04-0.66,2.46-0.57,3.59-1.05c3.77-1.6,5.05-5.44,4.15-9.21
			c-0.51-2.14-1.57-4.32-3.2-5.82l-7.43-6.88c3.6-0.35,3.07-4.7,2.07-7.1c-1.38-3.3-3.79-6.17-6.23-8.74
			c-5.28-5.56-11.89-9.8-19.33-11.81c-2.03-0.55-4.11-0.92-6.21-1.08c0.05-0.09,0.1-0.19,0.16-0.28c-4.38-0.15-9.02,0.51-13.61,2.33
			c0,0-0.89-0.76-2.47-2.13v0c-2.3-1.98-6.07-5.26-10.74-9.36C337.6,270.68,335.43,273.76,332.63,275z"/>
		<path class="st2" d="M171.62,296.99c-0.65-5.33-0.35-8.9,0.42-11.31c-7.13,2.79-14.34,5.59-21.88,7.05
			c-7.4,1.44-14.92,2.29-22.41,3.07c-13.24,1.39-26.52,2.38-39.8,3.26c3.55-18.93,9.84-37.33,18.71-54.43
			c5.3-10.23,11.51-19.98,18.51-29.13l-16.22-12.39c-11.42,14.95-20.93,31.36-28.14,48.73c-7.58,18.27-12.66,37.59-15.05,57.23
			c-2.54,20.94-1.94,42.21,1.65,62.99c3.34,19.35,9.25,38.24,17.63,56.01c2.64,5.59,5.51,11.07,8.62,16.42l17.64-10.25
			c-9.79-16.85-17.02-35.14-21.45-54.12c-2.62-11.25-4.28-22.72-4.93-34.26c18.74-2.76,37.5-5.6,56.11-9.15
			c6.18-1.18,12.41-2.37,18.47-4.11c7.73-2.22,15.21-5.49,22.61-8.6c0.2-0.08,0.4-0.17,0.59-0.25
			C175.06,318.49,173.43,311.68,171.62,296.99C170.97,291.66,173.43,311.68,171.62,296.99z"/>
		<path class="st2" d="M245.93,270.73l0.62,9.65l0.55,8.64c10.42-4.88,17.38-8.21,17.38-8.21c6.94,7.83,18.88,11.46,29.15,6.94
			l8.84-3.9l6.17-2.72l8.85-3.9l14.33-6.32c3.81-1.68,6.19-6.35,5.97-10.4c-0.1-1.85-0.69-3.38-2.27-4.39
			c-1.26-0.81-2.7-1.3-4.04-1.96c-1.14-0.56-1.75-1.09-1.63-2.43c0.18-1.98,0.7-3.87,0.47-5.87c-0.21-1.92-0.92-3.57-2.62-4.56
			c-1.3-0.75-2.79-1.12-4.07-1.91c-3.29-2.02-0.41-6.18-0.77-9.13c-0.42-3.52-3.89-4.51-6.66-5.83c-0.91-0.43-2.12-0.94-2.32-2.05
			c-0.2-1.14,0.4-2.34,0.45-3.49c0.16-3.65-2.22-6.49-5.62-7.45c-2.47-0.7-5.41-0.69-7.79,0.36l-12.38,5.46
			c0.93-2.88-2.04-5.1-4.52-5.56c-3.96-0.74-8.11,1.02-11.5,2.89c-5.46,3-10.66,6.58-14.78,11.3c-4.63,5.31-7.49,11.91-7.72,18.99
			c0,0-3.08,1.5-8.17,3.94c1.73,1.76,2.93,4.03,3.08,6.27L245.93,270.73z"/>
		<path class="st3" d="M199.34,425.12l-0.86-0.13c-0.01,0.37-0.02,0.73-0.02,1.1C198.73,425.71,199.03,425.38,199.34,425.12z"/>
		<path class="st4" d="M197.61,356.56l15.5,2.3l9.57,1.42l7.41,1.1c-1.63-19.94-3.12-35.57-3.12-35.57
			c9.74-3.82,17.26-13.78,16.55-24.98l-0.49-7.73l-0.55-8.64l-0.62-9.65l-1-15.63c-0.28-4.3-4.11-8.34-8.22-9.33
			c-1.81-0.44-3.27-0.18-4.71,1.01c-1.22,1-2.17,2.28-3.38,3.28c-0.98,0.81-1.74,0.63-2.8,0.07c-1.47-0.77-2.86-1.66-4.47-2.13
			c-1.67-0.49-3.57-0.66-5.08,0.34c-1.27,0.84-2.16,2.12-3.26,3.16c-1,0.95-2.17,1.52-3.56,1.06c-1.4-0.47-2.54-1.53-3.81-2.24
			c-1.39-0.77-3.19-1.32-4.75-0.73c-1.51,0.57-2.71,1.85-3.81,2.98c-0.87,0.89-1.87,2.25-3.11,2.64c-0.94,0.3-1.84-0.41-2.58-0.88
			c-2.73-1.73-6.35-1.76-8.84,0.43c-2.41,2.13-3.97,5.79-3.76,9.01l0.76,11.8c-1.4-0.48-3.07-0.39-4.39,0.28
			c-2.85,1.45-3.61,5.11-3.83,8.02c-0.33,4.42,0.42,8.91,1.07,13.27c0.52,3.47,1.14,6.97,2.29,10.3c1.09,3.14,2.76,6.03,5.18,8.33
			c3.49,3.32,8.04,5.38,12.46,7.17c0,0,1.39,13.45,2.85,31.05C193.13,356.87,195.48,356.25,197.61,356.56z"/>
		<path class="st4" d="M221.68,437.46c-15.6-0.98-21.62-3.96-23.41-6.8c-0.38,6.15-1.77,12.24-3.12,18.23
			c-2.01,8.85-4.33,17.63-6.74,26.37c-2.65,9.65-5.44,19.26-8.29,28.86c-23.47-14.12-44.18-33.25-60.44-56.71l-0.55,0.38
			l-16.22,11.24c9.57,13.81,20.73,26.52,33.21,37.77c12.22,11.02,25.7,20.64,40.09,28.63c14.29,7.93,29.48,14.24,45.19,18.77
			c15.79,4.56,32.1,7.31,48.51,8.2c18.54,1,37.2-0.39,55.39-4.11l-4.08-19.99c-0.26,0.05-0.52,0.1-0.79,0.15l-0.03-0.15
			c-20.66,4.22-41.92,5.11-62.85,2.53c-11.54-1.42-22.95-3.87-34.06-7.31c3.82-18.15,7.54-36.34,10.78-54.6
			c1.9-10.74,4.02-21.64,4.11-32.59C231.83,437.92,225.56,437.7,221.68,437.46C206.08,436.47,225.56,437.7,221.68,437.46z"/>
		<path class="st5" d="M279.27,409.86l4.29-8.66l4.85-9.78c-15.19-1.93-26.12-3.21-26.12-3.21c-1.7-10.32-9.86-19.77-20.96-21.42
			l-8.81-1.31l-7.41-1.1l-9.57-1.42l-15.5-2.3c-4.23-0.63-8.92,2.21-10.79,5.96c-0.82,1.65-0.95,3.15-0.12,4.81
			c0.72,1.44,1.79,2.67,2.55,4.09c0.58,1.09,0.32,1.78-0.43,2.69c-0.98,1.19-2.06,2.27-2.86,3.59c-0.88,1.46-1.63,3.36-1.11,5.07
			c0.48,1.58,1.66,2.8,2.51,4.18c0.75,1.23,1.06,2.54,0.26,3.83c-0.75,1.21-1.97,2.07-2.91,3.13c-1.03,1.16-1.94,2.75-1.77,4.36
			c0.17,1.59,1.16,3.05,2.02,4.35c0.72,1.09,1.81,2.33,2.03,3.66c0.16,0.98-0.67,1.73-1.3,2.36c-2.34,2.36-3.19,5.94-1.47,8.91
			c1.59,2.76,4.8,5.01,7.97,5.48l2.19,0.33l0.86,0.13c-1.66,1.39-2.25,3.72-1.04,5.59c0.36,0.56,0.84,1.04,1.35,1.46
			c1.61,1.32,3.63,2.11,5.6,2.73c3.41,1.07,6.99,1.64,10.54,2.04c4.29,0.49,8.64,0.8,12.96,0.64c5.51-0.19,11.07-1.18,16.1-3.49
			c4.9-2.25,9.11-5.78,12.13-10.25c0,0,6.4,0.7,16.1,1.87c-0.04-1.52,0.23-3,0.85-4.27L279.27,409.86z"/>
		<path class="st6" d="M387.57,289.26c5.84,5.6,8.36,9.87,9.02,12.85c1.73-2.85,3.54-5.64,5.6-8.26c1.94-2.45,3.99-4.81,6.08-7.14
			c5.67-6.31,11.63-12.38,17.63-18.37c9.27-9.25,18.73-18.32,28.26-27.31c9.39,17.31,16.15,36.02,20.03,55.32
			c2.27,11.29,3.57,22.78,3.85,34.29l20.4-0.5c-0.5-20.62-3.95-41.18-10.18-60.84c-5.89-18.58-14.28-36.36-24.89-52.71
			c-10.51-16.18-23.19-30.93-37.6-43.76c-13.45-11.98-28.4-22.26-44.37-30.59l-9.43,18.09c20.75,10.82,39.08,24.99,54.42,41.73
			c-12.2,13.57-24.34,27.2-36.15,41.11c-8.54,10.05-17.37,20.11-23.94,31.6c-0.71,1.24-1.41,2.5-2.1,3.75
			C374.78,279.34,383.52,285.38,387.57,289.26C393.41,294.86,383.52,285.38,387.57,289.26z"/>
		<path class="st6" d="M357.96,429.26c1.43-5.77,3.36-11.35,3.76-17.33c0.5-7.34-1.28-14.6-5.85-20.45c0,0,3.92-8.76,9.67-21.06
			c-1.42-0.4-2.73-1.06-3.74-1.99l-11.49-10.64l-7.1-6.57l-7.83-7.26c-7.82,16.56-13.61,29.2-13.61,29.2
			c-10.34-1.56-21.84,3.29-26.83,13.35l-2.43,4.91l-4.85,9.78l-4.29,8.66l-6.96,14.04c-1.82,3.67-0.7,8.72,1.97,11.7
			c1.15,1.28,2.57,2.21,4.34,2.06c1.64-0.14,3.18-0.77,4.77-1.14c1.16-0.27,1.95-0.24,2.66,0.77c0.83,1.16,1.44,2.46,2.31,3.6
			c1.03,1.35,2.55,2.83,4.29,3.14c1.77,0.31,3.5-0.53,5.17-0.98c1.5-0.4,2.96-0.37,4.01,0.9c0.95,1.15,1.4,2.64,2.18,3.9
			c0.84,1.35,2.16,2.66,3.81,2.87c1.61,0.2,3.28-0.32,4.82-0.75c1.14-0.32,2.72-1.01,3.92-0.65c1.03,0.3,1.42,1.56,1.89,2.39
			c1.89,3.37,5.81,4.61,9.33,3.18c2.49-1.01,4.9-2.98,6.11-5.42l5.52-11.14c0.63,1.57,2.57,2.26,4.13,2.32
			c1.91,0.07,3.74-0.71,5.18-1.91C355.64,436.4,357.1,432.73,357.96,429.26C359.42,423.38,356.49,435.16,357.96,429.26z"/>
		<path class="st5" d="M478.69,344.58c0,0.01,0,0.03,0,0.04l-0.81-0.04c-1.42,30.3-10.95,60.81-27.26,88.17
			c-17.19-7.62-34.42-15.17-51.88-22.16c-6.19-2.48-12.41-4.93-18.76-6.99c-7.03-2.28-14.38-3.54-21.65-4.81
			c2.1,7.73,0.64,15.72-1.49,23.27c-1.5,5.32-2.55,12.25-7.86,15.2c3.9,0.85,7.84,1.72,11.63,3c2.79,0.95,5.52,2.07,8.23,3.24
			c7.69,3.32,15.2,7.04,22.67,10.83c10.2,5.18,20.3,10.56,30.35,16.03c-24.41,25.34-55.06,44.48-87.95,54.69l6.05,19.49
			c0.25-0.08,0.49-0.16,0.74-0.24l0.07,0.24c17.26-5.36,33.86-12.84,49.34-22.16c15.24-9.18,29.41-20.15,42.15-32.57
			c13.84-13.51,25.98-28.75,36.01-45.28c10.02-16.54,17.91-34.38,23.22-52.99c4.27-14.98,6.86-30.44,7.59-46L478.69,344.58z"/>
	</g>
	<g class="st7">
		<g class="st8">
			<path class="st9" d="M190.63,646.65v-0.21c-0.28,0.33-0.56,0.59-0.84,0.79c-0.28,0.21-0.58,0.36-0.9,0.47
				c-0.32,0.11-0.68,0.16-1.06,0.16c-0.51,0-0.98-0.11-1.41-0.32c-0.43-0.22-0.8-0.52-1.12-0.92c-0.32-0.4-0.55-0.86-0.72-1.4
				c-0.16-0.54-0.24-1.12-0.24-1.74c0-1.32,0.32-2.35,0.97-3.09c0.65-0.74,1.5-1.11,2.55-1.11c0.61,0,1.12,0.11,1.54,0.31
				c0.42,0.21,0.83,0.53,1.23,0.96v-3.12c0-0.44,0.09-0.76,0.26-0.99c0.17-0.22,0.42-0.33,0.74-0.33c0.32,0,0.57,0.1,0.74,0.31
				c0.17,0.21,0.26,0.51,0.26,0.9v9.33c0,0.4-0.09,0.7-0.28,0.91c-0.19,0.2-0.43,0.3-0.72,0.3c-0.29,0-0.53-0.1-0.72-0.31
				C190.72,647.34,190.63,647.04,190.63,646.65z M186.47,643.54c0,0.57,0.09,1.06,0.27,1.47c0.18,0.4,0.42,0.71,0.73,0.91
				c0.31,0.2,0.65,0.31,1.02,0.31c0.37,0,0.71-0.1,1.02-0.29c0.31-0.19,0.55-0.49,0.74-0.89c0.18-0.4,0.27-0.9,0.27-1.5
				c0-0.56-0.09-1.05-0.27-1.46c-0.18-0.4-0.43-0.71-0.74-0.93c-0.31-0.21-0.66-0.32-1.03-0.32c-0.39,0-0.73,0.11-1.04,0.33
				c-0.3,0.22-0.54,0.53-0.71,0.95C186.55,642.52,186.47,643,186.47,643.54z"/>
			<path class="st9" d="M199.96,644.08h-4.14c0.01,0.48,0.1,0.9,0.29,1.27c0.19,0.37,0.44,0.64,0.75,0.83
				c0.31,0.19,0.66,0.28,1.04,0.28c0.25,0,0.48-0.03,0.69-0.09c0.21-0.06,0.41-0.15,0.61-0.28c0.2-0.13,0.38-0.26,0.54-0.41
				c0.17-0.15,0.38-0.34,0.64-0.59c0.11-0.09,0.26-0.14,0.47-0.14c0.22,0,0.39,0.06,0.53,0.18c0.13,0.12,0.2,0.29,0.2,0.5
				c0,0.19-0.08,0.41-0.22,0.67c-0.15,0.26-0.38,0.5-0.68,0.74c-0.3,0.24-0.68,0.43-1.14,0.59c-0.46,0.16-0.98,0.23-1.58,0.23
				c-1.36,0-2.42-0.39-3.17-1.16c-0.75-0.77-1.13-1.83-1.13-3.15c0-0.63,0.09-1.21,0.28-1.74c0.19-0.54,0.46-0.99,0.81-1.38
				c0.36-0.38,0.8-0.68,1.32-0.88c0.52-0.2,1.1-0.31,1.74-0.31c0.83,0,1.54,0.17,2.13,0.52c0.59,0.35,1.04,0.8,1.33,1.35
				c0.29,0.55,0.44,1.12,0.44,1.69c0,0.53-0.15,0.88-0.46,1.04C200.95,644,200.52,644.08,199.96,644.08z M195.82,642.88h3.84
				c-0.05-0.72-0.25-1.27-0.59-1.62c-0.34-0.36-0.78-0.54-1.34-0.54c-0.53,0-0.96,0.18-1.3,0.55
				C196.1,641.62,195.9,642.16,195.82,642.88z"/>
			<path class="st9" d="M209.61,645.09c0,0.58-0.14,1.08-0.43,1.5c-0.28,0.42-0.7,0.73-1.26,0.95c-0.56,0.21-1.23,0.32-2.03,0.32
				c-0.76,0-1.41-0.12-1.95-0.35c-0.54-0.23-0.94-0.52-1.2-0.87c-0.26-0.35-0.39-0.7-0.39-1.05c0-0.23,0.08-0.43,0.25-0.6
				c0.16-0.16,0.37-0.25,0.63-0.25c0.22,0,0.39,0.05,0.51,0.16s0.23,0.26,0.34,0.46c0.22,0.38,0.48,0.66,0.78,0.85
				c0.3,0.18,0.71,0.28,1.24,0.28c0.42,0,0.77-0.1,1.04-0.28c0.27-0.19,0.41-0.4,0.41-0.65c0-0.37-0.14-0.64-0.42-0.81
				c-0.28-0.17-0.75-0.33-1.39-0.49c-0.73-0.18-1.32-0.37-1.78-0.57c-0.46-0.2-0.82-0.46-1.1-0.79c-0.27-0.33-0.41-0.73-0.41-1.2
				c0-0.42,0.13-0.82,0.38-1.2c0.25-0.38,0.63-0.68,1.12-0.9c0.49-0.22,1.09-0.34,1.79-0.34c0.55,0,1.04,0.06,1.48,0.17
				c0.44,0.11,0.8,0.27,1.09,0.46c0.29,0.19,0.51,0.4,0.67,0.63c0.15,0.23,0.23,0.46,0.23,0.68c0,0.24-0.08,0.44-0.24,0.6
				c-0.16,0.15-0.39,0.23-0.69,0.23c-0.22,0-0.4-0.06-0.55-0.19c-0.15-0.12-0.33-0.31-0.52-0.56c-0.16-0.21-0.35-0.37-0.57-0.5
				c-0.22-0.12-0.51-0.18-0.88-0.18c-0.38,0-0.7,0.08-0.95,0.24c-0.25,0.16-0.38,0.37-0.38,0.61c0,0.22,0.09,0.4,0.28,0.55
				c0.19,0.14,0.44,0.26,0.75,0.35c0.32,0.09,0.75,0.21,1.3,0.34c0.66,0.16,1.19,0.35,1.61,0.57c0.42,0.22,0.73,0.48,0.95,0.79
				C209.5,644.36,209.61,644.7,209.61,645.09z"/>
			<path class="st9" d="M211.77,638.27c-0.29,0-0.55-0.09-0.76-0.27c-0.21-0.18-0.31-0.44-0.31-0.77c0-0.3,0.11-0.55,0.32-0.74
				c0.21-0.19,0.46-0.29,0.75-0.29c0.27,0,0.52,0.09,0.73,0.26c0.21,0.18,0.32,0.43,0.32,0.77c0,0.33-0.1,0.58-0.31,0.76
				C212.3,638.18,212.05,638.27,211.77,638.27z M212.81,640.46v6.12c0,0.42-0.1,0.74-0.3,0.96c-0.2,0.22-0.46,0.33-0.77,0.33
				c-0.31,0-0.56-0.11-0.76-0.33c-0.19-0.22-0.29-0.54-0.29-0.95v-6.05c0-0.42,0.1-0.73,0.29-0.95c0.19-0.21,0.45-0.32,0.76-0.32
				c0.31,0,0.57,0.11,0.77,0.32C212.71,639.79,212.81,640.08,212.81,640.46z"/>
			<path class="st9" d="M222.09,640.81v6.15c0,0.7-0.08,1.31-0.23,1.82c-0.15,0.51-0.39,0.92-0.72,1.25
				c-0.33,0.33-0.76,0.58-1.3,0.74c-0.53,0.16-1.2,0.24-2,0.24c-0.73,0-1.38-0.1-1.95-0.31c-0.57-0.21-1.01-0.47-1.33-0.79
				c-0.31-0.32-0.47-0.66-0.47-1c0-0.26,0.09-0.47,0.26-0.63c0.18-0.16,0.39-0.25,0.64-0.25c0.31,0,0.58,0.14,0.81,0.41
				c0.11,0.14,0.23,0.28,0.35,0.42c0.12,0.14,0.26,0.26,0.4,0.36c0.15,0.1,0.32,0.18,0.53,0.22c0.21,0.05,0.45,0.07,0.71,0.07
				c0.55,0,0.97-0.08,1.28-0.23c0.3-0.15,0.51-0.37,0.64-0.64c0.12-0.27,0.19-0.57,0.21-0.88c0.02-0.31,0.04-0.81,0.05-1.51
				c-0.33,0.46-0.7,0.8-1.13,1.04c-0.43,0.24-0.93,0.36-1.52,0.36c-0.71,0-1.33-0.18-1.86-0.54c-0.53-0.36-0.94-0.87-1.22-1.52
				c-0.28-0.65-0.43-1.4-0.43-2.26c0-0.63,0.09-1.21,0.26-1.72c0.17-0.51,0.42-0.94,0.74-1.3c0.32-0.35,0.69-0.62,1.11-0.79
				c0.42-0.18,0.88-0.27,1.38-0.27c0.6,0,1.12,0.12,1.56,0.34c0.44,0.23,0.85,0.59,1.22,1.08v-0.29c0-0.37,0.09-0.65,0.27-0.85
				c0.18-0.2,0.41-0.3,0.7-0.3c0.41,0,0.68,0.13,0.81,0.4C222.02,639.92,222.09,640.3,222.09,640.81z M215.95,643.49
				c0,0.86,0.19,1.51,0.56,1.94c0.37,0.44,0.86,0.66,1.45,0.66c0.35,0,0.68-0.1,1-0.28c0.31-0.19,0.57-0.47,0.76-0.85
				c0.2-0.38,0.29-0.84,0.29-1.38c0-0.86-0.19-1.54-0.57-2.01c-0.38-0.48-0.88-0.72-1.5-0.72c-0.6,0-1.09,0.23-1.45,0.69
				C216.14,641.99,215.95,642.64,215.95,643.49z"/>
			<path class="st9" d="M225.45,640.43v0.26c0.37-0.49,0.78-0.85,1.22-1.08c0.44-0.23,0.95-0.35,1.52-0.35
				c0.56,0,1.06,0.12,1.5,0.37c0.44,0.24,0.77,0.59,0.98,1.03c0.14,0.26,0.23,0.54,0.27,0.84c0.04,0.3,0.06,0.68,0.06,1.15v3.94
				c0,0.42-0.1,0.74-0.29,0.96c-0.19,0.22-0.45,0.33-0.76,0.33c-0.32,0-0.57-0.11-0.77-0.33c-0.2-0.22-0.29-0.54-0.29-0.95v-3.53
				c0-0.7-0.1-1.23-0.29-1.6c-0.19-0.37-0.58-0.55-1.16-0.55c-0.38,0-0.72,0.11-1.03,0.34s-0.54,0.53-0.68,0.93
				c-0.1,0.32-0.15,0.9-0.15,1.77v2.65c0,0.43-0.1,0.75-0.3,0.97c-0.2,0.21-0.46,0.32-0.77,0.32c-0.31,0-0.56-0.11-0.75-0.33
				c-0.2-0.22-0.29-0.54-0.29-0.95v-6.12c0-0.4,0.09-0.7,0.26-0.9c0.18-0.2,0.42-0.3,0.72-0.3c0.19,0,0.35,0.04,0.5,0.13
				c0.15,0.09,0.27,0.22,0.36,0.4C225.4,639.96,225.45,640.17,225.45,640.43z"/>
			<path class="st9" d="M238.32,644.08h-4.14c0.01,0.48,0.1,0.9,0.29,1.27c0.19,0.37,0.44,0.64,0.75,0.83
				c0.31,0.19,0.66,0.28,1.03,0.28c0.25,0,0.48-0.03,0.69-0.09c0.21-0.06,0.41-0.15,0.61-0.28c0.2-0.13,0.38-0.26,0.54-0.41
				c0.16-0.15,0.38-0.34,0.64-0.59c0.11-0.09,0.26-0.14,0.47-0.14c0.22,0,0.39,0.06,0.53,0.18c0.13,0.12,0.2,0.29,0.2,0.5
				c0,0.19-0.07,0.41-0.22,0.67c-0.15,0.26-0.38,0.5-0.68,0.74c-0.3,0.24-0.68,0.43-1.14,0.59c-0.46,0.16-0.98,0.23-1.58,0.23
				c-1.36,0-2.42-0.39-3.17-1.16c-0.75-0.77-1.13-1.83-1.13-3.15c0-0.63,0.09-1.21,0.28-1.74c0.19-0.54,0.46-0.99,0.81-1.38
				c0.36-0.38,0.8-0.68,1.32-0.88c0.52-0.2,1.1-0.31,1.74-0.31c0.83,0,1.54,0.17,2.13,0.52c0.59,0.35,1.04,0.8,1.33,1.35
				c0.29,0.55,0.44,1.12,0.44,1.69c0,0.53-0.15,0.88-0.46,1.04C239.31,644,238.88,644.08,238.32,644.08z M234.18,642.88h3.84
				c-0.05-0.72-0.25-1.27-0.59-1.62c-0.34-0.36-0.78-0.54-1.34-0.54c-0.53,0-0.96,0.18-1.3,0.55
				C234.46,641.62,234.26,642.16,234.18,642.88z"/>
			<path class="st9" d="M246.95,646.65v-0.21c-0.28,0.33-0.56,0.59-0.84,0.79c-0.28,0.21-0.58,0.36-0.9,0.47
				c-0.32,0.11-0.68,0.16-1.06,0.16c-0.51,0-0.98-0.11-1.41-0.32c-0.43-0.22-0.81-0.52-1.12-0.92c-0.32-0.4-0.55-0.86-0.72-1.4
				c-0.16-0.54-0.24-1.12-0.24-1.74c0-1.32,0.32-2.35,0.97-3.09c0.65-0.74,1.5-1.11,2.55-1.11c0.61,0,1.12,0.11,1.54,0.31
				c0.42,0.21,0.83,0.53,1.22,0.96v-3.12c0-0.44,0.09-0.76,0.26-0.99c0.17-0.22,0.42-0.33,0.74-0.33c0.32,0,0.57,0.1,0.74,0.31
				c0.17,0.21,0.26,0.51,0.26,0.9v9.33c0,0.4-0.09,0.7-0.28,0.91c-0.19,0.2-0.43,0.3-0.72,0.3c-0.29,0-0.53-0.1-0.72-0.31
				C247.05,647.34,246.95,647.04,246.95,646.65z M242.79,643.54c0,0.57,0.09,1.06,0.27,1.47c0.18,0.4,0.42,0.71,0.73,0.91
				c0.31,0.2,0.65,0.31,1.01,0.31c0.37,0,0.71-0.1,1.02-0.29c0.31-0.19,0.55-0.49,0.74-0.89c0.18-0.4,0.28-0.9,0.28-1.5
				c0-0.56-0.09-1.05-0.28-1.46c-0.18-0.4-0.43-0.71-0.74-0.93c-0.31-0.21-0.66-0.32-1.03-0.32c-0.39,0-0.73,0.11-1.04,0.33
				c-0.3,0.22-0.54,0.53-0.71,0.95C242.87,642.52,242.79,643,242.79,643.54z"/>
			<path class="st9" d="M255.6,637.32v3.23c0.4-0.41,0.8-0.73,1.22-0.95c0.41-0.22,0.93-0.33,1.54-0.33c0.7,0,1.32,0.17,1.85,0.5
				c0.53,0.33,0.94,0.82,1.23,1.45c0.29,0.63,0.44,1.38,0.44,2.25c0,0.64-0.08,1.23-0.24,1.76c-0.16,0.54-0.4,1-0.71,1.39
				c-0.31,0.39-0.69,0.7-1.13,0.91c-0.44,0.21-0.93,0.32-1.46,0.32c-0.33,0-0.63-0.04-0.92-0.12c-0.29-0.08-0.53-0.18-0.73-0.31
				c-0.2-0.13-0.37-0.26-0.52-0.39c-0.14-0.13-0.33-0.34-0.56-0.61v0.21c0,0.4-0.1,0.7-0.29,0.9c-0.19,0.2-0.43,0.3-0.73,0.3
				c-0.3,0-0.54-0.1-0.72-0.3c-0.18-0.21-0.27-0.51-0.27-0.9v-9.24c0-0.43,0.09-0.75,0.26-0.97c0.17-0.22,0.42-0.33,0.73-0.33
				c0.33,0,0.58,0.11,0.75,0.31C255.51,636.63,255.6,636.93,255.6,637.32z M255.7,643.6c0,0.84,0.19,1.49,0.58,1.94
				c0.39,0.45,0.89,0.68,1.52,0.68c0.53,0,0.99-0.23,1.38-0.7c0.39-0.46,0.58-1.13,0.58-1.99c0-0.56-0.08-1.04-0.24-1.44
				c-0.16-0.4-0.39-0.71-0.68-0.93c-0.29-0.22-0.64-0.33-1.03-0.33c-0.4,0-0.76,0.11-1.08,0.33c-0.32,0.22-0.56,0.54-0.74,0.95
				C255.79,642.54,255.7,643.03,255.7,643.6z"/>
			<path class="st9" d="M264.62,648.12l0.19-0.47l-2.6-6.56c-0.16-0.38-0.24-0.65-0.24-0.82c0-0.18,0.05-0.35,0.14-0.5
				c0.09-0.16,0.22-0.28,0.38-0.37c0.16-0.09,0.33-0.14,0.51-0.14c0.3,0,0.53,0.1,0.69,0.29c0.16,0.19,0.29,0.47,0.41,0.83
				l1.79,5.21l1.7-4.84c0.13-0.39,0.26-0.7,0.36-0.92c0.11-0.22,0.22-0.37,0.34-0.45c0.12-0.08,0.29-0.12,0.52-0.12
				c0.16,0,0.31,0.04,0.46,0.13c0.15,0.08,0.26,0.2,0.34,0.34c0.08,0.15,0.12,0.3,0.12,0.46c-0.02,0.1-0.05,0.24-0.1,0.42
				c-0.05,0.18-0.1,0.37-0.17,0.55l-2.76,7.22c-0.24,0.64-0.47,1.13-0.7,1.5c-0.23,0.36-0.53,0.64-0.9,0.83
				c-0.38,0.19-0.88,0.29-1.52,0.29c-0.62,0-1.09-0.07-1.39-0.2c-0.31-0.14-0.47-0.38-0.47-0.74c0-0.24,0.07-0.43,0.22-0.56
				c0.15-0.13,0.37-0.2,0.65-0.2c0.11,0,0.23,0.02,0.33,0.05c0.13,0.03,0.25,0.05,0.35,0.05c0.24,0,0.43-0.04,0.57-0.11
				c0.14-0.07,0.26-0.2,0.38-0.38C264.34,648.73,264.47,648.47,264.62,648.12z"/>
		</g>
		<g class="st8">
			<path class="st9" d="M295.28,639.44h0.5v-0.63c0-0.66,0.08-1.19,0.25-1.58c0.17-0.39,0.45-0.67,0.85-0.85
				c0.4-0.18,0.95-0.27,1.65-0.27c1.24,0,1.85,0.3,1.85,0.91c0,0.19-0.06,0.36-0.2,0.5c-0.13,0.14-0.28,0.21-0.46,0.21
				c-0.08,0-0.23-0.01-0.43-0.05c-0.19-0.03-0.37-0.05-0.51-0.05c-0.38,0-0.63,0.11-0.74,0.34c-0.1,0.22-0.16,0.55-0.16,0.97v0.5
				h0.52c0.81,0,1.21,0.24,1.21,0.73c0,0.34-0.1,0.56-0.32,0.66c-0.21,0.09-0.51,0.14-0.89,0.14h-0.52v5.61
				c0,0.42-0.1,0.73-0.3,0.95c-0.2,0.22-0.45,0.33-0.77,0.33c-0.3,0-0.55-0.11-0.75-0.33c-0.2-0.22-0.3-0.54-0.3-0.95v-5.61h-0.58
				c-0.32,0-0.56-0.07-0.73-0.21c-0.17-0.14-0.26-0.33-0.26-0.55C294.21,639.69,294.57,639.44,295.28,639.44"/>
			<path class="st9" d="M302.2,644.8v1.77c0,0.43-0.11,0.75-0.31,0.96c-0.2,0.22-0.46,0.32-0.77,0.32c-0.31,0-0.56-0.11-0.76-0.33
				c-0.19-0.22-0.29-0.54-0.29-0.96v-5.9c0-0.95,0.34-1.43,1.03-1.43c0.35,0,0.61,0.11,0.76,0.33c0.15,0.22,0.24,0.55,0.26,0.99
				c0.25-0.44,0.51-0.76,0.77-0.99c0.27-0.22,0.62-0.33,1.07-0.33c0.45,0,0.88,0.11,1.29,0.33c0.42,0.22,0.63,0.52,0.63,0.88
				c0,0.26-0.09,0.47-0.27,0.64c-0.18,0.17-0.37,0.26-0.58,0.26c-0.08,0-0.27-0.05-0.57-0.15c-0.3-0.09-0.56-0.14-0.79-0.14
				c-0.31,0-0.57,0.08-0.76,0.24c-0.2,0.17-0.35,0.4-0.46,0.72c-0.11,0.32-0.18,0.71-0.22,1.15
				C302.22,643.63,302.2,644.17,302.2,644.8"/>
			<path class="st9" d="M311.93,644.08h-4.14c0.01,0.48,0.1,0.91,0.29,1.27c0.19,0.36,0.44,0.64,0.75,0.83
				c0.31,0.18,0.66,0.28,1.04,0.28c0.25,0,0.48-0.03,0.69-0.09c0.21-0.06,0.41-0.15,0.61-0.28c0.2-0.12,0.38-0.26,0.54-0.41
				c0.17-0.14,0.38-0.34,0.64-0.59c0.11-0.09,0.26-0.14,0.46-0.14c0.22,0,0.39,0.06,0.53,0.18c0.14,0.12,0.2,0.29,0.2,0.5
				c0,0.19-0.07,0.41-0.22,0.67c-0.15,0.26-0.38,0.5-0.68,0.74c-0.31,0.23-0.68,0.43-1.14,0.58c-0.46,0.15-0.98,0.23-1.58,0.23
				c-1.36,0-2.42-0.39-3.17-1.16c-0.75-0.78-1.14-1.83-1.14-3.16c0-0.63,0.1-1.21,0.28-1.74c0.18-0.54,0.46-0.99,0.82-1.38
				c0.36-0.38,0.79-0.68,1.32-0.88c0.52-0.2,1.1-0.31,1.74-0.31c0.82,0,1.54,0.18,2.13,0.53c0.59,0.34,1.04,0.8,1.33,1.35
				c0.29,0.55,0.44,1.12,0.44,1.69c0,0.53-0.15,0.87-0.46,1.03C312.92,644,312.49,644.08,311.93,644.08 M307.79,642.87h3.84
				c-0.05-0.72-0.24-1.26-0.58-1.62c-0.34-0.36-0.78-0.54-1.34-0.54c-0.53,0-0.96,0.18-1.3,0.55
				C308.07,641.62,307.86,642.16,307.79,642.87"/>
			<path class="st9" d="M320.74,644.08h-4.14c0,0.48,0.1,0.91,0.29,1.27c0.19,0.36,0.44,0.64,0.75,0.83
				c0.31,0.18,0.66,0.28,1.04,0.28c0.25,0,0.48-0.03,0.69-0.09c0.21-0.06,0.41-0.15,0.61-0.28c0.2-0.12,0.38-0.26,0.54-0.41
				c0.16-0.14,0.38-0.34,0.64-0.59c0.11-0.09,0.27-0.14,0.46-0.14c0.22,0,0.39,0.06,0.53,0.18c0.13,0.12,0.2,0.29,0.2,0.5
				c0,0.19-0.07,0.41-0.22,0.67c-0.14,0.26-0.37,0.5-0.68,0.74c-0.3,0.23-0.69,0.43-1.14,0.58c-0.46,0.15-0.99,0.23-1.58,0.23
				c-1.36,0-2.42-0.39-3.17-1.16c-0.75-0.78-1.13-1.83-1.13-3.16c0-0.63,0.09-1.21,0.28-1.74c0.18-0.54,0.46-0.99,0.81-1.38
				c0.36-0.38,0.79-0.68,1.32-0.88c0.52-0.2,1.1-0.31,1.74-0.31c0.82,0,1.53,0.18,2.13,0.53c0.59,0.34,1.03,0.8,1.32,1.35
				c0.29,0.55,0.44,1.12,0.44,1.69c0,0.53-0.16,0.87-0.46,1.03C321.72,644,321.29,644.08,320.74,644.08 M316.6,642.87h3.84
				c-0.05-0.72-0.25-1.26-0.58-1.62c-0.34-0.36-0.79-0.54-1.34-0.54c-0.53,0-0.96,0.18-1.3,0.55
				C316.87,641.62,316.67,642.16,316.6,642.87"/>
			<path class="st9" d="M325.37,640.44v0.25c0.4-0.49,0.81-0.85,1.24-1.08c0.42-0.23,0.91-0.35,1.45-0.35c0.65,0,1.25,0.17,1.8,0.5
				c0.55,0.34,0.98,0.83,1.3,1.47c0.32,0.65,0.48,1.41,0.48,2.3c0,0.65-0.09,1.25-0.27,1.8c-0.18,0.55-0.44,1-0.76,1.37
				c-0.32,0.37-0.7,0.65-1.13,0.85c-0.44,0.2-0.91,0.3-1.41,0.3c-0.6,0-1.11-0.12-1.52-0.36c-0.41-0.24-0.8-0.6-1.18-1.06v3.18
				c0,0.93-0.34,1.39-1.02,1.39c-0.4,0-0.66-0.12-0.79-0.36c-0.12-0.24-0.19-0.59-0.19-1.05v-9.14c0-0.4,0.09-0.7,0.26-0.9
				c0.18-0.19,0.42-0.3,0.72-0.3c0.3,0,0.54,0.1,0.73,0.3C325.28,639.76,325.37,640.05,325.37,640.44 M329.52,643.52
				c0-0.56-0.09-1.04-0.26-1.44c-0.17-0.4-0.41-0.71-0.71-0.92c-0.3-0.22-0.64-0.32-1.01-0.32c-0.58,0-1.08,0.23-1.48,0.69
				c-0.4,0.46-0.6,1.14-0.6,2.03c0,0.84,0.2,1.5,0.6,1.96c0.4,0.47,0.89,0.7,1.48,0.7c0.35,0,0.68-0.1,0.98-0.3
				c0.3-0.21,0.54-0.51,0.72-0.92C329.43,644.59,329.52,644.09,329.52,643.52"/>
			<path class="st9" d="M333.78,638.27c-0.3,0-0.55-0.09-0.75-0.27c-0.21-0.18-0.32-0.43-0.32-0.76c0-0.3,0.11-0.55,0.32-0.74
				c0.21-0.19,0.46-0.29,0.75-0.29c0.28,0,0.52,0.09,0.73,0.26c0.21,0.18,0.32,0.44,0.32,0.77c0,0.33-0.1,0.58-0.31,0.76
				C334.31,638.17,334.07,638.27,333.78,638.27 M334.83,640.45v6.12c0,0.42-0.1,0.74-0.3,0.96c-0.2,0.22-0.46,0.33-0.77,0.33
				c-0.31,0-0.56-0.11-0.76-0.33c-0.19-0.22-0.29-0.54-0.29-0.95v-6.06c0-0.42,0.1-0.73,0.29-0.94c0.2-0.22,0.45-0.32,0.76-0.32
				c0.31,0,0.56,0.1,0.77,0.32C334.73,639.78,334.83,640.08,334.83,640.45"/>
			<path class="st9" d="M341.65,646.89l-1.86-3.07l-1.15,1.08v1.69c0,0.41-0.11,0.72-0.32,0.94c-0.21,0.22-0.46,0.33-0.74,0.33
				c-0.33,0-0.58-0.11-0.77-0.33c-0.18-0.22-0.28-0.54-0.28-0.96v-9.03c0-0.47,0.09-0.83,0.27-1.07c0.18-0.25,0.44-0.37,0.78-0.37
				c0.33,0,0.58,0.11,0.77,0.33c0.19,0.22,0.29,0.55,0.29,0.98v5.14l2.38-2.5c0.3-0.31,0.52-0.52,0.68-0.64
				c0.15-0.11,0.34-0.17,0.56-0.17c0.27,0,0.48,0.08,0.67,0.25c0.17,0.17,0.26,0.38,0.26,0.63c0,0.31-0.29,0.73-0.86,1.24
				l-1.12,1.03l2.17,3.41c0.16,0.26,0.28,0.44,0.35,0.58c0.07,0.13,0.11,0.26,0.11,0.38c0,0.34-0.09,0.6-0.28,0.8
				c-0.18,0.19-0.43,0.29-0.72,0.29c-0.26,0-0.46-0.07-0.6-0.21C342.08,647.51,341.89,647.26,341.65,646.89"/>
			<path class="st9" d="M346.25,647.86c-0.32,0-0.59-0.1-0.83-0.31c-0.23-0.2-0.35-0.49-0.35-0.87c0-0.31,0.11-0.59,0.33-0.81
				c0.22-0.23,0.5-0.34,0.82-0.34c0.32,0,0.6,0.11,0.83,0.34c0.23,0.22,0.34,0.5,0.34,0.82c0,0.37-0.12,0.66-0.34,0.87
				C346.83,647.76,346.56,647.86,346.25,647.86"/>
			<path class="st9" d="M356.78,645.24c0,0.26-0.08,0.55-0.24,0.84c-0.16,0.3-0.4,0.59-0.72,0.86c-0.32,0.27-0.73,0.49-1.22,0.66
				c-0.49,0.17-1.04,0.25-1.66,0.25c-1.31,0-2.33-0.38-3.07-1.14c-0.73-0.76-1.1-1.79-1.1-3.07c0-0.87,0.17-1.64,0.51-2.31
				c0.33-0.66,0.82-1.18,1.45-1.55c0.64-0.37,1.4-0.55,2.28-0.55c0.55,0,1.05,0.08,1.51,0.24c0.46,0.16,0.84,0.37,1.16,0.62
				c0.32,0.26,0.56,0.52,0.73,0.81c0.17,0.29,0.25,0.55,0.25,0.81c0,0.25-0.09,0.47-0.28,0.64c-0.19,0.18-0.42,0.26-0.68,0.26
				c-0.18,0-0.32-0.05-0.44-0.14c-0.12-0.09-0.25-0.24-0.39-0.44c-0.26-0.39-0.53-0.69-0.81-0.88c-0.28-0.2-0.64-0.29-1.07-0.29
				c-0.62,0-1.13,0.24-1.51,0.73c-0.38,0.49-0.57,1.16-0.57,2c0,0.4,0.05,0.77,0.15,1.1c0.1,0.33,0.24,0.62,0.42,0.85
				c0.19,0.23,0.41,0.41,0.67,0.53c0.26,0.13,0.56,0.18,0.87,0.18c0.43,0,0.79-0.1,1.09-0.29c0.31-0.2,0.57-0.5,0.81-0.9
				c0.13-0.24,0.27-0.42,0.42-0.56c0.15-0.13,0.33-0.2,0.55-0.2c0.26,0,0.47,0.1,0.64,0.3
				C356.69,644.81,356.78,645.02,356.78,645.24"/>
			<path class="st9" d="M365.91,643.56c0,0.63-0.1,1.21-0.29,1.75c-0.2,0.53-0.48,0.99-0.86,1.37c-0.37,0.38-0.82,0.68-1.33,0.88
				c-0.52,0.2-1.1,0.31-1.75,0.31c-0.64,0-1.22-0.1-1.73-0.31c-0.51-0.2-0.96-0.5-1.33-0.88c-0.38-0.39-0.66-0.84-0.86-1.37
				c-0.19-0.53-0.29-1.11-0.29-1.74c0-0.64,0.1-1.23,0.29-1.76c0.2-0.53,0.48-0.99,0.85-1.37c0.37-0.38,0.81-0.67,1.33-0.87
				c0.53-0.2,1.1-0.3,1.73-0.3c0.64,0,1.22,0.1,1.75,0.31c0.52,0.21,0.97,0.5,1.34,0.88c0.37,0.39,0.66,0.84,0.85,1.36
				C365.82,642.34,365.91,642.92,365.91,643.56 M363.79,643.56c0-0.86-0.19-1.54-0.57-2.01c-0.38-0.49-0.89-0.73-1.53-0.73
				c-0.41,0-0.78,0.11-1.1,0.32c-0.32,0.21-0.56,0.53-0.73,0.95c-0.17,0.42-0.26,0.91-0.26,1.47c0,0.55,0.08,1.03,0.25,1.45
				c0.17,0.42,0.41,0.73,0.72,0.95c0.31,0.22,0.68,0.33,1.1,0.33c0.64,0,1.15-0.24,1.53-0.73
				C363.6,645.08,363.79,644.41,363.79,643.56"/>
			<path class="st9" d="M373.99,643.71v2.81c0,0.45-0.1,0.78-0.3,1c-0.2,0.22-0.47,0.33-0.8,0.33c-0.32,0-0.58-0.11-0.78-0.33
				c-0.2-0.22-0.3-0.55-0.3-1v-3.37c0-0.53-0.02-0.95-0.05-1.24c-0.04-0.29-0.14-0.53-0.3-0.72c-0.16-0.19-0.42-0.29-0.76-0.29
				c-0.69,0-1.15,0.24-1.37,0.72c-0.22,0.47-0.33,1.15-0.33,2.05v2.86c0,0.44-0.1,0.77-0.29,1c-0.2,0.22-0.46,0.34-0.79,0.34
				c-0.32,0-0.59-0.11-0.79-0.34c-0.21-0.23-0.31-0.56-0.31-1v-6.06c0-0.4,0.09-0.7,0.27-0.91c0.19-0.21,0.43-0.31,0.73-0.31
				c0.29,0,0.53,0.1,0.73,0.29c0.19,0.19,0.29,0.46,0.29,0.8v0.2c0.37-0.44,0.76-0.76,1.18-0.96c0.42-0.21,0.88-0.32,1.4-0.32
				c0.53,0,0.99,0.11,1.37,0.32c0.38,0.21,0.7,0.53,0.95,0.96c0.36-0.43,0.74-0.75,1.15-0.96c0.41-0.21,0.86-0.32,1.36-0.32
				c0.58,0,1.08,0.12,1.5,0.34c0.42,0.23,0.73,0.55,0.94,0.98c0.18,0.39,0.27,0.99,0.27,1.81v4.13c0,0.45-0.1,0.78-0.3,1
				c-0.2,0.22-0.47,0.33-0.8,0.33c-0.32,0-0.58-0.11-0.79-0.34c-0.2-0.23-0.31-0.56-0.31-1v-3.56c0-0.46-0.02-0.82-0.06-1.09
				c-0.04-0.28-0.14-0.51-0.31-0.69c-0.17-0.18-0.43-0.28-0.78-0.28c-0.28,0-0.54,0.09-0.79,0.25c-0.25,0.16-0.45,0.39-0.59,0.66
				C374.07,642.17,373.99,642.81,373.99,643.71"/>
		</g>
		<g class="st8">
			<path class="st9" d="M275.47,643.04c0,0,0-0.01,0-0.01C275.47,643.04,275.47,643.04,275.47,643.04z"/>
			<path class="st9" d="M275.57,643.72C275.58,643.72,275.58,643.72,275.57,643.72c-0.04-0.19-0.07-0.38-0.09-0.57
				C275.51,643.34,275.54,643.53,275.57,643.72z"/>
			<path class="st9" d="M276.28,645.69c0-0.01-0.01-0.02-0.01-0.03C276.27,645.67,276.27,645.68,276.28,645.69z"/>
			<path class="st9" d="M276.21,645.55c-0.02-0.04-0.04-0.07-0.05-0.11C276.17,645.48,276.19,645.52,276.21,645.55z"/>
			<path class="st9" d="M275.77,644.48c0.1,0.33,0.23,0.64,0.37,0.95C276,645.11,275.88,644.8,275.77,644.48
				C275.77,644.48,275.77,644.48,275.77,644.48z"/>
			<path class="st9" d="M283.66,634.93c0.41,0,0.71,0.03,1.06,0.09l0.1-0.62c0,0-0.96-0.29-2.21-0.19l-0.1-0.34
				c0.39-0.08,0.68-0.43,0.68-0.84c0-0.48-0.39-0.86-0.86-0.86c-0.48,0-0.86,0.38-0.86,0.86c0,0.41,0.29,0.76,0.68,0.84l0.11,0.38
				c-1.33,0.18-2.4,0.7-2.4,0.7l0.19,0.58c0.81-0.27,1.51-0.43,2.14-0.5C282.81,634.96,283.28,634.93,283.66,634.93z"/>
			<path class="st9" d="M276.26,638.08L276.26,638.08c0.04-0.05,0.07-0.08,0.1-0.12l-0.26-0.18l-0.4-0.29
				c-0.02,0.03-0.65,0.61-1.14,1.67c-0.02-0.03-0.05-0.07-0.07-0.1c-0.15-0.16-0.36-0.25-0.62-0.24c0,0-0.01,0-0.01,0
				c-0.16,0-0.27-0.05-0.35-0.12c0.07-0.09,0.12-0.21,0.12-0.34c0-0.3-0.24-0.55-0.55-0.55c-0.3,0-0.55,0.25-0.55,0.55
				c0,0.3,0.24,0.55,0.55,0.55c0.05,0,0.09-0.01,0.14-0.02c0.13,0.15,0.35,0.28,0.66,0.27c0.16,0,0.28,0.04,0.36,0.13
				c0.09,0.1,0.12,0.24,0.13,0.35c0,0,0,0,0,0c-0.36,0.97-0.25,2.18-0.25,2.18l0.86,0.04c0.02-0.44,0.08-1.21,0.3-1.82
				C275.7,638.85,276.24,638.11,276.26,638.08z"/>
			<path class="st9" d="M291.17,635.65c-0.3,0-0.55,0.24-0.55,0.55c0,0.05,0.01,0.09,0.02,0.13c-0.15,0.14-0.28,0.35-0.27,0.66
				c0,0.16-0.04,0.28-0.13,0.36c-0.07,0.06-0.16,0.09-0.24,0.11c-0.64-0.9-1.43-1.45-1.43-1.45l-0.62,0.66
				c0.47,0.43,0.95,0.96,1.41,1.62c0.32,0.46,0.65,1.05,0.93,1.65l0.84-0.4c0,0-0.38-0.94-0.92-1.79c0.09-0.03,0.19-0.08,0.27-0.16
				c0.16-0.15,0.24-0.36,0.24-0.62c0-0.17,0.05-0.28,0.12-0.36c0.09,0.07,0.21,0.12,0.34,0.12c0.3,0,0.55-0.24,0.55-0.55
				C291.72,635.9,291.47,635.65,291.17,635.65z"/>
			<path class="st9" d="M289,643.17c-1.15,0.56-3.04,1.3-5.53,1.65c-0.98,0.14-1.93,0.18-2.8,0.18c-1.14,0-2.14-0.08-2.91-0.18
				c-0.88-0.11-1.57-0.25-1.99-0.34c0.1,0.32,0.22,0.64,0.37,0.95c0,0.01,0.01,0.02,0.01,0.02c0.02,0.04,0.04,0.07,0.05,0.11
				c0.02,0.03,0.04,0.07,0.05,0.1c0.01,0.01,0.01,0.02,0.01,0.03c0.25,0.47,0.54,0.89,0.88,1.26c1.18,1.28,2.37,1.49,2.38,1.49
				l0.02,0l0.02,0.01c0.01,0,1.07,0.35,2.69,0.35c1.59,0,3.15-0.32,4.63-0.95c1.1-0.56,2.14-1.42,2.66-2.18
				c0.4-0.59,0.69-1.22,0.86-1.87c0.09-0.35,0.16-0.9,0.12-1.49C290.2,642.52,289.69,642.83,289,643.17z"/>
			<path class="st9" d="M276.63,638.36c-0.03,0.05-0.53,0.76-0.93,1.84c-0.3,0.81-0.28,1.99-0.28,2.01v0c0,0.28,0.02,0.55,0.05,0.82
				c0,0.01,0,0.01,0,0.01c0,0.04,0.01,0.07,0.01,0.1c0.02,0.19,0.06,0.38,0.1,0.57c0.57,0.15,3.98,0.94,7.79,0.41
				c2.39-0.33,4.2-1.04,5.3-1.57c0.92-0.44,1.5-0.84,1.73-1.01c-0.23-0.84-0.85-2.16-1.42-2.98c-1.64-2.34-3.4-2.94-4.31-3.09
				c-0.35-0.06-0.62-0.09-1.01-0.09c-0.37,0-0.82,0.03-1.42,0.09c-0.61,0.06-1.28,0.22-2.07,0.49c-1.1,0.37-2.1,0.95-2.88,1.67
				l-0.03,0.03C277.15,637.78,276.91,638,276.63,638.36z M286.64,637.81c0.78,0,1.42,0.64,1.42,1.42c0,0.79-0.64,1.42-1.42,1.42
				c-0.79,0-1.42-0.64-1.42-1.42C285.22,638.45,285.86,637.81,286.64,637.81z M279.92,637.75c1.27,0,2.3,1.03,2.3,2.3
				c0,1.27-1.03,2.3-2.3,2.3c-1.27,0-2.3-1.03-2.3-2.3C277.62,638.78,278.65,637.75,279.92,637.75z"/>
		</g>
	</g>
</g>
<text transform="matrix(0.5997 0 0 1 528.001 368.9854)"><tspan x="0" y="0" class="st6 st10 st11">Beond</tspan><tspan x="731.14" y="0" class="st10 st11"> </tspan><tspan x="795.82" y="0" class="st5 st10 st11">Care</tspan></text>
<g>
	<g>
		<path d="M536.23,426.85v-45.01h5.56v18.87h18.14v-18.87h5.56v45.01h-5.56v-21.2h-18.14v21.2H536.23z"/>
		<path d="M591.64,426.85V398.1h-14.96v-4.6h20.39v33.35H591.64z M593.76,386.5c-1.24,0-2.27-0.4-3.11-1.2
			c-0.84-0.8-1.26-1.86-1.26-3.19c0-1.33,0.42-2.39,1.26-3.19c0.84-0.8,1.88-1.2,3.11-1.2c1.24,0,2.27,0.4,3.11,1.2
			c0.84,0.8,1.26,1.86,1.26,3.19c0,1.33-0.42,2.39-1.26,3.19C596.03,386.1,595,386.5,593.76,386.5z"/>
		<path d="M620.11,426.85V393.5h4.5l0.46,7.89h0.2c1.68-2.7,3.74-4.83,6.19-6.38c2.45-1.55,5.17-2.33,8.18-2.33
			c1.19,0,2.29,0.1,3.31,0.31c1.02,0.21,2.03,0.56,3.05,1.06l-1.26,4.87c-1.15-0.41-2.11-0.71-2.88-0.89
			c-0.77-0.18-1.8-0.27-3.08-0.27c-2.43,0-4.76,0.72-6.98,2.16c-2.23,1.44-4.31,3.9-6.26,7.38v19.56H620.11z"/>
		<path d="M672.01,427.67c-2.43,0-4.69-0.39-6.79-1.17c-2.1-0.78-3.93-1.92-5.5-3.43c-1.57-1.51-2.8-3.35-3.71-5.52
			c-0.9-2.17-1.36-4.65-1.36-7.44c0-2.7,0.45-5.12,1.36-7.27c0.9-2.15,2.12-3.98,3.64-5.49c1.52-1.51,3.27-2.66,5.23-3.46
			c1.96-0.8,4.03-1.2,6.19-1.2c2.29,0,4.36,0.38,6.19,1.13c1.83,0.75,3.38,1.82,4.63,3.19s2.22,3.02,2.88,4.94
			c0.66,1.92,0.99,4.05,0.99,6.38c0,0.64-0.02,1.26-0.07,1.85c-0.04,0.59-0.11,1.12-0.2,1.58h-25.36c0.35,3.8,1.69,6.65,4.01,8.54
			c2.32,1.9,5.15,2.85,8.51,2.85c1.94,0,3.7-0.29,5.26-0.86c1.57-0.57,3.08-1.34,4.54-2.3l1.99,3.71c-1.59,1.1-3.41,2.04-5.46,2.81
			S674.62,427.67,672.01,427.67z M671.22,397.14c-1.32,0-2.59,0.23-3.81,0.69c-1.21,0.46-2.31,1.11-3.28,1.96
			c-0.97,0.85-1.79,1.91-2.45,3.19c-0.66,1.28-1.13,2.74-1.39,4.39h20.52c-0.22-3.43-1.18-5.99-2.88-7.68
			C676.24,397.98,674,397.14,671.22,397.14z"/>
		<path d="M736.89,426.85l-6.62-45.08h6.22l3.18,28.27c0.09,0.96,0.18,1.83,0.26,2.61c0.09,0.78,0.17,1.57,0.23,2.37
			c0.07,0.8,0.13,1.64,0.2,2.5c0.07,0.87,0.12,1.85,0.17,2.95h0.2c0.18-1.1,0.35-2.08,0.53-2.95c0.18-0.87,0.34-1.7,0.5-2.5
			c0.15-0.8,0.32-1.59,0.5-2.37c0.18-0.78,0.37-1.62,0.6-2.54l4.24-16.74h5.3l4.1,16.74c0.22,0.92,0.42,1.76,0.6,2.54
			c0.18,0.78,0.34,1.57,0.5,2.37c0.15,0.8,0.31,1.64,0.46,2.5c0.15,0.87,0.34,1.85,0.56,2.95h0.26c0.04-1.1,0.1-2.08,0.17-2.95
			c0.07-0.87,0.13-1.7,0.2-2.5c0.07-0.8,0.13-1.59,0.2-2.37c0.07-0.78,0.14-1.62,0.23-2.54l3.05-28.34h5.96l-6.36,45.08h-6.88
			l-4.24-18.11c-0.35-1.37-0.65-2.72-0.89-4.05c-0.24-1.33-0.48-2.68-0.7-4.05h-0.2c-0.22,1.37-0.44,2.72-0.66,4.05
			c-0.22,1.33-0.51,2.68-0.86,4.05l-4.24,18.11H736.89z"/>
		<path d="M790.25,426.85V398.1h-14.96v-4.6h20.39v33.35H790.25z M792.37,386.5c-1.24,0-2.27-0.4-3.11-1.2
			c-0.84-0.8-1.26-1.86-1.26-3.19c0-1.33,0.42-2.39,1.26-3.19c0.84-0.8,1.88-1.2,3.11-1.2c1.24,0,2.27,0.4,3.11,1.2
			c0.84,0.8,1.26,1.86,1.26,3.19c0,1.33-0.42,2.39-1.26,3.19C794.64,386.1,793.61,386.5,792.37,386.5z"/>
		<path d="M835.14,427.67c-2.34,0-4.3-0.33-5.89-1c-1.59-0.66-2.87-1.6-3.84-2.81c-0.97-1.21-1.67-2.67-2.08-4.36
			c-0.42-1.69-0.63-3.57-0.63-5.63V398.1h-9.07v-4.25l9.27-0.34l0.73-10.7h4.5v10.7h15.82v4.6h-15.82v15.85
			c0,1.51,0.13,2.82,0.4,3.95c0.27,1.12,0.71,2.07,1.32,2.85c0.62,0.78,1.46,1.36,2.52,1.75c1.06,0.39,2.36,0.58,3.91,0.58
			s2.93-0.14,4.17-0.41c1.24-0.27,2.43-0.64,3.58-1.1l1.19,4.12c-1.46,0.55-2.99,1.02-4.6,1.41
			C838.99,427.48,837.17,427.67,835.14,427.67z"/>
		<path d="M854.93,426.85v-48.85h5.43v13.31l-0.33,7.89h0.2c1.68-1.88,3.48-3.43,5.4-4.67c1.92-1.23,4.14-1.85,6.65-1.85
			c3.84,0,6.65,1.13,8.44,3.4c1.79,2.26,2.68,5.62,2.68,10.05v20.72h-5.43v-19.97c0-3.16-0.57-5.5-1.72-7.03
			c-1.15-1.53-3.04-2.3-5.69-2.3c-0.97,0-1.87,0.13-2.68,0.38c-0.82,0.25-1.62,0.63-2.42,1.13c-0.79,0.5-1.61,1.13-2.45,1.89
			c-0.84,0.75-1.72,1.64-2.65,2.64v23.26H854.93z"/>
		<path d="M945.3,426.85v-40.21H931v-4.8h34.16v4.8h-14.3v40.21H945.3z"/>
		<path d="M977.61,426.85V393.5h4.5l0.46,7.89h0.2c1.68-2.7,3.74-4.83,6.19-6.38c2.45-1.55,5.17-2.33,8.18-2.33
			c1.19,0,2.29,0.1,3.31,0.31c1.01,0.21,2.03,0.56,3.04,1.06l-1.26,4.87c-1.15-0.41-2.11-0.71-2.88-0.89
			c-0.77-0.18-1.8-0.27-3.08-0.27c-2.43,0-4.76,0.72-6.99,2.16c-2.23,1.44-4.31,3.9-6.26,7.38v19.56H977.61z"/>
		<path d="M1023.95,427.67c-3.88,0-6.72-1.13-8.51-3.4c-1.79-2.26-2.68-5.61-2.68-10.05V393.5h5.5v19.97c0,3.16,0.56,5.5,1.69,7.03
			c1.13,1.53,3.03,2.3,5.73,2.3c1.85,0,3.53-0.49,5.03-1.48c1.5-0.98,3.16-2.55,4.97-4.7V393.5h5.43v33.35h-4.44l-0.46-5.83h-0.26
			c-1.63,1.97-3.41,3.57-5.33,4.8C1028.69,427.05,1026.47,427.67,1023.95,427.67z"/>
		<path d="M1067.91,427.67c-3.18,0-6.11-0.51-8.81-1.54s-5.03-2.25-7.02-3.67l2.52-3.71c1.85,1.37,3.89,2.47,6.12,3.29
			c2.23,0.82,4.84,1.23,7.85,1.23c2.74,0,4.78-0.51,6.12-1.54c1.35-1.03,2.02-2.25,2.02-3.67c0-0.64-0.11-1.23-0.33-1.78
			c-0.22-0.55-0.7-1.07-1.42-1.58c-0.73-0.5-1.75-0.98-3.08-1.44c-1.32-0.46-3.07-0.91-5.23-1.37c-4.19-0.92-7.34-2.14-9.43-3.67
			c-2.1-1.53-3.14-3.56-3.14-6.07c0-1.33,0.29-2.57,0.86-3.74c0.57-1.17,1.42-2.17,2.55-3.02c1.13-0.85,2.52-1.51,4.17-1.99
			c1.65-0.48,3.58-0.72,5.79-0.72c2.47,0,4.86,0.42,7.15,1.27c2.29,0.85,4.24,1.84,5.83,2.98l-2.65,3.64
			c-1.5-1.05-3.16-1.9-4.96-2.54c-1.81-0.64-3.75-0.96-5.83-0.96c-2.74,0-4.66,0.48-5.76,1.44c-1.1,0.96-1.66,2.08-1.66,3.36
			c0,1.46,0.73,2.57,2.18,3.33c1.46,0.75,3.84,1.5,7.15,2.23c2.69,0.59,4.9,1.22,6.62,1.89c1.72,0.66,3.08,1.41,4.07,2.23
			c0.99,0.82,1.68,1.74,2.05,2.75c0.38,1.01,0.56,2.15,0.56,3.43c0,1.37-0.31,2.65-0.93,3.84s-1.53,2.24-2.75,3.16
			c-1.21,0.92-2.71,1.64-4.5,2.16S1070.21,427.67,1067.91,427.67z"/>
		<path d="M1113.2,427.67c-2.34,0-4.3-0.33-5.89-1c-1.59-0.66-2.87-1.6-3.84-2.81c-0.97-1.21-1.67-2.67-2.08-4.36
			c-0.42-1.69-0.63-3.57-0.63-5.63V398.1h-9.07v-4.25l9.27-0.34l0.73-10.7h4.5v10.7H1122v4.6h-15.82v15.85
			c0,1.51,0.13,2.82,0.4,3.95c0.27,1.12,0.71,2.07,1.32,2.85c0.62,0.78,1.46,1.36,2.52,1.75c1.06,0.39,2.36,0.58,3.91,0.58
			s2.93-0.14,4.17-0.41c1.24-0.27,2.43-0.64,3.58-1.1l1.19,4.12c-1.46,0.55-2.99,1.02-4.6,1.41
			C1117.05,427.48,1115.23,427.67,1113.2,427.67z"/>
		<path d="M1146.69,427.67c-1.5,0-2.77-0.53-3.81-1.58c-1.04-1.05-1.56-2.45-1.56-4.19c0-1.74,0.52-3.14,1.56-4.22
			c1.04-1.07,2.31-1.61,3.81-1.61c1.5,0,2.77,0.54,3.81,1.61c1.04,1.08,1.56,2.48,1.56,4.22c0,1.74-0.52,3.13-1.56,4.19
			S1148.19,427.67,1146.69,427.67z"/>
		<path d="M1186.42,427.67c-1.5,0-2.77-0.53-3.81-1.58c-1.04-1.05-1.56-2.45-1.56-4.19c0-1.74,0.52-3.14,1.56-4.22
			c1.04-1.07,2.31-1.61,3.81-1.61c1.5,0,2.77,0.54,3.81,1.61c1.04,1.08,1.56,2.48,1.56,4.22c0,1.74-0.52,3.13-1.56,4.19
			S1187.92,427.67,1186.42,427.67z"/>
		<path d="M1226.14,427.67c-1.5,0-2.77-0.53-3.81-1.58c-1.04-1.05-1.56-2.45-1.56-4.19c0-1.74,0.52-3.14,1.56-4.22
			c1.04-1.07,2.31-1.61,3.81-1.61c1.5,0,2.77,0.54,3.81,1.61c1.04,1.08,1.56,2.48,1.56,4.22c0,1.74-0.52,3.13-1.56,4.19
			S1227.64,427.67,1226.14,427.67z"/>
	</g>
</g>
</svg>
