<?xml version="1.0" encoding="utf-8"?>
<!-- Generator: Adobe Illustrator 23.1.0, SVG Export Plug-In . SVG Version: 6.00 Build 0)  -->
<svg version="1.1" id="Layer_1" xmlns="http://www.w3.org/2000/svg" xmlns:xlink="http://www.w3.org/1999/xlink" x="0px" y="0px"
	 viewBox="0 0 595.28 841.89" style="enable-background:new 0 0 595.28 841.89;" xml:space="preserve">
<style type="text/css">
	.st0{fill:url(#SVGID_1_);}
	.st1{fill:#9E772B;}
	.st2{fill:#916728;}
	.st3{fill:#48AEA7;}
	.st4{fill:#F2B6AC;}
	.st5{fill:#329C92;}
	.st6{fill:#F6958F;}
	.st7{fill:#3E2B2C;}
	.st8{fill:#65C6BE;}
	.st9{fill:#2B1C1E;}
	.st10{fill:#E12A28;}
	.st11{fill:#871A4F;}
	.st12{fill:#711243;}
	.st13{fill:#601213;}
	.st14{fill:#FEC415;}
	.st15{opacity:0.6;fill:#329C92;}
	.st16{fill:#3C64AF;}
	.st17{fill:#E2DEC4;}
	.st18{fill:#591913;}
	.st19{fill:#F26222;}
	.st20{fill:#C63030;}
	.st21{fill:#FFFFFF;}
	.st22{fill:#C3942D;}
	.st23{opacity:0.44;fill:#FBCCC5;}
	.st24{fill:#451412;}
	.st25{fill:#D3CC9F;}
</style>
<g>
	
		<linearGradient id="SVGID_1_" gradientUnits="userSpaceOnUse" x1="-1294.4453" y1="278.2729" x2="-752.1064" y2="278.2729" gradientTransform="matrix(0.7216 -0.3876 -0.5112 -0.9517 1184.1907 125.4658)">
		<stop  offset="0" style="stop-color:#F27BAA"/>
		<stop  offset="1" style="stop-color:#F27BAA;stop-opacity:0"/>
	</linearGradient>
	<path class="st0" d="M330.1,435.05c0,0,214-35.22,249.17-98.24c35.17-63.02-137.19-120.03-137.43-173.26
		c-0.23-53.23-46.78-123.91-130.97-102.7C226.67,82.07,17.05,142.38,20.03,186.89c2.98,44.51,57.99,90.76,165.84,127.58
		C293.73,351.28,233.98,449.03,330.1,435.05z"/>
	<g>
		<path class="st1" d="M233.54,457.4c-0.65,7.92-17.11,90.55-17.11,90.55h-7.68c0,0-7.59-32.41-9.58-56.83
			c-1.98-24.43,6.28-39.22,6.28-39.22c-4.51-26.83-18.12-87.54-18.8-90.6c-0.02-0.08-0.03-0.12-0.03-0.12l-8.92,8.74
			c0,0-1.98,7.32-4.63,19.02c-2.64,11.69-16.19,61.24-16.19,61.24s9.92,11.02,15.86,27.87c5.95,16.86,2.97,67.78,2.97,67.78l-1,1
			l-2.96,2.95l-37.68-93.76c0,0-1.32-10.32,0-58.84c0.41-14.86,1.96-28.3,3.92-39.8c1.07-6.31,2.27-12.03,3.46-17.08
			c0.1-0.41,0.2-0.82,0.29-1.21c2.33-9.63,4.62-16.69,5.97-20.54c0.77-2.19,1.24-3.34,1.24-3.34s1.7,2.84,5.2,6.23
			c0.37,0.36,0.75,0.72,1.16,1.08c0.19,0.17,0.37,0.34,0.57,0.51c6.03,5.23,16.06,10.92,30.42,9.46
			c12.15-1.23,21.74-5.88,28.44-10.4c0.22-0.15,0.45-0.31,0.67-0.46c0.62-0.44,1.21-0.86,1.78-1.27c5.75-4.29,8.77-8.03,8.77-8.03
			c0.24,1.85,0.26,4.4,0.12,7.29c-0.27,5.96-1.16,13.32-1.9,18.76c-0.03,0.27-0.07,0.53-0.1,0.77c-0.07,0.48-0.14,0.96-0.2,1.4
			c-0.46,3.24-0.81,5.37-0.81,5.37c0.13,0.01,0.26,0.02,0.38,0.04c1.65,0.17,3.29,0.45,4.87,0.79l0.06,1.17l1.72,36.56l0.06,1.21
			L233.54,457.4z"/>
		<path class="st2" d="M228.37,347.92l-0.06-1.17c-1.57-0.34-3.22-0.63-4.87-0.79c-0.13-0.02-0.26-0.03-0.38-0.04
			c0,0,0.35-2.12,0.81-5.37c0.06-0.44,0.13-0.92,0.2-1.4c0.03-0.25,0.07-0.51,0.1-0.77c0.74-5.43,1.63-12.79,1.9-18.76l0,0
			c0-0.01,0-0.02,0-0.03c0.02-0.23,0.02-0.45,0.03-0.67c0.01-0.36,0.03-0.71,0.03-1.06c0-0.09,0.01-0.18,0.01-0.26
			c0.02-0.44,0.02-0.87,0.02-1.29c0-0.12,0-0.24,0-0.36c0-0.33-0.01-0.65-0.02-0.96c-0.01-0.11-0.01-0.23-0.01-0.34
			c-0.02-0.34-0.03-0.66-0.05-0.98c-0.01-0.13-0.02-0.25-0.02-0.38c-0.03-0.33-0.06-0.66-0.1-0.96c0,0-3.02,3.74-8.77,8.03
			c-0.57,0.41-1.16,0.83-1.78,1.27c-0.22,0.15-0.45,0.31-0.67,0.46c-6.7,4.52-16.29,9.18-28.44,10.4
			c-14.36,1.46-24.39-4.23-30.42-9.46c-0.2-0.17-0.38-0.34-0.57-0.51c-0.41-0.36-0.79-0.72-1.16-1.08c-3.5-3.4-5.2-6.23-5.2-6.23
			s-0.01,0.02-0.02,0.06c-0.02,0.03-0.03,0.08-0.06,0.15c0,0,0,0.01-0.01,0.01c-0.07,0.19-0.2,0.53-0.38,1
			c-0.02,0.06-0.04,0.11-0.07,0.17c-0.04,0.12-0.09,0.24-0.14,0.37c-0.16,0.45-0.36,0.97-0.57,1.58c0,0,0,0,0,0
			c-1.35,3.85-3.64,10.9-5.97,20.54c-0.09,0.39-0.19,0.8-0.29,1.21c-1.19,5.05-2.39,10.77-3.46,17.08
			c2.47-6.11,8.19-21.12,13.92-31.95c5.74,7.62,15.37,14.86,30.11,14.5c12.27-0.31,26.16-7.89,36.09-14.57
			c1.67,8.96,3.93,21.63,4.87,33.29C222.97,358.65,225.66,353.43,228.37,347.92z"/>
		<path class="st2" d="M175.01,369.91l11.6-8.74l-8.92,8.74c0,0-1.98,7.32-4.63,19.02c-2.64,11.69-16.19,61.24-16.19,61.24
			s9.92,11.02,15.86,27.87c5.95,16.86,2.97,67.78,2.97,67.78l-1,1c-0.49-11.4-1.71-29.83-4.72-43.66
			c-4.69-21.51-21.05-54.36-21.05-54.36s9.42-36.03,15.87-55.78C171.25,373.27,175.01,369.91,175.01,369.91z"/>
		<path class="st2" d="M211.21,547.95h-2.46c0,0-7.59-32.41-9.58-56.83c-1.98-24.43,6.28-39.22,6.28-39.22
			c-4.51-26.83-18.12-87.54-18.8-90.6c0.9,3.55,20.18,79.31,28.08,93.99c0,0-5.61,18.63-6.21,44.43
			C208.13,516.84,209.94,536.6,211.21,547.95z"/>
		<path class="st3" d="M255.51,296.96c-0.03,0.27-0.09,0.53-0.12,0.8v0.01c-2.16,13.24-5.99,27.85-10.42,40.31
			c-0.22,0.62-0.45,1.24-0.67,1.86c-0.01,0.01-0.01,0.01,0,0.02c-0.01,0.01-0.01,0.01,0,0.02c-0.01,0.01-0.01,0.01,0,0.02
			c-0.01,0.01-0.01,0.01,0,0.02c-0.35,0.96-0.7,1.89-1.06,2.81c-0.1,0.25-0.19,0.48-0.29,0.72c-0.97,2.47-1.96,4.8-2.97,7.02
			c0,0-2.54-1.16-6.23-2.32c-0.24-0.08-0.48-0.16-0.74-0.24c-1.44-0.44-3.04-0.88-4.71-1.25c-0.25-0.05-0.51-0.11-0.78-0.16
			c-1.45-0.3-2.96-0.53-4.47-0.67c0,0,0.68-4.2,1.42-9.76c0.03-0.26,0.06-0.53,0.1-0.8c0.85-6.69,1.73-15.06,1.57-20.47
			c0-0.01,0-0.01,0-0.01c-0.03-0.95-0.09-1.81-0.19-2.55c0,0-0.01,0.01-0.02,0.02c-0.19,0.23-1.69,2.02-4.43,4.47
			c-1.23,1.1-2.7,2.32-4.41,3.6c-2.67,1.98-5.93,4.09-9.74,5.98c-0.25,0.11-0.5,0.24-0.76,0.36c-3.89,1.87-8.33,3.51-13.29,4.61
			c-0.25,0.05-0.48,0.1-0.73,0.15c-2.01,0.42-4.1,0.75-6.28,0.97c-2.37,0.24-4.63,0.29-6.76,0.17c-0.25-0.01-0.5-0.03-0.74-0.05
			c-6.37-0.45-11.67-2.33-15.97-4.71c-0.25-0.14-0.51-0.29-0.76-0.43c-5.1-2.97-8.68-6.6-10.8-9.13c-1.56-1.87-2.32-3.14-2.32-3.14
			s-0.63-6.69-1.31-15.04c-0.03-0.26-0.05-0.52-0.07-0.78c-0.29-3.5-0.58-7.26-0.82-10.92c-0.42-6.04-0.74-11.8-0.76-15.65
			c0-0.01,0-0.02,0-0.02v-0.42c0,0-0.44,1.3-1.1,3.36c-0.02,0.07-0.06,0.15-0.07,0.22c-0.23,0.69-0.49,1.47-0.75,2.3
			c-1.99,6.15-4.98,15.55-6.17,20.28c-0.07,0.27-0.13,0.53-0.19,0.76c-0.06,0.25-0.11,0.47-0.15,0.68c0,0,0.25,3.61,0.25,15.48
			c0,5.51-0.49,11.02-1.02,15.34c-0.04,0.31-0.07,0.61-0.12,0.9c-0.36,2.79-0.72,5-0.93,6.28c-0.03,0.19-0.06,0.35-0.08,0.5
			c-0.01,0.01-0.01,0.01,0,0.02c-0.08,0.4-0.12,0.63-0.13,0.68l-0.01,0.02c0,0-0.2-0.03-0.6-0.05c-0.81-0.05-2.38-0.08-4.42,0.23
			c-0.98,0.15-2.07,0.37-3.23,0.7c-0.25,0.07-0.5,0.15-0.74,0.23c-2.81,0.9-6,2.45-9.13,5.1c0,0-0.85-3.99-1.87-10.23
			c-0.04-0.25-0.09-0.51-0.13-0.76c-1.54-9.52-3.41-23.86-3.47-37.45c-0.01-0.26-0.01-0.52-0.01-0.77c0-3.22,0.11-6.4,0.35-9.44
			c0.5-6.23,1.56-12.59,2.99-18.88c0.05-0.26,0.11-0.51,0.18-0.77c0.64-2.79,1.36-5.55,2.12-8.29c0.07-0.26,0.14-0.52,0.21-0.76
			c1.02-3.55,2.11-7.03,3.25-10.41c0.19-0.58,0.39-1.16,0.58-1.72c2.09-6.05,4.28-11.76,6.38-16.89V229
			c0.18-0.44,0.37-0.88,0.55-1.31c0.38-0.92,0.75-1.82,1.12-2.69c0.1-0.25,0.21-0.5,0.31-0.74c0.87-2.05,1.7-3.99,2.48-5.79
			c1.98-4.57,4.45-8.91,7.47-12.78c0.13-0.18,0.27-0.35,0.41-0.53c0.05-0.07,0.11-0.13,0.17-0.21c0.15-0.19,0.3-0.37,0.46-0.56
			c3.49-4.18,7.67-7.75,12.58-10.39c1.37-0.74,2.78-1.4,4.27-1.99c0.51,0.57,1.04,1.13,1.57,1.66c0.53,0.54,1.07,1.01,1.63,1.44
			c0.24,0.19,0.5,0.38,0.74,0.55c2.67,1.84,5.54,2.6,8.27,2.75c2.54,0.14,4.93-0.26,6.91-0.82c0.27-0.07,0.53-0.15,0.77-0.23
			c1.39-0.44,2.51-0.95,3.24-1.36c1.47-0.82,4.07-5.29,6.46-9.91l0.73-0.15c0,0,0.26-0.1,0.77-0.26l9.07-0.83l0.15-0.01
			c0.19,0.01,0.38,0.02,0.58,0.04c0.67,0.04,1.35,0.1,2.07,0.19c2.76,0.31,5.93,0.93,9.51,2.01c0.24,0.07,0.47,0.15,0.73,0.23
			c0.78,0.25,1.57,0.51,2.4,0.8c10.32,3.72,16.18,9.35,20.34,16.36c0.15,0.25,0.31,0.51,0.45,0.77c1.82,3.17,3.3,6.61,4.73,10.27
			c0.19,0.47,0.37,0.94,0.56,1.42c0,0.01,0,0.01,0,0.02c0.1,0.27,0.2,0.54,0.31,0.81c0.4,1.07,0.83,2.2,1.27,3.35
			c0.1,0.25,0.19,0.5,0.29,0.74c1.45,3.8,3.1,7.96,4.77,12.39v0.03c0.2,0.54,0.4,1.07,0.61,1.62c2.5,6.71,5.02,13.92,7.04,21.22
			v0.01c0.08,0.26,0.15,0.52,0.22,0.78c0.76,2.72,1.43,5.47,2.01,8.18c0.06,0.27,0.11,0.53,0.16,0.78c0.13,0.63,0.25,1.25,0.37,1.87
			C257.84,275.71,257.28,285.83,255.51,296.96z"/>
		<path class="st4" d="M344.76,153.08c-4.63,5.16-13.22,4.47-13.22,4.47s-2.01,2.58-5.3,5.36c-1.51,1.29-3.3,2.62-5.28,3.76
			c-4.92,2.83-10.95,4.8-16.9,3.47c-0.69-0.15-1.38-0.35-2.06-0.6c-0.95-0.34-1.9-0.77-2.85-1.32c-7.44-4.29-8.92-15.31-6.77-32
			c1.21-9.39,3.29-14.58,5.14-17.42c1.37,0.09,2.9-0.55,4.12-1.89c0,0,2.1,6.07,10.66,6.07c8.55,0,14.25-6.77,14.25-6.77
			s4.29,6.18,8.93,7.82c0.69,0.25,1.38,0.39,2.07,0.4c0,0,1.27,5.89,1.52,11.45c0.24,5.55,0,8.26,0,8.26s0.27-0.12,0.75-0.38
			c-0.01,0.02-0.01,0.04-0.01,0.04s0.05-0.04,0.11-0.09c1.03-0.57,2.9-1.7,5.02-3.51c0.48-0.25,0.93-0.44,1.31-0.53
			C348.4,139.14,349.39,147.92,344.76,153.08z"/>
		<path class="st5" d="M232.86,305.14c-1.96-18.05-9.79-62.3-8.68-80.08c0,0-5.44,3.87-5.31,34.84c0.04,8.57-0.12,17.83-0.37,26.77
			c-8.71,6.47-28.12,20.37-39.84,20.37c-11.46,0.01-21.97-5.22-27.41-14.17c-0.07-4.51-0.17-8.87-0.31-12.67
			c-0.65-17.89-4.84-33.49-4.84-33.49c-0.54,12.26-14.29,52.87-14.29,52.87c1.74,11.83-0.66,32.46-1.31,39.8
			c2.04-0.31,3.61-0.28,4.42-0.23c0.39,0.02,0.6,0.05,0.6,0.05l0.01-0.02c0.01-0.05,0.05-0.28,0.13-0.68
			c-0.01-0.01-0.01-0.01,0-0.02c0.02-0.14,0.05-0.31,0.08-0.5c0.22-1.28,0.58-3.49,0.93-6.28c0.04-0.29,0.08-0.59,0.12-0.9
			c0.53-4.32,1.02-9.83,1.02-15.34c0-11.87-0.25-15.48-0.25-15.48c0.04-0.21,0.09-0.43,0.15-0.68c0.06-0.24,0.12-0.5,0.19-0.76
			c1.19-4.73,4.18-14.13,6.17-20.28c0.26-0.83,0.52-1.61,0.75-2.3c0.02-0.07,0.05-0.15,0.07-0.22c0.66-2.07,1.1-3.36,1.1-3.36v0.42
			c0,0,0,0.01,0,0.02c0.03,4.4,0.44,11.31,0.95,18.28c0.01,0.19,0.03,0.39,0.04,0.58c0.02,0.29,0.04,0.57,0.06,0.86
			c0.17,2.33,0.35,4.64,0.54,6.85c0.02,0.27,0.04,0.53,0.07,0.78c0.68,8.35,1.31,15.04,1.31,15.04s0.77,1.27,2.32,3.14
			c2.11,2.53,5.69,6.15,10.8,9.13c0.25,0.14,0.51,0.29,0.76,0.43c4.3,2.37,9.6,4.25,15.97,4.71c0.25,0.02,0.49,0.04,0.74,0.05
			c2.13,0.12,4.39,0.07,6.76-0.17c2.18-0.22,4.27-0.55,6.28-0.97c0.25-0.05,0.49-0.1,0.73-0.15c4.96-1.1,9.4-2.75,13.29-4.61
			c0.26-0.12,0.51-0.25,0.76-0.36c3.81-1.89,7.08-3.99,9.74-5.98c5.54-4.12,8.57-7.74,8.84-8.07c0.01-0.01,0.02-0.02,0.02-0.02
			c0.1,0.74,0.16,1.6,0.19,2.55c0,0,0,0,0,0.01c0.16,5.41-0.72,13.78-1.57,20.47c-0.04,0.27-0.07,0.54-0.1,0.8
			c-0.73,5.56-1.42,9.76-1.42,9.76c1.51,0.15,3.01,0.37,4.47,0.67C230.62,337.1,234.7,322.18,232.86,305.14z"/>
		<path class="st6" d="M344.76,153.08c-4.63,5.16-13.22,4.47-13.22,4.47s-2.01,2.58-5.3,5.36c-1.51,1.29-3.3,2.62-5.28,3.76
			c-4.92,2.83-10.95,4.8-16.9,3.47c-0.69-0.15-1.38-0.35-2.06-0.6c16.15,0.1,24.87-11.78,30.53-22.71
			c4.23-8.17,3.76-17.24,2.93-22.8c0.69,0.25,1.38,0.39,2.07,0.4c0,0,1.27,5.89,1.52,11.45c0.24,5.55,0,8.26,0,8.26
			s0.27-0.12,0.75-0.38c-0.01,0.02-0.01,0.04-0.01,0.04s0.05-0.04,0.11-0.09c1.03-0.57,2.9-1.7,5.02-3.51
			c0.48-0.25,0.93-0.44,1.31-0.53C348.4,139.14,349.39,147.92,344.76,153.08z"/>
		<g>
			<path class="st7" d="M182.02,207.39c0,4.72-0.17,10.04-0.43,16.1c-0.01,0.26-0.02,0.52-0.03,0.77c-0.13,2.95-0.27,6.08-0.42,9.38
				c-0.23,4.9-0.47,10.27-0.71,16.16c-0.19,4.57-0.36,7.1-0.5,9.06c-0.02,0.23-0.03,0.44-0.06,0.65c0,0.04-0.01,0.08-0.01,0.12
				c-0.15,2.12-0.28,3.88-0.37,7.64c0,0.25-0.01,0.51-0.02,0.77c-0.11,5.39-0.14,14.63-0.08,33.36v0.76
				c0.03,8.22,0.07,18.22,0.14,30.48c-0.25-0.01-0.5-0.03-0.74-0.05c-0.07-12.23-0.12-22.22-0.15-30.43v-0.77
				c-0.06-18.67-0.02-27.92,0.09-33.33c0.01-0.27,0.01-0.52,0.02-0.77c0.09-3.76,0.22-5.54,0.38-7.65c0-0.06,0-0.13,0.02-0.2
				c0.01-0.19,0.03-0.38,0.04-0.58c0.14-1.96,0.31-4.5,0.51-9.11c0.24-5.89,0.48-11.25,0.71-16.17c0.15-3.27,0.29-6.37,0.42-9.29
				c0.02-0.26,0.03-0.52,0.04-0.77c0.26-6.07,0.43-11.41,0.43-16.11v-0.77c-0.02-1.24-0.03-2.44-0.06-3.59
				c-0.01-0.22,0.15-0.39,0.36-0.4c0.19-0.01,0.38,0.16,0.39,0.37c0.03,1.16,0.05,2.34,0.05,3.58
				C182.02,206.88,182.02,207.13,182.02,207.39z"/>
		</g>
		<g>
			<g>
				<path class="st8" d="M234.18,205.24c-5.9-0.05-15.01,0.24-24.43,0.65c-0.25,0.01-0.5,0.02-0.74,0.03
					c-4.18,0.18-8.39,0.39-12.41,0.61c-0.24,0.02-0.49,0.03-0.74,0.04c-5.03,0.27-9.73,0.56-13.55,0.8
					c-0.1,0.01-0.19,0.01-0.29,0.01c-0.25,0.02-0.5,0.04-0.74,0.04c-2.3,0.13-4.73,0.18-7.22,0.18c-4.04,0-8.22-0.14-12.31-0.35
					c-0.25-0.02-0.49-0.03-0.73-0.04c-5.81-0.32-11.35-0.76-15.86-1.12c-1.41-0.11-2.77-0.23-3.99-0.32
					c-0.26-0.02-0.51-0.04-0.76-0.05c-0.18-0.02-0.35-0.03-0.52-0.04c0.13-0.18,0.27-0.35,0.41-0.53c0-0.07-0.02-0.14-0.03-0.23
					c0.06,0.01,0.13,0.01,0.2,0.02c0.18,0.01,0.37,0.03,0.57,0.04c1.16,0.09,2.55,0.2,4.18,0.33c4.5,0.36,10.02,0.81,15.79,1.13
					c0.25,0.01,0.5,0.02,0.74,0.03c6.6,0.35,13.49,0.52,19.53,0.18c0.24-0.01,0.49-0.02,0.73-0.04c0.09,0,0.17,0,0.25-0.01
					c3.85-0.25,8.58-0.52,13.67-0.8c0.25-0.01,0.5-0.02,0.74-0.03c4.01-0.22,8.22-0.42,12.38-0.61c0.25-0.01,0.5-0.02,0.74-0.03
					c9.15-0.4,18.02-0.69,23.93-0.66C233.88,204.72,234.04,204.98,234.18,205.24z"/>
			</g>
			<g>
				<path class="st8" d="M162.81,327.91c-0.25-0.14-0.51-0.29-0.76-0.43c-0.22-5.94-0.55-15.74-0.8-26.2c0-0.26-0.01-0.52-0.02-0.78
					c-0.22-9.64-0.37-19.76-0.28-27.87c0.01-1.31,0.03-2.77,0.04-4.36v-0.77c0.02-2.33,0.03-4.91,0.04-7.69v-0.77
					c0.03-9.85,0.03-21.97,0.01-33.66c0.02-0.26,0.02-0.52,0-0.77c0-6.07-0.02-11.99-0.03-17.39c0-0.26,0-0.51-0.01-0.77
					c0-4.17-0.02-8.02-0.03-11.34c0.24,0.19,0.5,0.38,0.74,0.55c0.01,3.21,0.03,6.86,0.03,10.83c0.01,0.26,0.01,0.53,0,0.79
					c0.02,5.38,0.03,11.28,0.04,17.33c0,0.26,0.01,0.52,0,0.77c0.02,11.67,0.03,23.82-0.01,33.67c0.01,0.26,0.01,0.5,0,0.76
					c0,2.78-0.02,5.37-0.03,7.7v0.77c-0.01,1.59-0.03,3.05-0.04,4.36c-0.09,8.12,0.06,18.27,0.28,27.92
					c0.01,0.26,0.01,0.52,0.02,0.77C162.25,312.03,162.6,322.05,162.81,327.91z"/>
			</g>
			<g>
				<path class="st8" d="M198.68,184.88c-0.42,4.3-1.16,11.96-2.01,20.89c-0.02,0.26-0.05,0.5-0.07,0.76
					c-0.48,5.11-1,10.62-1.51,16.14c-0.02,0.26-0.05,0.52-0.07,0.77c-0.73,8.03-1.45,16.06-2.01,22.91c-0.3,3.62-0.53,7.82-0.7,12.4
					c-0.01,0.26-0.02,0.51-0.03,0.77c-0.08,2.38-0.15,4.87-0.21,7.42c0,0.26-0.01,0.51-0.01,0.76c-0.22,10.79-0.19,22.69,0.01,33.49
					c0.02,0.26,0.02,0.51,0.02,0.77c0.24,12.49,0.68,23.44,1.2,29.4c-0.25,0.05-0.48,0.1-0.73,0.15
					c-0.51-5.97-0.97-16.97-1.21-29.52c0-0.26-0.01-0.51-0.01-0.78c-0.2-10.82-0.24-22.71-0.02-33.49c0-0.26,0.01-0.51,0.02-0.77
					c0.05-2.55,0.11-5.04,0.2-7.43c0-0.26,0.01-0.52,0.02-0.77c0.17-4.6,0.41-8.84,0.71-12.48c0.56-6.83,1.27-14.81,2-22.8
					c0.02-0.26,0.05-0.51,0.07-0.76c0.51-5.52,1.02-11.02,1.51-16.14c0.02-0.26,0.05-0.52,0.07-0.77c0.85-8.95,1.6-16.62,2.02-20.95
					l0.15-0.01C198.29,184.85,198.48,184.86,198.68,184.88z"/>
			</g>
			<g>
				<path class="st8" d="M210.99,187.31c-0.3,4.65-0.72,10.92-1.19,17.82c-0.01,0.26-0.03,0.51-0.05,0.76
					c-0.15,2.17-0.3,4.4-0.46,6.65c-0.17,2.51-0.41,5.83-0.64,9.74c-0.02,0.26-0.04,0.51-0.05,0.76
					c-0.61,9.53-1.32,22.36-1.62,35.51c-0.02,0.26-0.02,0.52-0.02,0.77c-0.06,2.41-0.1,4.81-0.12,7.22
					c-0.01,0.26-0.01,0.52-0.01,0.77c-0.06,6.35,0,12.61,0.24,18.47c0.21,5.12,0.33,10.14,0.42,14.84c0.01,0.26,0.01,0.52,0.01,0.76
					c0.16,10.71,0.03,19.8-0.15,25.02c-0.25,0.11-0.5,0.24-0.76,0.36c0.18-4.96,0.34-14.09,0.17-25.35c0-0.25-0.01-0.5-0.01-0.76
					c-0.07-4.64-0.21-9.63-0.42-14.83c-0.24-5.86-0.31-12.14-0.25-18.48v-0.77c0.03-2.41,0.07-4.82,0.12-7.23
					c0.01-0.26,0.02-0.52,0.02-0.77c0.32-13.15,1.02-25.97,1.63-35.5c0.02-0.26,0.04-0.52,0.05-0.76c0.26-3.94,0.48-7.28,0.67-9.81
					c0.15-2.22,0.31-4.42,0.45-6.55c0.02-0.26,0.04-0.52,0.05-0.76c0.49-7.03,0.9-13.39,1.21-18.08
					C210.5,187.15,210.74,187.22,210.99,187.31z"/>
			</g>
			<g>
				<path class="st8" d="M135.64,338.48c-0.01,0.01-0.01,0.01,0,0.02c-0.08,0.4-0.12,0.63-0.13,0.68l-0.01,0.02
					c0,0-0.2-0.03-0.6-0.05c-0.37-10.61-0.92-25.94-1.46-40.24c0-0.27-0.01-0.53-0.03-0.78c-0.45-11.96-0.88-23.12-1.19-30.11
					c-0.01-0.11-0.02-0.21-0.02-0.32c-0.01-0.16-0.01-0.3-0.02-0.46c-0.13-2.59-0.3-5.19-0.5-7.76l-0.06-0.78
					c-0.98-11.96-2.65-23.19-3.68-29.69V229c0.18-0.44,0.37-0.88,0.55-1.31c1,6.29,2.84,18.24,3.87,31.04
					c0.02,0.26,0.05,0.53,0.07,0.79c0.2,2.56,0.37,5.16,0.48,7.74c0.01,0.13,0.01,0.27,0.02,0.4c0.02,0.12,0.02,0.25,0.02,0.37
					c0.31,7.01,0.75,18.2,1.2,30.16c0.01,0.27,0.02,0.53,0.03,0.79C134.72,312.97,135.25,327.92,135.64,338.48z"/>
			</g>
			<g>
				<path class="st8" d="M127.25,340.08c-0.25,0.07-0.5,0.15-0.74,0.23c0.29-7.81,0.42-20.52-0.5-34.35
					c-0.16-2.37-0.35-4.98-0.57-7.78c-0.02-0.26-0.04-0.51-0.06-0.78c-0.69-8.95-1.61-19.57-2.5-29.48
					c-0.03-0.26-0.05-0.52-0.07-0.76c-0.26-2.77-0.51-5.48-0.74-8.07c-0.02-0.27-0.05-0.53-0.07-0.79c-0.37-3.89-0.7-7.5-1-10.66
					c0.19-0.58,0.39-1.16,0.58-1.72c0.34,3.55,0.74,7.79,1.16,12.42c0.03,0.26,0.05,0.51,0.08,0.78c0.23,2.58,0.48,5.29,0.72,8.04
					c0.03,0.26,0.05,0.52,0.07,0.77c0.91,9.94,1.83,20.58,2.52,29.54c0.02,0.27,0.04,0.53,0.07,0.78c0.2,2.75,0.38,5.32,0.55,7.65
					C127.67,319.59,127.54,332.2,127.25,340.08z"/>
			</g>
			<g>
				<path class="st8" d="M253.98,257.93c-2.36-0.11-5.42-0.21-8.92-0.18c-0.25,0-0.5,0-0.74,0.01c-2.6,0.03-5.43,0.14-8.43,0.36
					c-0.25,0.02-0.5,0.03-0.74,0.06c-0.52,0.03-1.03,0.07-1.56,0.12c-5.52,0.5-15.47,0.81-26.63,1.01c-0.25,0-0.5,0.01-0.75,0.01
					c-4.52,0.08-9.23,0.15-13.91,0.2c-0.25,0-0.5,0.01-0.73,0.01c-3.97,0.04-7.91,0.08-11.7,0.11c-0.25,0-0.48,0-0.74,0.01
					c-1.82,0.01-3.61,0.02-5.35,0.04c-4.44,0.03-8.51,0.07-11.98,0.1c-0.25,0.01-0.5,0.01-0.74,0.01c-1.26,0.02-2.43,0.03-3.5,0.04
					c-1.54,0.03-3.16,0.04-4.82,0.04c-2.56,0-5.25-0.02-7.97-0.07c-0.24,0-0.49-0.01-0.74-0.01c-3.89-0.07-7.84-0.18-11.56-0.3
					c-0.25-0.01-0.5-0.02-0.74-0.03c-3.21-0.11-6.23-0.24-8.87-0.38c-0.26-0.01-0.51-0.02-0.75-0.03c-1.7-0.09-3.23-0.18-4.53-0.27
					c0.07-0.26,0.14-0.52,0.21-0.76c1.23,0.08,2.65,0.17,4.25,0.25c0.25,0.01,0.5,0.02,0.74,0.03c2.63,0.14,5.65,0.27,8.89,0.39
					c0.25,0.01,0.49,0.02,0.74,0.02c3.69,0.14,7.65,0.25,11.62,0.32c0.25,0,0.49,0,0.74,0.01c4.38,0.07,8.77,0.09,12.79,0.03
					c1.07-0.02,2.24-0.03,3.51-0.04c0.24-0.01,0.5-0.01,0.74-0.01c3.47-0.04,7.54-0.08,11.98-0.11c1.75-0.01,3.57-0.03,5.42-0.04
					c0.24,0,0.49-0.01,0.74-0.01c3.76-0.03,7.7-0.07,11.65-0.11c0.25,0,0.5,0,0.74-0.01c4.68-0.05,9.38-0.11,13.9-0.2
					c0.25-0.01,0.51-0.01,0.76-0.01c11.12-0.21,21.05-0.51,26.54-1c0.53-0.05,1.07-0.09,1.6-0.13c0.25-0.02,0.5-0.04,0.74-0.05
					c3.02-0.23,5.87-0.34,8.5-0.37c0.24-0.01,0.5-0.01,0.74-0.01c3.38-0.03,6.34,0.05,8.65,0.15v0.01
					C253.84,257.4,253.91,257.66,253.98,257.93z"/>
			</g>
			<g>
				<path class="st8" d="M256.15,266.9c-2.8-0.17-6.64-0.31-11.63-0.33h-0.94c-2.19,0-4.7,0.02-7.5,0.06
					c-0.25,0.01-0.5,0.01-0.74,0.01c-7.72,0.13-17.53,0.37-28.52,0.67c-0.24,0.01-0.49,0.02-0.74,0.02
					c-2.89,0.08-5.85,0.16-8.88,0.25c-1.69,0.04-3.39,0.09-5.13,0.14c-0.25,0.01-0.5,0.02-0.74,0.02c-3.86,0.1-7.82,0.22-11.86,0.33
					c-0.16,0-0.32,0.01-0.47,0.01c-0.09,0-0.18,0-0.27,0.01c-5.32,0.12-11.12,0.19-16.98,0.2h-1.34c-5.27,0-10.57-0.04-15.63-0.08
					c-0.24-0.01-0.5-0.01-0.74-0.01c-3.89-0.05-7.62-0.1-11.08-0.15c-0.25,0-0.5,0-0.73-0.01c-0.38,0-0.75,0-1.12-0.01
					c-2.63-0.03-5.16-0.06-7.49-0.09c-0.24,0-0.49,0-0.73-0.01c-2.99-0.03-5.63-0.05-7.65-0.04c0.05-0.26,0.11-0.51,0.18-0.77
					c1.83-0.01,4.26,0.01,7.4,0.05c0.24-0.01,0.47,0,0.73,0c2.18,0.02,4.7,0.05,7.58,0.09c0.35,0,0.7,0.01,1.07,0.01
					c0.24,0.01,0.49,0.01,0.73,0.01c3.47,0.05,7.21,0.1,11.11,0.15c0.25,0.01,0.5,0.01,0.74,0.01c5.26,0.05,10.76,0.1,16.22,0.1
					h0.75c5.88-0.01,11.68-0.07,16.99-0.2c0.08-0.01,0.15-0.01,0.23-0.01c0.17,0,0.35-0.01,0.51-0.01c4.04-0.11,8-0.22,11.86-0.32
					c0.25-0.01,0.48-0.02,0.73-0.02c1.73-0.05,3.43-0.1,5.1-0.15c3.03-0.08,6.01-0.16,8.9-0.25c0.26,0,0.51-0.01,0.75-0.02
					c10.99-0.29,20.79-0.54,28.51-0.66c0.24,0,0.5-0.01,0.74-0.01c2.8-0.04,5.31-0.06,7.5-0.06h0.98c4.85,0.02,8.63,0.15,11.42,0.31
					C256.04,266.38,256.09,266.64,256.15,266.9z"/>
			</g>
			<g>
				<path class="st8" d="M239.46,216.94c0,0.01,0,0.01,0,0.02c-0.21,1.51-0.43,2.99-0.64,4.45c-0.04,0.27-0.08,0.54-0.12,0.81
					c-0.03,0.22-0.06,0.42-0.09,0.64c-1.56,10.58-3.02,20.62-2.76,34.51c0.01,0.25,0.01,0.5,0.02,0.76c0.02,0.94,0.05,1.9,0.09,2.88
					c0.06,1.61,0.1,3.23,0.11,4.86c0.02,0.25,0.02,0.51,0,0.76c0.04,10.29-0.81,20.98-1.59,30.59c-0.05,0.61-0.1,1.21-0.15,1.81
					c-0.02,0.27-0.04,0.53-0.06,0.78c-0.66,8.17-1.2,15.81-1.07,22.11c0.21,8.99,0.41,19.24,0.54,26.33
					c-0.24-0.08-0.48-0.16-0.74-0.24c-0.14-7.08-0.33-17.2-0.54-26.07c-0.14-6.31,0.41-13.93,1.06-22.07
					c0.01-0.26,0.03-0.53,0.05-0.79c0.06-0.64,0.11-1.28,0.16-1.93c0.78-9.6,1.63-20.26,1.59-30.51c0.01-0.26,0.01-0.5,0-0.76
					c-0.01-1.62-0.05-3.23-0.11-4.83c-0.04-0.97-0.07-1.93-0.09-2.86c-0.02-0.26-0.02-0.52-0.02-0.77
					c-0.27-13.97,1.2-24.05,2.77-34.67c0.02-0.14,0.03-0.29,0.06-0.43c0.04-0.26,0.08-0.53,0.12-0.79c0.28-1.95,0.56-3.94,0.84-6
					C239.09,215.99,239.27,216.45,239.46,216.94z"/>
			</g>
			<g>
				<path class="st8" d="M246.72,235.91c-0.42,5-1.06,12.78-1.61,21.07c-0.02,0.26-0.03,0.51-0.05,0.77
					c-0.18,2.66-0.35,5.38-0.5,8.05c-0.01,0.26-0.03,0.51-0.04,0.77c-0.33,6.15-0.56,12.11-0.57,16.95
					c-0.01,4.1,0.03,9.2,0.11,14.72c0,0.26,0.01,0.52,0.01,0.77c0.19,13.54,0.58,29.42,0.91,39.07c-0.22,0.62-0.45,1.24-0.67,1.86
					c-0.36-9.5-0.77-26.66-0.97-40.86c-0.01-0.26-0.01-0.52-0.01-0.77c-0.07-5.68-0.13-10.83-0.11-14.78
					c0.02-4.84,0.25-10.8,0.57-16.95c0.02-0.26,0.03-0.51,0.04-0.77c0.15-2.67,0.31-5.38,0.5-8.04c0.01-0.26,0.03-0.52,0.05-0.78
					c0.61-9.24,1.33-17.85,1.75-22.7C246.31,234.83,246.51,235.36,246.72,235.91z"/>
			</g>
			<g>
				<path class="st8" d="M241.34,221.87c-0.84,0.11-1.72,0.23-2.63,0.34c-0.25,0.03-0.51,0.06-0.77,0.09
					c-5.32,0.63-11.68,1.14-17.05,0.91c-3.78-0.16-7.85-0.23-12.3-0.18c-0.25,0-0.51,0-0.75,0.01c-3.97,0.04-8.22,0.18-12.82,0.4
					c-0.24,0.01-0.5,0.02-0.74,0.03c-3.98,0.2-8.21,0.45-12.72,0.78c-0.25,0.01-0.5,0.03-0.75,0.05c-1.88,0.14-3.82,0.29-5.81,0.44
					c-4.03,0.32-8.55,0.52-13.21,0.61c-0.25,0.01-0.49,0.02-0.74,0.02c-2.68,0.05-5.39,0.07-8.07,0.07c-3.21,0-6.38-0.03-9.37-0.08
					c-0.25,0-0.5-0.01-0.74-0.01c-5.2-0.09-9.84-0.24-13.24-0.37c0.1-0.25,0.21-0.5,0.31-0.74c3.35,0.11,7.84,0.25,12.86,0.34
					c0.24,0,0.51,0.01,0.75,0.01c5.5,0.09,11.6,0.12,17.5,0.01c0.25,0,0.5-0.01,0.74-0.02c4.63-0.09,9.14-0.28,13.15-0.6
					c2.02-0.16,4-0.31,5.91-0.45c0.25-0.02,0.5-0.03,0.74-0.05c4.53-0.33,8.78-0.59,12.76-0.77c0.25-0.02,0.5-0.03,0.74-0.04
					c4.59-0.21,8.85-0.35,12.8-0.39c0.26-0.01,0.51-0.01,0.75-0.01c4.43-0.05,8.5,0.01,12.27,0.17c5.41,0.24,11.81-0.3,17.15-0.94
					c0.26-0.03,0.5-0.06,0.76-0.11c0.77-0.09,1.52-0.19,2.22-0.28C241.14,221.38,241.24,221.62,241.34,221.87z"/>
			</g>
			<g>
				<path class="st8" d="M134.16,298.19c1.22,0.12,2.46,0.23,3.71,0.35c-0.07,0.27-0.13,0.53-0.19,0.76
					c-1.18-0.11-2.34-0.22-3.49-0.33l-0.74-0.06c-2.08-0.2-4.1-0.38-6.04-0.56c-0.41-0.04-0.8-0.07-1.2-0.11
					c-0.25-0.02-0.51-0.04-0.76-0.07c-5.36-0.48-10.21-0.94-13.53-1.21c-0.01-0.26-0.01-0.52-0.01-0.77
					c2.87,0.23,7.21,0.62,13.49,1.2c0.24,0.03,0.5,0.05,0.74,0.07c0.44,0.04,0.88,0.08,1.34,0.12c1.91,0.18,3.9,0.36,5.95,0.55
					C133.67,298.15,133.92,298.17,134.16,298.19z"/>
				<path class="st8" d="M255.51,296.96c-0.03,0.27-0.09,0.53-0.12,0.8v0.01c-3.08,0.42-6.94,0.84-11.33,1.24
					c-0.24,0.02-0.48,0.04-0.73,0.06c-2.84,0.25-5.88,0.5-9.04,0.73c-0.25,0.02-0.51,0.03-0.75,0.06
					c-8.32,0.6-17.47,1.12-26.05,1.52c-0.25,0.02-0.49,0.03-0.73,0.03c-5.2,0.25-10.18,0.43-14.65,0.57
					c-0.24,0.01-0.5,0.02-0.74,0.03c-4.35,0.11-8.17,0.19-11.18,0.19c-0.27,0-0.52,0-0.78-0.01c-0.25,0.01-0.51,0-0.75,0
					c-0.24,0-0.48-0.01-0.7-0.01c-3.96-0.06-9.57-0.38-15.93-0.85c-0.24-0.01-0.49-0.03-0.75-0.05c-4.32-0.32-8.96-0.7-13.63-1.11
					c-0.03-0.26-0.05-0.52-0.07-0.78c4.69,0.41,9.35,0.8,13.68,1.11c0.25,0.02,0.51,0.04,0.75,0.05c6.38,0.47,12.01,0.8,15.97,0.86
					c0.22,0,0.44,0.01,0.68,0c0.25,0.01,0.5,0.01,0.75,0.01c3.11,0.01,7.23-0.05,11.96-0.2c0.24,0,0.48-0.01,0.73-0.02
					c4.48-0.13,9.46-0.32,14.67-0.56c0.25-0.01,0.49-0.02,0.73-0.03c8.62-0.4,17.79-0.93,26.11-1.54c0.25-0.02,0.51-0.04,0.76-0.06
					c3.14-0.23,6.15-0.46,8.97-0.72c0.25-0.02,0.5-0.04,0.74-0.06C248.51,297.83,252.44,297.4,255.51,296.96z"/>
			</g>
		</g>
		<path class="st7" d="M377.98,531.97c-0.16,3.2-2.01,5.84-3.28,7.3c-0.68,0.77-1.19,1.22-1.19,1.22s-28.26-44.13-36.19-59.35
			c-7.93-15.23-12.15-23.74-16.36-45.42c-3.38-17.3-13.06-55.17-16.82-69.77c0-0.02-0.01-0.03-0.01-0.05
			c-0.95-3.66-1.52-5.84-1.52-5.85c-0.01,0-0.07,0.03-0.16,0.08c-0.91,0.49-5.29,3.08-5.29,3.08s-1.49,8.77-3.97,22.33
			c-2.48,13.55-12.64,54.83-12.64,54.83s4.71,18.06,3.72,42.32c-1,24.26-16.12,63.22-17.11,66.32c-0.3,0.93-0.86,1.54-1.51,1.92
			c-1.51,0.9-3.45,0.66-3.45,0.66s-3.96-43.61-4.6-61.42c-0.63-17.81-5.56-66.06-4.57-88.77c0.36-8.29,1.07-19.82,1.81-31.13
			c1.31-19.7,2.76-38.73,2.76-38.73l4.16-5.83c0.32,1.01,0.52,1.63,0.52,1.63c5.64-0.69,12.45-2.46,18.61-4.34
			c9.38-2.86,17.26-5.99,17.26-5.99c26.77,1.55,38.92-7.92,38.92-7.92s5.2,33.47,7.93,54.88c2.73,21.42,5.46,72.77,5.46,72.77
			s12.14,9.03,18.84,29.16C375.99,486.04,377.98,531.97,377.98,531.97z"/>
		<path class="st9" d="M302.46,360.13c-0.91,0.49-5.29,3.08-5.29,3.08s-1.49,8.77-3.97,22.33c-2.48,13.55-12.64,54.83-12.64,54.83
			s4.71,18.06,3.72,42.32c-1,24.26-16.12,63.22-17.11,66.32c-0.3,0.93-0.86,1.54-1.51,1.92c2.8-10.39,8.92-36.04,10.19-65.32
			c1.66-38.19,0-46.45,0-46.45s10.55-48.25,16.02-65.41l5.12-10.88c0,0,5.09-3.83,5.46-3.16
			C302.45,359.73,302.46,359.87,302.46,360.13z"/>
		<path class="st10" d="M302.47,361.33c0,0.01,0,0.01,0,0.02c-0.01-0.03-0.01-0.04-0.01-0.04S302.46,361.32,302.47,361.33z"/>
		<path class="st10" d="M302.47,361.33c0,0.01,0,0.01,0,0.02c-0.01-0.03-0.01-0.04-0.01-0.04S302.46,361.32,302.47,361.33z"/>
		<path class="st9" d="M374.7,539.27c-0.68,0.77-1.19,1.22-1.19,1.22s-28.26-44.13-36.19-59.35c-7.93-15.23-12.15-23.74-16.36-45.42
			c-3.38-17.3-13.06-55.17-16.82-69.77c4.8,13.18,18.51,50.71,23.93,64.06c6.6,16.32,14.87,41.83,29.33,71.08
			C365.96,518.4,371.76,531.76,374.7,539.27z"/>
		<path class="st9" d="M280.9,323.01c-4.62,5.39-8.68,10.79-11.96,15.58c-3.21,4.68-9.25,19.33-14.09,31.69
			c1.31-19.7,2.76-38.73,2.76-38.73l4.16-5.83c0.32,1.01,0.52,1.63,0.52,1.63C267.94,326.65,274.75,324.88,280.9,323.01z"/>
		<path class="st11" d="M361.29,223.98v0.01c0.17,7.53-1.12,15.42-3.4,23.1c-1.81,6.05-3.61,10.7-5.22,14.21
			c-0.61,1.32-1.18,2.49-1.71,3.5c-0.02,0.02-0.02,0.04-0.04,0.06c-0.96,1.77-1.79,3.09-2.43,4.03c-0.85,1.24-1.39,1.81-1.49,1.91
			c-0.01,0.01-0.02,0.02-0.03,0.04c-0.25,1.03-8.43,33.11-9.79,37.9c-0.05,0.15-0.08,0.26-0.11,0.35c0,0-12.15,9.47-38.92,7.92
			c0,0-0.32,0.12-0.9,0.35c-0.83,0.32-2.21,0.84-3.98,1.49c-0.03,0.02-0.06,0.03-0.09,0.03c-0.82,0.3-1.7,0.62-2.68,0.96h-0.01
			c-0.34,0.11-0.68,0.24-1.03,0.36l-0.72,0.25c-7.56,2.59-18.25,5.88-26.46,6.88c0,0-0.2-0.62-0.52-1.63
			c-0.33-1.05-0.77-2.52-1.25-4.17c-0.17-0.57-0.33-1.14-0.5-1.73c-0.04-0.17-0.07-0.33-0.13-0.5c-0.7-2.5-1.36-5.14-1.74-7.24
			c-0.23-1.23-0.36-2.26-0.33-2.97l1.06-1.06l1.52-1.53c0,0,0-0.01,0.01-0.01l0.06-0.06c0,0,0.55-11.35,1.06-24.08
			c0.41-10.22,0.78-21.33,0.8-28.18c0-1.39-0.01-2.61-0.04-3.61c-0.32-11.52,1.95-30.29,2.14-31.77c0-0.01,0-0.01,0-0.01
			c0.01-0.05,0.01-0.08,0.01-0.08s-0.2,0.42-0.58,1.18c-0.18,0.36-0.41,0.8-0.65,1.32c-2.57,5.13-8.48,17-11.83,23.74
			c-0.02,0.04-0.05,0.08-0.07,0.13c-0.27,0.55-0.51,1.03-0.74,1.5l-0.04-0.09l-0.35-0.92v-0.01l-2.54-6.8L237.59,212
			c0,0,14.96-29.31,27.85-33.74c7.22-2.5,15.57-4.08,24.72-5.03c2.14-0.23,4.33-0.41,6.57-0.57c0.25-0.02,0.51-0.04,0.75-0.05
			c2.15-0.15,4.33-0.27,6.56-0.36c-0.01,1.27,0.01,2.58,0.02,3.55c-0.01,0-0.01-0.01-0.02-0.01c0,0-0.26,2.77-0.57,6.5
			c-0.65,7.48-1.56,18.88-1.27,19.87c0.27,0.99,7.48-10.22,12.31-17.9c2.47-3.92,4.31-6.93,4.31-6.93l2.32-4.51
			c1.18,0.72,3.06,1.9,5.37,3.44c0.21,0.14,0.42,0.27,0.63,0.41c2.36,1.57,5.1,3.47,7.99,5.62c5.39,4.01,11.28,8.87,16.01,13.96
			C358.09,203.75,361.08,213.51,361.29,223.98z"/>
		<path class="st12" d="M304.06,175.8c-0.01,0-0.01-0.01-0.02-0.01c0,0-0.26,2.77-0.57,6.5c-7.45-2.44-11.4-6.48-13.3-9.06
			c2.14-0.23,4.33-0.41,6.57-0.57c0.25-0.02,0.51-0.04,0.75-0.05c2.15-0.15,4.33-0.27,6.56-0.36
			C304.03,173.52,304.05,174.83,304.06,175.8z"/>
		<path class="st12" d="M335.12,182.29c-8.19,1.8-14.98,2.3-20.62,1.97c2.47-3.92,4.31-6.93,4.31-6.93l2.32-4.51
			c1.18,0.72,3.06,1.9,5.37,3.44c0.21,0.14,0.42,0.27,0.63,0.41C329.49,178.24,332.24,180.14,335.12,182.29z"/>
		<path class="st12" d="M266.43,207.39l-3.22,13.81c-2.57,5.13-8.48,17-11.83,23.74c-0.02,0.04-0.05,0.08-0.07,0.13
			c-0.27,0.55-0.51,1.03-0.74,1.5l-0.04-0.09l-0.35-0.92v-0.01l-2.54-6.8C252.46,231.4,262.65,215.68,266.43,207.39z"/>
		<path class="st12" d="M361.29,223.99c0.17,7.53-1.12,15.42-3.4,23.1c-1.81,6.05-3.61,10.7-5.22,14.21
			c-0.61,1.32-1.18,2.49-1.71,3.5c-0.02,0.02-0.02,0.04-0.04,0.06c-0.96,1.77-1.79,3.09-2.43,4.03c-0.55-0.2-0.89-0.35-0.89-0.35
			s-7.71,13.89-18.91,26.67c-11.2,12.77-25.76,18.79-36.83,23.36c0,0-0.5,0.46-1.35,1.27h-0.01c-0.34,0.11-0.68,0.24-1.03,0.36
			l-0.72,0.25c-7.56,2.59-18.25,5.88-26.46,6.88c0,0-0.2-0.62-0.52-1.63c-0.33-1.05-0.77-2.52-1.25-4.17
			c2.35-0.77,20.06-6.76,38.92-17.24c20.27-11.27,40.59-35.53,49.27-51.27C353.84,243.74,358.44,231.87,361.29,223.99z"/>
		<path class="st12" d="M286.82,283.47c-0.32,0.35-5.53,6.17-13.85,13.49c-8.59,7.55-14.05,11.76-14.05,11.76l-0.02-0.68l1.52-1.53
			c0,0,0-0.01,0.01-0.01l0.06-0.06c0,0,0.55-11.35,1.06-24.08C271.57,288.96,285.18,284.98,286.82,283.47z"/>
		<g>
			<path class="st4" d="M262.3,327.34c0.15,0.53-8.93,7.57-8.93,7.57s-5.66,6.79-9.79,6.97c0,0,1.24-3.41,2.9-8.51
				c1.76-5.43,4.01-12.79,5.77-20l5.59-4.26c0,0,1.57,6.65,2.89,12.02C261.41,323.9,262.02,326.34,262.3,327.34z"/>
			<path class="st6" d="M262.3,327.34c0.15,0.53-8.93,7.57-8.93,7.57s-5.66,6.79-9.79,6.97c0,0,1.24-3.41,2.9-8.51
				c5.86-3.39,11.74-9.41,14.25-12.25C261.41,323.9,262.02,326.34,262.3,327.34z"/>
		</g>
		<path class="st4" d="M201.94,169.42c-2.51,6.45-9.13,5.42-9.13,5.42s-0.6,3.18-2.31,6.71c-0.75,1.56-1.57,3.33-2.45,5.03
			c-2.03,3.91-4.7,7.38-6.36,8.83c-0.29,0.27-0.56,0.46-0.78,0.59c-0.86,0.49-2.27,1.11-4.01,1.59c-4.73,1.34-11.93,1.75-17.55-3.91
			c-0.53-0.54-1.06-1.09-1.57-1.66c-6.97-7.67-12.64-18.64-13.79-38.34c-1.24-21.16,13.05-25.76,19.58-27.35
			c5.55-1.34,13.52-0.58,21.2,5.03c0.29,0.2,0.58,0.42,0.86,0.65c0.23,0.19,0.46,0.38,0.67,0.6c0.46,0.54,2.16,3.92,1.45,8.87v0.01
			c-0.07,0.53-0.18,1.06-0.31,1.62c-1.4,5.85-1.9,7.64,0.91,14.02c0.35,0.79,0.69,1.55,1.02,2.24c2.29,4.91,3.94,7.48,3.94,7.48
			s2.21-3.83,2.43-5.4c1.35-2.63,3.05-5.32,4.51-5.7C203.22,154.97,204.46,162.97,201.94,169.42z"/>
		<path class="st6" d="M187.74,141.47c-0.77-3.55-1.79-6.95-2.99-10.11c0.29,0.2,0.58,0.42,0.86,0.65c0.23,0.19,0.46,0.38,0.67,0.6
			C186.76,133.14,188.46,136.52,187.74,141.47z"/>
		<path class="st6" d="M201.94,169.42c-2.51,6.45-9.13,5.42-9.13,5.42s-0.6,3.18-2.31,6.71c-0.75,1.56-1.57,3.33-2.45,5.03
			c-2.03,3.91-4.7,7.38-6.36,8.83c2.15-6.74,6.22-14.27,7.15-29.59c0.13-2.16,0.46-4.31,0.53-6.46c2.29,4.91,3.94,7.48,3.94,7.48
			s2.21-3.83,2.43-5.4c1.35-2.63,3.05-5.32,4.51-5.7C203.22,154.97,204.46,162.97,201.94,169.42z"/>
		<g>
			<path class="st7" d="M226.41,315.03c-0.19,0-0.35-0.16-0.37-0.37c-0.01-0.16-0.81-16.65-1.42-25.32
				c-0.3-4.34-0.84-9.81-1.52-16.73c-0.66-6.8-1.49-15.27-2.32-25.07c-1.55-18.2,4.75-27.69,7.43-31.74c0.2-0.31,0.4-0.6,0.56-0.85
				c0.11-0.18,0.35-0.22,0.51-0.11c0.17,0.12,0.22,0.36,0.11,0.54c-0.17,0.26-0.35,0.54-0.57,0.86c-2.64,3.98-8.83,13.31-7.31,31.23
				c0.83,9.79,1.66,18.26,2.32,25.06c0.68,6.92,1.21,12.39,1.52,16.75c0.61,8.68,1.42,25.17,1.42,25.33
				c0.01,0.21-0.15,0.39-0.35,0.41C226.43,315.03,226.42,315.03,226.41,315.03z"/>
		</g>
		<g>
			<path class="st7" d="M144.97,275.77c-0.03,0-0.07,0-0.11-0.02c-0.2-0.06-0.31-0.27-0.25-0.48c1.84-6.45,4.49-29.1,5.27-38.8
				c0.02-0.21,0.2-0.37,0.4-0.35c0.2,0.02,0.36,0.2,0.34,0.42c-0.78,9.73-3.44,32.46-5.3,38.96
				C145.28,275.66,145.13,275.77,144.97,275.77z"/>
		</g>
		<g>
			<path class="st13" d="M148.93,315.6c-0.19,0-0.35-0.15-0.37-0.35c-0.02-0.15-1.32-14.98-2.09-24.86
				c-0.77-9.88-0.75-20.24-0.74-20.34c0-0.21,0.17-0.39,0.37-0.39l0,0c0.2,0,0.37,0.17,0.37,0.39c0,0.1-0.02,10.42,0.74,20.28
				c0.77,9.87,2.07,24.7,2.08,24.85c0.02,0.21-0.13,0.4-0.34,0.42C148.96,315.6,148.95,315.6,148.93,315.6z"/>
		</g>
		<path class="st14" d="M180.05,205.03c-0.68,0.54-6.21,1.42-9.05,12.39l-1.01-19.01c2.54,0.14,4.93-0.26,6.91-0.82
			c0.27-0.07,0.53-0.15,0.77-0.23L180.05,205.03z"/>
		<path class="st14" d="M198.1,184.84c-0.56,2.16-1.44,5.69-2.36,9.87c-1.54,6.97-5.7,23.48-5.7,23.48
			c-2.14-8.12-6.78-13.31-7.77-13.8c0,0,4.42-12.57,6.6-18.71L198.1,184.84z"/>
		<g>
			<path class="st8" d="M144.04,278.26c0.01-3.11,0.01-6.51,0-10.08c0-0.26,0-0.53-0.01-0.78c0-2.48-0.01-5.03-0.03-7.59
				c-0.01-0.26-0.01-0.52-0.01-0.77c-0.07-7.91-0.2-15.91-0.46-22.53c-0.13-3.16-0.33-6.95-0.68-11.15
				c-0.02-0.26-0.05-0.52-0.07-0.77c-0.49-5.71-1.24-12.16-2.39-18.87c-0.03-0.19-0.07-0.37-0.11-0.57c0-0.07-0.02-0.14-0.03-0.23
				c0.06,0.01,0.13,0.01,0.2,0.02c0.15-0.19,0.3-0.37,0.46-0.56c0.05,0.2,0.08,0.4,0.11,0.6c0.05,0.27,0.1,0.52,0.14,0.78
				c1.15,6.69,1.89,13.13,2.38,18.83l0.06,0.77c0.35,4.18,0.55,7.96,0.68,11.12c0.26,6.64,0.38,14.66,0.46,22.56
				c0,0.26,0.01,0.51,0.01,0.76c0.02,2.56,0.03,5.11,0.03,7.59c0.01,0.26,0.01,0.53,0.01,0.79c0.01,2.69,0.01,5.3,0.01,7.76
				C144.56,276.65,144.3,277.43,144.04,278.26z"/>
		</g>
		<path class="st15" d="M200.75,185.07c-3.96,5.59-11.39,13.93-21.79,16.44c-11.66,2.82-21.13-3.7-25.46-7.51
			c1.37-0.74,2.78-1.4,4.27-1.99c0.51,0.57,1.04,1.13,1.57,1.66c0.53,0.54,1.07,1.01,1.63,1.44c0.24,0.19,0.5,0.38,0.74,0.55
			c2.67,1.84,5.54,2.6,8.27,2.75c2.54,0.14,4.93-0.26,6.91-0.82c0.27-0.07,0.53-0.15,0.77-0.23c1.39-0.44,2.51-0.95,3.24-1.36
			c1.47-0.82,4.07-5.29,6.46-9.91l0.73-0.15c0,0,0.26-0.1,0.77-0.26l9.07-0.83l0.15-0.01c0.19,0.01,0.38,0.02,0.58,0.04
			C199.35,184.92,200.03,184.98,200.75,185.07z"/>
		<path class="st16" d="M135.51,339.2c0,0,0-0.01,0-0.02V339.2L135.51,339.2z"/>
		<path class="st4" d="M135.76,337.98c0,0-0.01,0-0.03,0c-0.12,0.71-0.2,1.12-0.21,1.2L135.76,337.98z"/>
		<path class="st17" d="M157.53,158.41c0.04-1.46-2.15-4.3-5.45-3.79c-3.3,0.52-8.75,4.64-7.59,4.9c1.15,0.26,4.62-1.03,8.42-1.11
			C156.71,158.32,157.5,159.51,157.53,158.41z"/>
		<path class="st17" d="M168.77,156.17c-1.24-0.17,0.91-3.61,4.22-5.68c3.3-2.06,6.53-2.24,7.85-0.43c1.32,1.81,0.75,2.28-0.58,2.43
			c-1.32,0.15-3.36,0-6.65,1.7C171.25,155.41,168.77,156.17,168.77,156.17z"/>
		<path class="st17" d="M195.74,161.44L195.74,161.44c-1.4,2.73-2.43,5.4-2.43,5.4S195.52,163,195.74,161.44z"/>
		<path class="st17" d="M195.73,161.44c-1.4,2.72-2.43,5.4-2.43,5.4s-1.79-2.82-4.26-8.18c-0.23-0.5-0.46-1-0.69-1.54
			c-2.81-6.38-2.31-8.17-0.9-14.02c1.4-5.82-0.63-9.91-1.15-10.5c0.29,0.18,5.45,3.49,8.25,11.09c0.01,0.03,0.02,0.05,0.03,0.08
			C197.43,151.6,195.73,161.44,195.73,161.44z"/>
		<path class="st18" d="M344.94,140.18c-1.98,1.03-4.49,3.06-5.03,3.51C340.96,143.12,342.82,141.99,344.94,140.18z"/>
		<path class="st7" d="M307.95,132.13c1.38-1.01-0.82-4.13-4.47-4.77c-3.64-0.64-7.93,0.26-7.43,0.9c0.5,0.64,3.64,1.29,6.1,2.71
			C304.6,132.39,306.71,133.03,307.95,132.13z"/>
		<path class="st7" d="M331.62,134.19c-0.24-1.68-3.6-3.44-8.06-3.48c-5.78-0.06-6.76,2.24-5.58,4.13c0.62,0.99,2.2,0.52,6.62,0
			C329.02,134.32,331.62,134.19,331.62,134.19z"/>
		<path class="st19" d="M304.07,175.8c-0.01,0-0.03-0.01-0.04-0.02c0,0-2.27,24.89-1.84,26.38c0.43,1.49,16.63-24.83,16.63-24.83
			S310.75,178.95,304.07,175.8z"/>
		<path class="st11" d="M175.71,545.82c0,0-19.83,12.47-24.78,17.89h27.76L175.71,545.82z"/>
		<polygon class="st11" points="208.76,547.95 208.76,563.71 234.95,563.71 216.44,547.95 		"/>
		<g>
			<path class="st17" d="M159.68,132.93c-0.17,0-0.33-0.13-0.36-0.31c-0.15-0.79-1.48-7.75,0.08-9.73c0.13-0.16,0.36-0.19,0.52-0.05
				c0.16,0.14,0.18,0.38,0.05,0.54c-1.13,1.44-0.33,7.04,0.08,9.08c0.04,0.21-0.09,0.41-0.29,0.46
				C159.72,132.93,159.71,132.93,159.68,132.93z"/>
		</g>
		<g>
			<path class="st17" d="M161.5,131.79c-0.04,0-0.08-0.01-0.11-0.02c-0.2-0.06-0.3-0.28-0.24-0.48c0.48-1.57,2.13-6.75,3.35-7.29
				c0.19-0.08,0.4,0,0.49,0.2c0.08,0.2-0.01,0.42-0.2,0.51c-0.62,0.28-2,3.75-2.93,6.81C161.8,131.68,161.66,131.79,161.5,131.79z"
				/>
		</g>
		<g>
			<path class="st17" d="M157.53,131.79c-0.15,0-0.29-0.09-0.34-0.25c-0.36-0.93-0.86-2.42-1.26-3.61c-0.32-0.91-0.64-1.86-0.7-2
				c-0.09-0.19-0.03-0.42,0.16-0.52c0.18-0.1,0.4-0.03,0.5,0.15c0.08,0.16,0.27,0.71,0.75,2.11c0.4,1.19,0.9,2.67,1.26,3.58
				c0.07,0.2-0.02,0.42-0.21,0.5C157.63,131.77,157.58,131.79,157.53,131.79z"/>
		</g>
		<g>
			<path class="st7" d="M194.52,170.84c-0.19,0-0.35-0.15-0.37-0.35c-0.38-4.5,3.67-9.12,3.84-9.31c0.14-0.16,0.37-0.16,0.52-0.02
				c0.15,0.15,0.16,0.39,0.02,0.55c-0.04,0.04-4,4.55-3.65,8.72c0.02,0.21-0.13,0.4-0.34,0.42
				C194.54,170.84,194.53,170.84,194.52,170.84z"/>
		</g>
		<g>
			<path class="st7" d="M196.58,168.77c-0.06,0-0.11,0-0.17-0.02c-0.81-0.16-1.53-1.47-1.66-1.73c-0.1-0.19-0.03-0.42,0.15-0.52
				c0.18-0.1,0.41-0.03,0.51,0.15c0.26,0.5,0.81,1.27,1.15,1.34c0.04,0.01,0.07,0,0.11-0.03c0.31-0.27,0.25-2.43-0.13-4.64
				c-0.03-0.21,0.1-0.41,0.3-0.45c0.2-0.04,0.4,0.1,0.43,0.31c0.24,1.38,0.69,4.65-0.13,5.37
				C196.97,168.7,196.79,168.77,196.58,168.77z"/>
		</g>
		<g>
			<path class="st7" d="M159.22,182.96c-0.16,0-0.3-0.11-0.35-0.26c-0.45-1.39-0.46-7.76-0.06-19.47c0.02-0.65,0.04-1.05,0.04-1.14
				c0-0.21,0.16-0.39,0.37-0.39c0.21,0,0.38,0.17,0.38,0.39c0,0.09-0.02,0.51-0.04,1.17c-0.38,10.79-0.39,17.14-0.05,18.92
				c1.07-0.08,4.88-0.59,6.57-3.91c0.1-0.19,0.32-0.26,0.51-0.16c0.18,0.1,0.25,0.33,0.16,0.52
				C164.55,182.91,159.44,182.96,159.22,182.96z"/>
		</g>
		<g>
			<path class="st20" d="M161.33,187.35c-0.17,0-0.33-0.13-0.36-0.32c-0.04-0.21,0.1-0.41,0.3-0.45c0.1-0.02,10.09-1.94,12.58-4.29
				c0.15-0.14,0.39-0.13,0.53,0.03c0.14,0.16,0.13,0.4-0.03,0.55c-2.65,2.5-12.53,4.4-12.95,4.48
				C161.38,187.35,161.35,187.35,161.33,187.35z"/>
		</g>
		<g>
			<path class="st7" d="M135.76,304.7c-0.02,0-0.04,0-0.06,0c-0.21-0.04-0.36-0.25-0.33-0.47c0.54-3.64,2.65-7.88,2.74-8.06
				c0.11-0.2,0.35-0.28,0.54-0.18c0.2,0.1,0.27,0.35,0.17,0.56c-0.02,0.04-2.14,4.31-2.66,7.81
				C136.12,304.56,135.95,304.7,135.76,304.7z"/>
		</g>
		<g>
			<path class="st7" d="M155.87,323.04c-2.9,4.49-8.78,12.79-14.43,17.27c0.1-0.41,0.2-0.82,0.29-1.21
				c5.37-4.55,10.86-12.35,13.56-16.57C155.48,322.7,155.67,322.87,155.87,323.04z"/>
		</g>
		<g>
			<path class="st7" d="M224.46,338.92c-0.06,0.15-0.2,0.24-0.34,0.24c-0.02,0-0.04,0-0.05-0.01c-0.03,0.01-0.06,0-0.09-0.01
				c-6.1-2.57-8.31-11.59-9.25-17.04c0.22-0.15,0.45-0.31,0.67-0.46c0.88,5.23,2.98,14.21,8.77,16.74c0.03,0.02,0.06,0.03,0.09,0.04
				C224.44,338.5,224.53,338.73,224.46,338.92z"/>
		</g>
		<g>
			<path class="st4" d="M189.76,190.58c-0.31,1.55-1.66,5.08-3.28,8.47c-1.77,3.75-3.85,7.32-5.15,7.87
				c-1.58,0.65-2.98-3.25-3.78-6.21c-0.45-1.71-0.7-3.11-0.65-3.12c1.74-0.48,3.15-1.1,4.01-1.59c2-1.12,6.12-9.04,8.95-14.86
				C190.02,183.47,190.24,188.18,189.76,190.58z"/>
			<path class="st6" d="M189.76,190.58c-0.31,1.55-1.66,5.08-3.28,8.47c-3.16,1.23-6.33,1.61-8.93,1.65
				c-0.45-1.71-0.7-3.11-0.65-3.12c1.74-0.48,3.15-1.1,4.01-1.59c2-1.12,6.12-9.04,8.95-14.86
				C190.02,183.47,190.24,188.18,189.76,190.58z"/>
		</g>
		<g>
			<path class="st7" d="M257.2,275.9c-0.25,0-0.47-0.21-0.49-0.48c-0.59-9.11-5.15-25.11-13.59-47.56
				c-4.71-12.53-10.63-24.45-10.69-24.57c-0.13-0.25-0.03-0.56,0.21-0.7c0.24-0.13,0.54-0.03,0.67,0.22
				c0.06,0.12,6.01,12.09,10.74,24.67c8.47,22.55,13.06,38.65,13.66,47.87c0.02,0.28-0.19,0.53-0.46,0.55
				C257.22,275.9,257.21,275.9,257.2,275.9z"/>
		</g>
		<g>
			<path class="st13" d="M239.99,350.95c-0.05,0-0.11-0.01-0.18-0.05c-5.67-3.21-16.77-4.59-16.87-4.6c-0.2-0.02-0.35-0.2-0.34-0.4
				c0.01-0.21,0.17-0.37,0.37-0.37c0.09,0,11.35,1.39,17.19,4.69c0.19,0.1,0.25,0.34,0.15,0.53
				C240.25,350.88,240.12,350.95,239.99,350.95z"/>
		</g>
		<g>
			<path class="st7" d="M175.71,546.21c-0.01,0-0.01,0-0.01,0c-0.21-0.01-0.37-0.19-0.36-0.4c0.02-0.51,2.26-51.35-2.25-65.31
				c-4.5-13.96-16.39-29.93-16.51-30.09c-0.07-0.1-0.1-0.22-0.07-0.34c0.17-0.64,16.82-63.96,16.97-64.63
				c0.05-0.21,0.25-0.33,0.45-0.28c0.2,0.05,0.32,0.26,0.28,0.47c-0.14,0.62-15.74,59.95-16.92,64.46
				c1.24,1.69,12.21,16.81,16.52,30.16c4.55,14.09,2.38,63.49,2.28,65.59C176.07,546.05,175.9,546.21,175.71,546.21z"/>
		</g>
		<g>
			<path class="st7" d="M224.11,463.98c-0.06,0-0.12-0.01-0.18-0.05c-1.28-0.72-2.64-3.11-3.74-5.03c-0.5-0.87-0.97-1.7-1.19-1.9
				c-0.15-0.14-0.17-0.39-0.03-0.55c0.13-0.16,0.37-0.18,0.52-0.04c0.29,0.27,0.68,0.93,1.34,2.08c0.99,1.74,2.36,4.13,3.46,4.75
				c0.18,0.1,0.25,0.34,0.15,0.53C224.37,463.9,224.24,463.98,224.11,463.98z"/>
		</g>
		<g>
			<path class="st7" d="M144.64,463.98c-0.07,0-0.13-0.02-0.2-0.06c-0.17-0.11-0.23-0.35-0.12-0.53c0.02-0.04,2.45-4.12,2.86-5.11
				c0.08-0.2,0.3-0.29,0.48-0.21c0.19,0.08,0.28,0.31,0.2,0.51c-0.43,1.05-2.81,5.04-2.91,5.21
				C144.88,463.91,144.76,463.98,144.64,463.98z"/>
		</g>
		<g>
			<path class="st3" d="M327.14,176.67c-7.32,10.64-23.6,33.69-27.48,33.69c-0.15,0-0.27-0.03-0.38-0.1
				c-3.1-1.88-2.73-28.88-2.54-37.6c0.25-0.02,0.51-0.04,0.75-0.05c-0.37,14.92-0.07,35.63,2.16,36.99
				c0.06,0.03,0.13,0.05,0.21,0.05c2.41,0,14.76-16.09,26.65-33.39C326.72,176.4,326.92,176.53,327.14,176.67z"/>
		</g>
		<g>
			<path class="st7" d="M300.38,152.13c-0.1,0-0.2-0.04-0.27-0.11c-0.09-0.09-0.12-0.22-0.1-0.34c0.38-2.23,7.07-15.18,7.35-15.73
				c0.1-0.19,0.32-0.26,0.51-0.16c0.18,0.1,0.25,0.34,0.15,0.52c-2.2,4.24-6.25,12.33-7.12,14.93c1.71-0.33,6.25-1.18,6.79-1.18
				c0.2,0,0.37,0.17,0.37,0.39c0,0.21-0.16,0.39-0.37,0.39c-0.43,0-4.67,0.79-7.25,1.28C300.42,152.13,300.4,152.13,300.38,152.13z"
				/>
		</g>
		<path class="st21" d="M298.4,158.71c0.74-0.13,11.03-3.91,16.74-2.54c0,0-2.48,6.04-7.81,6.74
			C302,163.61,298.4,158.71,298.4,158.71z"/>
		<path class="st7" d="M343.7,143.47c-0.11-0.18-0.35-0.23-0.52-0.11c-0.95,0.67-1.83,1.42-2.62,2.2c-0.02,0.02-0.03,0.03-0.05,0.05
			c-1.3,1.28-2.36,2.63-3.19,3.83c-0.01,0.01-0.01,0.03-0.03,0.04c-1.26,1.85-1.96,3.34-2.07,3.67c-0.06,0.2,0.04,0.42,0.23,0.49
			c0.04,0.01,0.08,0.02,0.12,0.02c0.15,0,0.3-0.1,0.35-0.26c0.09-0.28,0.65-1.46,1.64-2.98c0.4,0.64,1.15,1.66,2.07,1.9
			c0.14,0.04,0.27,0.05,0.41,0.05c0.33,0,0.64-0.11,0.94-0.32c1.63-1.17,0.56-4.99,0.22-6.07c0.73-0.7,1.52-1.37,2.38-1.98
			C343.77,143.89,343.82,143.65,343.7,143.47z M340.58,151.42c-0.24,0.17-0.48,0.22-0.74,0.16c-0.74-0.19-1.46-1.25-1.79-1.84
			c0.7-1,1.56-2.09,2.57-3.15C341.04,148.06,341.55,150.72,340.58,151.42z"/>
		<g>
			<path class="st3" d="M250.18,246.71c-0.06,0-0.13-0.02-0.19-0.05c-0.18-0.11-0.24-0.34-0.14-0.53c0.04-0.07,4.19-7.41,7.97-15
				c3.78-7.59,7.84-17,7.88-17.1c0.08-0.2,0.31-0.28,0.49-0.19c0.18,0.09,0.27,0.31,0.18,0.51c-0.04,0.1-4.1,9.53-7.9,17.13
				c-3.8,7.61-7.95,14.96-7.99,15.03C250.44,246.64,250.31,246.71,250.18,246.71z"/>
		</g>
		<g>
			<path class="st3" d="M262.34,254.19c-0.2,0-0.37-0.17-0.37-0.38c-0.38-20.37,2.17-36.16,2.35-36.56
				c0.08-0.19,0.31-0.28,0.49-0.19c0.18,0.09,0.26,0.3,0.19,0.49c-0.24,0.83-2.65,16.26-2.28,36.24
				C262.71,254,262.55,254.18,262.34,254.19C262.34,254.19,262.34,254.19,262.34,254.19z"/>
		</g>
		<g>
			<path class="st3" d="M262.3,327.73c-0.16,0-0.31-0.12-0.36-0.29c-0.02-0.08-1.99-7.91-2.81-11.32c-0.82-3.44-1.66-6.92-1.66-6.92
				c-0.03-0.15,0.02-0.31,0.14-0.4c0.23-0.19,23.71-19.19,32.68-28.86c9.61-10.36,23.44-28.23,30.84-44.5
				c7.53-16.57,8.14-21.25,8.15-21.3c0.02-0.21,0.2-0.36,0.41-0.34c0.2,0.02,0.35,0.22,0.33,0.43c-0.02,0.19-0.6,4.77-8.21,21.54
				c-7.44,16.35-21.33,34.3-30.97,44.7c-8.57,9.25-30.29,26.94-32.57,28.78c0.2,0.85,0.9,3.78,1.6,6.68
				c0.72,2.99,2.32,9.39,2.72,10.96c26.8-5.37,48.87-15.15,60.61-26.85c13.2-13.16,28.87-38.35,29.03-38.6
				c0.12-0.18,0.35-0.23,0.52-0.12s0.22,0.36,0.11,0.54c-0.16,0.25-15.88,25.52-29.14,38.74c-11.89,11.86-34.25,21.74-61.33,27.12
				C262.34,327.73,262.33,327.73,262.3,327.73z"/>
		</g>
		<g>
			<path class="st3" d="M305.15,317.86c-5.01,0-8.16-0.53-8.22-0.54c-0.2-0.04-0.34-0.23-0.31-0.45c0.03-0.21,0.22-0.35,0.43-0.32
				c0.1,0.02,9.52,1.59,21.7-0.77c12.17-2.37,18.04-6.93,18.1-6.98c0.16-0.13,0.39-0.1,0.52,0.07c0.13,0.17,0.1,0.41-0.07,0.54
				c-0.24,0.19-6.08,4.73-18.41,7.12C313.63,317.56,308.87,317.86,305.15,317.86z"/>
		</g>
		<g>
			<path class="st22" d="M278.99,512.79c-0.03,0-0.07-0.01-0.1-0.02c-0.2-0.06-0.31-0.28-0.25-0.48c2.93-10.26,4.3-19.52,5.41-36.68
				c1.05-16.14-3.79-34.95-3.84-35.14c-0.02-0.07-0.01-0.15,0-0.22c7.59-25.66,16.51-76.6,16.6-77.11c0.02-0.11,0.09-0.21,0.18-0.27
				l5.46-3.16c0.17-0.1,0.4-0.04,0.5,0.15c0.1,0.18,0.03,0.42-0.14,0.53l-5.3,3.07c-0.59,3.36-9.18,51.95-16.56,76.92
				c0.4,1.57,4.86,19.66,3.84,35.28c-1.12,17.23-2.49,26.53-5.44,36.85C279.29,512.68,279.15,512.79,278.99,512.79z"/>
		</g>
		<g>
			<path class="st22" d="M264.64,451.93c-0.07,0-0.16-0.02-0.22-0.07c-0.17-0.13-0.2-0.37-0.08-0.54l3.94-5.51
				c0.12-0.17,0.35-0.21,0.52-0.08c0.16,0.13,0.2,0.37,0.07,0.54l-3.93,5.51C264.87,451.88,264.76,451.93,264.64,451.93z"/>
		</g>
		<g>
			<path class="st22" d="M340.34,487.01c-0.12,0-0.24-0.07-0.31-0.19c-16.02-26.56-20.1-53.35-20.52-56.31
				c-0.03-0.21,0.1-0.44,0.3-0.48c0.19-0.04,0.37,0.05,0.42,0.25c0,0.01,0.02,0.11,0.02,0.12c0.41,2.95,4.47,29.59,20.4,56.02
				c0.11,0.18,0.06,0.42-0.11,0.53C340.47,486.99,340.4,487.01,340.34,487.01z"/>
		</g>
		<g>
			<path class="st22" d="M340.34,453.31c-0.07,0-0.15-0.02-0.22-0.07c-0.16-0.12-0.2-0.37-0.09-0.54c0.69-1.03,4.75-6.65,4.93-6.89
				c0.12-0.17,0.36-0.21,0.52-0.08c0.16,0.13,0.2,0.37,0.08,0.54c-0.04,0.06-4.23,5.85-4.92,6.87
				C340.57,453.25,340.45,453.31,340.34,453.31z"/>
		</g>
		<g>
			<path class="st22" d="M294.69,342.26c-0.16,0-0.32-0.11-0.36-0.29l-5.65-21.84c-0.05-0.21,0.06-0.42,0.26-0.48
				c0.2-0.05,0.4,0.07,0.46,0.27l5.65,21.84c0.06,0.2-0.07,0.42-0.26,0.47C294.76,342.26,294.72,342.26,294.69,342.26z"/>
		</g>
		<g>
			<path class="st7" d="M136.77,330.81c-0.04,0.31-0.07,0.61-0.12,0.9c-6.49,2.81-17.16,3.37-21.14,3.47
				c-0.04-0.25-0.09-0.51-0.13-0.76C119.29,334.29,130.47,333.71,136.77,330.81z"/>
		</g>
		<g>
			<path class="st7" d="M243.24,342.82c-0.1,0.25-0.19,0.48-0.29,0.72c-6.52-1.51-13.02-4.7-17.17-6.75
				c-0.46-0.22-0.91-0.43-1.31-0.64c0.03-0.26,0.06-0.53,0.1-0.8c0.43,0.21,0.94,0.45,1.53,0.75
				C230.25,338.15,236.76,341.35,243.24,342.82z"/>
		</g>
		<g>
			<path class="st7" d="M174.1,198.82c-0.19,0-0.36-0.15-0.37-0.35c-0.02-0.21,0.14-0.4,0.34-0.42c0.04,0,4.45-0.44,9.46-5.85
				c6.26-6.75,8.73-16.98,8.75-17.08c0.05-0.21,0.26-0.33,0.45-0.28c0.2,0.05,0.32,0.26,0.27,0.47c-0.02,0.11-2.53,10.53-8.93,17.43
				c-5.23,5.64-9.75,6.07-9.94,6.09C174.12,198.82,174.1,198.82,174.1,198.82z"/>
		</g>
		<path class="st4" d="M215,178.83c-5.35-1.88-10.04-1.56-13.05,3.46c-3.64,6.07-4.43,12.79-2.28,13.99c2.15,1.2,4.79-9.12,4.79-8.6
			c0,0.52-3.65,12.21-1.82,13.25c1.82,1.03,7.11-12.04,6.94-11.36c-0.16,0.69-4.48,12.39-2.07,13.42
			c2.41,1.03,6.54-12.21,6.54-12.21s-3.8,9.46-1.32,9.98c2.48,0.51,5.93-10.41,5.93-10.41s4.69,5.43,7,3.71
			C227.97,192.34,223.05,181.67,215,178.83z"/>
		<path class="st7" d="M173.09,163.33c0.31,2.25-0.13,4.18-0.98,4.31c-0.85,0.13-1.79-1.6-2.1-3.85c-0.32-2.25,0.13-4.18,0.98-4.31
			C171.84,159.35,172.78,161.08,173.09,163.33z"/>
		<path class="st7" d="M156.44,167.41c0.31,2.25-0.13,4.18-0.98,4.31c-0.85,0.13-1.79-1.6-2.1-3.85c-0.31-2.26,0.13-4.18,0.99-4.31
			C155.19,163.44,156.13,165.16,156.44,167.41z"/>
		<path class="st7" d="M316.64,143.67c-1.09,2.07-2.47,3.45-3.09,3.1c-0.61-0.35-0.23-2.31,0.87-4.38c1.08-2.07,2.47-3.45,3.09-3.1
			C318.12,139.64,317.73,141.6,316.64,143.67z"/>
		<path class="st7" d="M301.12,139.28c-1.09,2.07-2.47,3.45-3.08,3.1c-0.62-0.35-0.23-2.31,0.86-4.38c1.09-2.07,2.47-3.46,3.09-3.1
			C302.6,135.26,302.21,137.22,301.12,139.28z"/>
		<path class="st23" d="M160.93,134.51c-1.9,1.21-3.73,3.04-2.41,4.39c1.32,1.35,7.64-1.88,6.78-3.49
			C164.43,133.81,162.6,133.45,160.93,134.51z"/>
		<path class="st6" d="M135.75,365.9c-0.03-0.65-0.11-1.25-0.22-1.79C135.7,364.74,135.78,365.35,135.75,365.9z"/>
		<g>
			<path class="st22" d="M271.39,565h-33.79c5.37-3.61,24.42-15.25,24.42-15.72l3.65-1.12l2.03-0.63L271.39,565z"/>
			<path class="st1" d="M271.39,565h-7.6c0.79-4.8,1.66-11.08,1.88-16.84l2.03-0.63L271.39,565z"/>
		</g>
		<g>
			<path class="st22" d="M386.4,551.61c-3.65,3.53-8.42,6.26-13.03,8.29c-8.23,3.64-15.97,5.1-15.97,5.1
				c5.94-6.96,14.29-27.37,14.1-27.67c0,0,0.54-0.44,1.3-1.11c1.9-1.62,5.18-4.55,5.18-5.28
				C377.98,529.91,386.4,551.61,386.4,551.61z"/>
			<path class="st1" d="M373.37,559.9c-8.23,3.64-15.97,5.1-15.97,5.1c5.94-6.96,14.29-27.37,14.1-27.67c0,0,0.54-0.44,1.3-1.11
				C373.81,541.55,375.04,551.44,373.37,559.9z"/>
		</g>
		<g>
			<path class="st7" d="M348.05,137.16c-1.05,1.16-2.1,2.17-3.11,3.02c-1.97,1.02-4.48,3.07-5.02,3.51
				c-0.04,0.01-0.07,0.03-0.11,0.05c-0.48,0.26-0.75,0.38-0.75,0.38s0.24-2.7,0-8.26c-0.25-5.55-1.52-11.45-1.52-11.45
				c-5.35-0.08-11-8.23-11-8.23s-5.7,6.77-14.25,6.77c-8.56,0-10.66-6.07-10.66-6.07c-1.22,1.34-2.75,1.98-4.12,1.89
				c-1.52-0.09-2.86-1.12-3.32-3.17c-0.06-0.29-0.11-0.57-0.11-0.84c-0.27-3.35,2.63-5.24,2.97-5.36c0,0-2.36-8.53,6.32-11.35
				c3.71-1.22,5.94,0.64,6.08,1.03c0.12,0.38,4.09-5.67,13.15-5.67c9.07,0,12.26,7.73,12.26,7.73s4.71,0.9,10.16,5.93
				c0.37,0.34,0.7,0.7,0.99,1.07c4.27,5.2,2.97,13.51,2.97,13.51C351.58,124.26,352.44,132.26,348.05,137.16z"/>
			<path class="st9" d="M348.05,137.16c-1.05,1.16-2.1,2.17-3.11,3.02c-1.97,1.02-4.48,3.07-5.02,3.51
				c-0.04,0.01-0.07,0.03-0.11,0.05c-0.48,0.26-0.75,0.38-0.75,0.38s0.24-2.7,0-8.26c-0.25-5.55-1.52-11.45-1.52-11.45
				c-5.35-0.08-11-8.23-11-8.23s-5.7,6.77-14.25,6.77c-8.56,0-10.66-6.07-10.66-6.07c-1.22,1.34-2.75,1.98-4.12,1.89
				c-1.52-0.09-2.86-1.12-3.32-3.17c-0.06-0.29-0.11-0.57-0.11-0.84c1.88,0.95,4.63,1.44,7.99-0.59c0,0,0.96,5.56,9.81,4.59
				c8.84-0.98,16.28-9.24,16.28-9.24s2.23,10.06,9.66,8c4.27-1.19,6.71-5.86,8.18-9.38c4.27,5.2,2.97,13.51,2.97,13.51
				C351.58,124.26,352.44,132.26,348.05,137.16z"/>
		</g>
		<g>
			<path class="st24" d="M97.05,563.02c-0.04,0-0.08,0-0.12-0.01c-0.54-0.07-0.93-0.59-0.86-1.15
				c0.88-7.47,21.68-183.05,23.99-190.46c0.03-0.11,0.09-0.22,0.16-0.32c0.13-0.17,3.13-4.14,7.75-4.14c3.96,0,8.27,8.57,8.54,32.63
				c0.21,19.39,0,160.98,0,162.41c0,0.57-0.45,1.03-1,1.03c-0.56-0.01-0.99-0.46-0.99-1.03c0-1.43,0.21-143,0-162.38
				c-0.22-19.87-3.54-30.59-6.56-30.59c-3.2,0-5.54,2.58-6.07,3.2c-2.5,9.6-23.64,188.08-23.85,189.9
				C97.97,562.64,97.54,563.02,97.05,563.02z"/>
		</g>
		<g>
			<path class="st24" d="M271.39,564.75c-0.48,0-0.9-0.36-0.98-0.87c-0.27-1.69-26.63-169.05-29.3-181.5
				c-1.75-8.11-6.41-13.72-9.53-13.72c-0.01,0-0.03,0-0.04,0c-2.28,0.04-3.23,3.32-3.59,5.29c-2.21,12.05,17.79,187.87,17.99,189.64
				c0.07,0.57-0.32,1.08-0.86,1.15c-0.55,0.07-1.04-0.34-1.11-0.91c-0.82-7.26-20.24-177.92-17.96-190.28c1.1-6,3.91-6.94,5.5-6.96
				c0.03,0,0.05,0,0.07,0c4.51,0,9.64,6.85,11.46,15.33c2.69,12.51,29.06,179.93,29.33,181.62c0.09,0.56-0.27,1.09-0.82,1.19
				C271.49,564.74,271.44,564.75,271.39,564.75z"/>
		</g>
		<g>
			<path class="st24" d="M231.48,437.25H113.12c-0.55,0-0.99-0.46-0.99-1.03c0-0.57,0.44-1.03,0.99-1.03h118.16l18.2-7.62
				c0.51-0.21,1.08,0.05,1.29,0.57c0.2,0.53-0.04,1.13-0.55,1.34l-18.37,7.69C231.74,437.23,231.61,437.25,231.48,437.25z"/>
		</g>
		<g>
			<path class="st24" d="M229.2,400.97H116.89c-0.55,0-0.99-0.46-0.99-1.03c0-0.57,0.45-1.03,0.99-1.03h112.13l14.74-6.17
				c0.51-0.21,1.08,0.05,1.29,0.57c0.2,0.53-0.04,1.13-0.55,1.35l-14.92,6.25C229.46,400.94,229.33,400.97,229.2,400.97z"/>
		</g>
		<g>
			<path class="st24" d="M235.6,479.06c-0.39,0-0.76-0.25-0.92-0.65c-0.2-0.53,0.05-1.13,0.56-1.34l20.74-8.59
				c0.51-0.21,1.08,0.05,1.29,0.57c0.2,0.53-0.05,1.13-0.55,1.34l-20.75,8.59C235.85,479.04,235.73,479.06,235.6,479.06z"/>
		</g>
		<g>
			<path class="st24" d="M106.75,482.19c-0.47,0-0.89-0.35-0.98-0.85c-0.1-0.56,0.27-1.1,0.81-1.2l28.84-5.31
				c0.54-0.1,1.05,0.27,1.15,0.84c0.1,0.56-0.26,1.09-0.8,1.19l-28.84,5.31C106.87,482.18,106.81,482.19,106.75,482.19z"/>
		</g>
		<g>
			<rect x="90.77" y="556.26" class="st24" width="12.56" height="7.45"/>
			<rect x="128.28" y="556.26" class="st24" width="12.56" height="7.45"/>
		</g>
		<g>
			<rect x="239.24" y="557.3" class="st24" width="12.56" height="7.45"/>
			<rect x="265.61" y="557.3" class="st24" width="12.56" height="7.45"/>
		</g>
		<g>
			<path class="st4" d="M135.75,365.9c0.01,0.01,0.01,0.03,0,0.04c0,0.09-0.02,0.19-0.03,0.28c-0.48,3.39-4.37,9.32-6.06,8.79
				c-0.02-0.01-0.04-0.01-0.06-0.02c-1.65-0.69,0.17-6.88,0-8.61c-0.17-1.71-2.65-2.06-5.62-0.34c-2.97,1.73-5.61,3.79-2.8,7.74
				c1.53,2.17,1.63,3.3,1.41,3.88c-0.09,0.23-0.23,0.37-0.34,0.47c-0.14,0.09-0.25,0.12-0.25,0.12s0.28,0.27,0.58,0.68
				c0.52,0.73,1.1,1.94,0.25,2.93c-1.33,1.55-11.74-4.81-11.98-7.23c-0.24-2.4,2.4-1.89,2.4-1.89s-3.8-3.44-1.82-7.22
				c1.98-3.79,8.92-5.85,8.92-5.85c-1.16-2.92-2.97-14.27-2.97-14.27c4.61-3.9,9.34-5.42,12.81-5.99c3.19-0.51,5.32-0.22,5.32-0.22
				l-3.74,18.25c0,0,0.94,1.12,1.9,2.67c0.01,0.01,0.02,0.02,0.03,0.03c0.74,1.17,1.49,2.6,1.85,3.96
				C135.7,364.74,135.78,365.35,135.75,365.9z"/>
			<g>
				<path class="st7" d="M122.58,378.94c-3.58-0.3-7.73-4.33-7.93-4.52c-0.15-0.15-0.16-0.39-0.02-0.55
					c0.15-0.15,0.37-0.16,0.52-0.02c0.05,0.05,3.87,3.77,7.1,4.29c-0.14,0.09-0.25,0.12-0.25,0.12S122.28,378.53,122.58,378.94z"/>
			</g>
			<path class="st6" d="M135.5,339.2l-3.74,18.25c0,0,0.94,1.12,1.9,2.67c-1.68-1.8-3.78-1.82-3.8-1.82
				c1.21-3.77,0.73-13.38,0.33-18.89C133.38,338.91,135.5,339.2,135.5,339.2z"/>
			<path class="st6" d="M129.66,375.02c-0.02-0.01-0.04-0.01-0.06-0.02c-1.65-0.69,0.17-6.88,0-8.61c-0.17-1.71-2.65-2.06-5.62-0.34
				c-2.97,1.73-5.61,3.79-2.8,7.74c1.53,2.17,1.63,3.3,1.41,3.88c-6.43-5.57-3.91-10.19,0.71-13.34c4.77-3.26,6.8-1.71,8.5,1.4
				C133.15,368.22,130.94,372.64,129.66,375.02z"/>
		</g>
		<path class="st4" d="M237.59,383.94c-1.39,0.24-1.9,0.08-2.06-0.17c-0.14-0.22,0.05-0.54,0.13-0.65c-0.22,0.25-2.08,2.21-3.48,2.4
			c-0.17,0.02-0.33,0.02-0.48-0.01c-0.61-0.14-0.89-0.35-0.99-0.58c-0.17-0.33,0.02-0.64,0.02-0.64s-0.58,0.56-1.17,0.92
			c-0.2,0.12-0.4,0.22-0.57,0.27c-0.5,0.14-0.86-0.08-0.74-1.19c0.33-2.75,4.63-9.98,3.15-12.22c-1.49-2.23-5.46-3.26-7.78-3.1
			c-0.28,0.02-0.49,0.15-0.65,0.35c-1.15,1.5,0.46,7.28-0.99,8.94c-0.85,0.98-2.05,0.17-3.12-1.56c-1.02-1.63-1.93-4.11-2.33-6.7
			c-0.83-5.33,4.79-12.21,4.79-12.21s1.74-11.35,1.74-11.87c1.31,0.12,2.63,0.32,3.93,0.56c0.44,0.1,0.89,0.19,1.32,0.28
			c6.38,1.4,11.68,3.81,11.68,3.81l-4.3,10.5c0,0,3.97,10.15,5.78,14.27C243.29,379.47,240.65,383.42,237.59,383.94z"/>
		<g>
			<path class="st7" d="M235.36,376.53c-0.12,0.29-2.3,5.05-4.64,8.4c-0.17-0.33,0.02-0.64,0.02-0.64s-0.58,0.56-1.17,0.92
				c2.03-2.68,4.22-7.03,5.14-9.01c0.08-0.2,0.31-0.28,0.48-0.18C235.38,376.1,235.45,376.33,235.36,376.53z"/>
		</g>
		<g>
			<path class="st7" d="M232.55,385.92c-0.15,0-0.29-0.1-0.35-0.26c-0.07-0.2,0.03-0.42,0.22-0.49c3.87-1.41,6.19-8.85,6.21-8.93
				c0.06-0.2,0.27-0.32,0.47-0.25c0.19,0.07,0.3,0.28,0.24,0.49c-0.1,0.32-2.46,7.89-6.68,9.43
				C232.64,385.91,232.59,385.92,232.55,385.92z"/>
		</g>
		<path class="st6" d="M226.98,346.48c-1.52,4.4-4.01,12.17-4.01,12.17s-3.41,2.77-4.3,9.34c-0.4,2.98-0.16,6.14,0.19,8.71
			c-1.02-1.63-1.93-4.11-2.33-6.7c-0.83-5.33,4.79-12.21,4.79-12.21s1.74-11.35,1.74-11.87
			C224.37,346.04,225.69,346.24,226.98,346.48z"/>
		<path class="st6" d="M232.86,375.97c-0.57,2.94-2.65,6.95-3.87,9.5c-0.5,0.14-0.86-0.08-0.74-1.19c0.33-2.75,4.63-9.98,3.15-12.22
			c-1.49-2.23-5.46-3.26-7.78-3.1c-0.28,0.02-0.49,0.15-0.65,0.35c0.61-2.02,3.08-1.89,6.6-1.33
			C234.18,368.72,233.71,371.55,232.86,375.97z"/>
		<g>
			<path class="st7" d="M216.54,367.99c-0.2,0-0.36-0.16-0.37-0.37c-0.13-3.18,4.2-9.18,4.8-9.98l2.48-16.76
				c0.03-0.21,0.22-0.36,0.42-0.32c0.2,0.03,0.34,0.23,0.31,0.44l-2.49,16.85c-0.01,0.06-0.04,0.13-0.07,0.18
				c-0.05,0.06-4.83,6.5-4.7,9.55c0.01,0.21-0.15,0.39-0.36,0.4C216.55,367.99,216.55,367.99,216.54,367.99z"/>
		</g>
		<g>
			<path class="st4" d="M326.24,162.9l-5.11,9.92l-2.32,4.51c0,0-0.38,0.07-1.03,0.15c-2.38,0.32-8.47,0.79-13.72-1.69
				c-0.01-0.97-0.03-2.28-0.02-3.55c0-0.74,0.01-1.48,0.02-2.12c3.7,0.83,7.44,0.38,10.91-0.76c2.11-0.69,4.13-1.63,5.99-2.7
				C322.94,165.53,324.73,164.2,326.24,162.9z"/>
			<path class="st6" d="M326.24,162.9l-5.11,9.92l-2.32,4.51c0,0-0.38,0.07-1.03,0.15c-0.78-2.63-1.88-5.62-2.8-8.12
				c2.11-0.69,4.13-1.63,5.99-2.7C322.94,165.53,324.73,164.2,326.24,162.9z"/>
		</g>
		<path class="st25" d="M195.73,161.44c-1.4,2.72-2.43,5.4-2.43,5.4s-1.79-2.82-4.26-8.18c1.96-4.13,4.11-10.45,5.53-14.87
			C197.43,151.6,195.73,161.44,195.73,161.44z"/>
	</g>
</g>
</svg>
