<?xml version="1.0" encoding="utf-8"?>
<!-- Generator: Adobe Illustrator 23.1.0, SVG Export Plug-In . SVG Version: 6.00 Build 0)  -->
<svg version="1.1" id="Layer_1" xmlns="http://www.w3.org/2000/svg" xmlns:xlink="http://www.w3.org/1999/xlink" x="0px" y="0px"
	 viewBox="0 0 595.28 841.89" style="enable-background:new 0 0 595.28 841.89;" xml:space="preserve">
<style type="text/css">
	.st0{fill:#9E772B;}
	.st1{fill:#916728;}
	.st2{fill:#48AEA7;}
	.st3{fill:#F2B6AC;}
	.st4{fill:#329C92;}
	.st5{fill:#F6958F;}
	.st6{fill:#3E2B2C;}
	.st7{fill:#65C6BE;}
	.st8{fill:#2B1C1E;}
	.st9{fill:#E12A28;}
	.st10{fill:#871A4F;}
	.st11{fill:#711243;}
	.st12{fill:#601213;}
	.st13{fill:#FEC415;}
	.st14{opacity:0.6;fill:#329C92;}
	.st15{fill:#3C64AF;}
	.st16{fill:#E2DEC4;}
	.st17{fill:#591913;}
	.st18{fill:#F26222;}
	.st19{fill:#C63030;}
	.st20{fill:#FFFFFF;}
	.st21{fill:#C3942D;}
	.st22{opacity:0.44;fill:#FBCCC5;}
	.st23{fill:#451412;}
	.st24{fill:#D3CC9F;}
</style>
<g>
	<path class="st0" d="M297.7,554.26c-0.85,9.62-22.34,110-22.34,110h-10.03c0,0-9.92-39.37-12.51-69.04
		c-2.59-29.68,8.2-47.65,8.2-47.65c-5.89-32.59-23.67-106.34-24.56-110.07c-0.03-0.1-0.04-0.15-0.04-0.15l-11.65,10.62
		c0,0-2.59,8.89-6.05,23.11c-3.44,14.21-21.14,74.39-21.14,74.39s12.95,13.38,20.72,33.86c7.77,20.48,3.88,82.34,3.88,82.34
		l-1.3,1.22l-3.87,3.59l-49.21-113.89c0,0-1.72-12.54,0-71.47c0.53-18.06,2.55-34.38,5.12-48.35c1.4-7.66,2.96-14.62,4.51-20.75
		c0.13-0.5,0.26-0.99,0.38-1.47c3.04-11.7,6.04-20.28,7.8-24.95c1.01-2.66,1.61-4.06,1.61-4.06s2.22,3.45,6.79,7.57
		c0.48,0.44,0.98,0.88,1.51,1.32c0.25,0.2,0.49,0.41,0.75,0.62c7.87,6.36,20.98,13.27,39.72,11.5c15.86-1.49,28.39-7.15,37.14-12.64
		c0.29-0.19,0.59-0.38,0.88-0.56c0.81-0.53,1.58-1.04,2.32-1.54c7.51-5.22,11.46-9.76,11.46-9.76c0.31,2.24,0.34,5.34,0.16,8.85
		c-0.35,7.23-1.51,16.19-2.49,22.78c-0.04,0.33-0.09,0.64-0.13,0.94c-0.09,0.59-0.18,1.17-0.26,1.71c-0.6,3.94-1.06,6.52-1.06,6.52
		c0.17,0.01,0.34,0.03,0.5,0.05c2.15,0.2,4.3,0.55,6.35,0.96l0.08,1.42l2.25,44.41l0.08,1.47L297.7,554.26z"/>
	<path class="st1" d="M290.94,421.27l-0.08-1.42c-2.06-0.41-4.21-0.76-6.35-0.96c-0.17-0.03-0.34-0.04-0.5-0.05
		c0,0,0.45-2.58,1.06-6.52c0.08-0.54,0.17-1.12,0.26-1.71c0.04-0.3,0.09-0.62,0.13-0.94c0.97-6.59,2.13-15.54,2.49-22.78l0,0
		c0-0.01,0-0.03,0-0.04c0.02-0.28,0.03-0.55,0.04-0.82c0.02-0.44,0.04-0.86,0.04-1.28c0-0.1,0.01-0.21,0.01-0.32
		c0.02-0.54,0.02-1.06,0.02-1.57c0-0.15,0-0.3,0-0.44c0-0.4-0.01-0.79-0.02-1.17c-0.01-0.13-0.01-0.28-0.02-0.41
		c-0.02-0.41-0.04-0.81-0.07-1.19c-0.02-0.15-0.02-0.31-0.03-0.46c-0.04-0.41-0.08-0.8-0.13-1.16c0,0-3.95,4.54-11.46,9.76
		c-0.74,0.5-1.51,1.01-2.32,1.54c-0.29,0.19-0.59,0.37-0.88,0.56c-8.76,5.49-21.28,11.15-37.14,12.64
		c-18.75,1.77-31.85-5.14-39.72-11.5c-0.26-0.2-0.5-0.41-0.75-0.62c-0.53-0.44-1.03-0.88-1.51-1.32c-4.57-4.13-6.79-7.57-6.79-7.57
		s-0.01,0.02-0.02,0.07c-0.02,0.04-0.04,0.1-0.08,0.18c0,0,0,0.01-0.01,0.02c-0.1,0.23-0.26,0.64-0.49,1.21
		c-0.03,0.07-0.05,0.14-0.09,0.21c-0.05,0.14-0.12,0.29-0.18,0.45c-0.21,0.54-0.47,1.18-0.74,1.92c0,0,0,0,0,0
		c-1.77,4.68-4.75,13.24-7.8,24.95c-0.12,0.47-0.24,0.97-0.38,1.47c-1.55,6.13-3.12,13.09-4.51,20.75
		c3.23-7.42,10.69-25.65,18.18-38.81c7.5,9.26,20.07,18.05,39.32,17.61c16.03-0.37,34.16-9.58,47.13-17.7
		c2.18,10.89,5.14,26.27,6.35,40.44C283.89,434.3,287.4,427.96,290.94,421.27z"/>
	<path class="st1" d="M221.27,447.98l15.15-10.62l-11.65,10.62c0,0-2.59,8.89-6.05,23.11c-3.44,14.21-21.14,74.39-21.14,74.39
		s12.95,13.38,20.72,33.86c7.77,20.48,3.88,82.34,3.88,82.34l-1.3,1.22c-0.64-13.84-2.23-36.23-6.16-53.04
		c-6.12-26.13-27.49-66.04-27.49-66.04s12.3-43.77,20.72-67.76C216.34,452.06,221.27,447.98,221.27,447.98z"/>
	<path class="st1" d="M268.54,664.26h-3.21c0,0-9.92-39.37-12.51-69.04c-2.59-29.68,8.2-47.65,8.2-47.65
		c-5.89-32.59-23.67-106.34-24.56-110.07c1.17,4.31,26.36,96.35,36.67,114.18c0,0-7.33,22.63-8.11,53.98
		C264.51,626.47,266.88,650.47,268.54,664.26z"/>
	<path class="st2" d="M326.39,359.36c-0.04,0.33-0.11,0.64-0.16,0.97v0.01c-2.82,16.09-7.82,33.83-13.61,48.97
		c-0.29,0.75-0.59,1.51-0.87,2.26c-0.01,0.01-0.01,0.01,0,0.02c-0.01,0.01-0.01,0.01,0,0.03c-0.01,0.01-0.01,0.01,0,0.02
		c-0.01,0.01-0.01,0.01,0,0.03c-0.45,1.17-0.92,2.3-1.38,3.41c-0.13,0.3-0.25,0.59-0.38,0.88c-1.27,3-2.56,5.83-3.87,8.53
		c0,0-3.31-1.41-8.13-2.82c-0.31-0.1-0.63-0.2-0.97-0.29c-1.89-0.54-3.97-1.07-6.15-1.52c-0.33-0.06-0.67-0.13-1.02-0.2
		c-1.9-0.36-3.87-0.64-5.83-0.82c0,0,0.89-5.1,1.85-11.86c0.04-0.31,0.08-0.64,0.13-0.97c1.11-8.12,2.25-18.3,2.05-24.86
		c0-0.01,0-0.01,0-0.01c-0.04-1.15-0.11-2.2-0.25-3.1c0,0-0.01,0.01-0.02,0.03c-0.25,0.28-2.21,2.46-5.79,5.43
		c-1.6,1.34-3.53,2.82-5.76,4.37c-3.48,2.41-7.75,4.97-12.73,7.26c-0.33,0.14-0.65,0.29-0.99,0.44c-5.08,2.27-10.88,4.26-17.35,5.61
		c-0.32,0.06-0.63,0.13-0.96,0.19c-2.63,0.51-5.36,0.92-8.2,1.18c-3.09,0.29-6.04,0.35-8.83,0.2c-0.32-0.01-0.65-0.04-0.97-0.06
		c-8.32-0.55-15.24-2.84-20.85-5.72c-0.33-0.17-0.67-0.35-0.99-0.53c-6.67-3.61-11.34-8.01-14.1-11.09
		c-2.03-2.27-3.03-3.81-3.03-3.81s-0.83-8.13-1.72-18.27c-0.04-0.31-0.07-0.63-0.09-0.95c-0.38-4.25-0.75-8.81-1.08-13.27
		c-0.54-7.33-0.97-14.33-1-19.01c0-0.01,0-0.02,0-0.02v-0.51c0,0-0.57,1.58-1.43,4.09c-0.03,0.09-0.07,0.18-0.09,0.26
		c-0.3,0.84-0.64,1.78-0.98,2.79c-2.6,7.47-6.5,18.9-8.05,24.64c-0.09,0.33-0.17,0.64-0.25,0.93c-0.08,0.3-0.14,0.58-0.2,0.83
		c0,0,0.33,4.39,0.33,18.81c0,6.7-0.64,13.39-1.33,18.63c-0.05,0.38-0.1,0.74-0.15,1.09c-0.47,3.39-0.94,6.07-1.22,7.62
		c-0.04,0.23-0.08,0.43-0.1,0.6c-0.02,0.01-0.02,0.01,0,0.02c-0.1,0.49-0.16,0.76-0.17,0.83l-0.02,0.03c0,0-0.27-0.04-0.78-0.06
		c-1.05-0.06-3.11-0.1-5.77,0.27c-1.28,0.18-2.71,0.45-4.22,0.85c-0.32,0.09-0.65,0.18-0.97,0.28c-3.68,1.09-7.84,2.97-11.92,6.2
		c0,0-1.11-4.84-2.44-12.43c-0.05-0.3-0.11-0.61-0.17-0.93c-2.01-11.56-4.46-28.99-4.53-45.49c-0.02-0.31-0.02-0.63-0.02-0.94
		c0-3.91,0.14-7.77,0.45-11.47c0.65-7.57,2.04-15.3,3.9-22.93c0.06-0.31,0.14-0.63,0.23-0.94c0.83-3.38,1.77-6.74,2.77-10.07
		c0.09-0.31,0.18-0.63,0.28-0.93c1.33-4.31,2.75-8.54,4.24-12.65c0.25-0.7,0.51-1.4,0.76-2.09c2.72-7.35,5.59-14.28,8.33-20.51
		v-0.01c0.23-0.54,0.48-1.07,0.71-1.59c0.49-1.12,0.98-2.21,1.46-3.27c0.13-0.3,0.28-0.6,0.4-0.9c1.14-2.5,2.22-4.85,3.24-7.03
		c2.59-5.55,5.81-10.82,9.76-15.52c0.17-0.21,0.35-0.43,0.53-0.64c0.07-0.09,0.15-0.16,0.22-0.25c0.2-0.23,0.39-0.45,0.6-0.68
		c4.56-5.08,10.01-9.42,16.43-12.63c1.79-0.9,3.63-1.7,5.58-2.42c0.67,0.69,1.36,1.37,2.06,2.02c0.69,0.65,1.4,1.23,2.13,1.74
		c0.32,0.24,0.65,0.46,0.97,0.66c3.48,2.23,7.24,3.16,10.8,3.34c3.32,0.17,6.44-0.31,9.03-0.99c0.35-0.09,0.69-0.19,1.01-0.28
		c1.81-0.54,3.28-1.15,4.23-1.65c1.91-1,5.31-6.43,8.44-12.04l0.95-0.19c0,0,0.34-0.13,1.01-0.31l11.85-1l0.19-0.01
		c0.25,0.01,0.5,0.02,0.76,0.05c0.87,0.05,1.76,0.12,2.7,0.23c3.6,0.38,7.75,1.13,12.42,2.44c0.31,0.09,0.62,0.18,0.95,0.28
		c1.02,0.3,2.06,0.63,3.13,0.98c13.48,4.51,21.13,11.36,26.57,19.88c0.2,0.3,0.41,0.61,0.59,0.94c2.37,3.85,4.31,8.02,6.17,12.48
		c0.25,0.58,0.48,1.14,0.73,1.73c0,0.01,0,0.01,0,0.03c0.13,0.33,0.27,0.65,0.4,0.99c0.53,1.31,1.08,2.67,1.66,4.07
		c0.13,0.3,0.25,0.6,0.38,0.9c1.9,4.62,4.05,9.67,6.23,15.05v0.04c0.26,0.65,0.52,1.31,0.79,1.97c3.26,8.15,6.56,16.92,9.19,25.78
		v0.01c0.11,0.31,0.19,0.63,0.28,0.95c0.99,3.31,1.86,6.64,2.62,9.94c0.07,0.33,0.14,0.64,0.21,0.95c0.17,0.76,0.33,1.52,0.48,2.27
		C329.43,333.54,328.69,345.83,326.39,359.36z"/>
	<path class="st3" d="M442.94,184.57c-6.05,6.27-17.26,5.43-17.26,5.43s-2.63,3.13-6.92,6.51c-1.98,1.57-4.31,3.18-6.89,4.56
		c-6.42,3.44-14.3,5.83-22.07,4.21c-0.9-0.19-1.81-0.43-2.7-0.73c-1.25-0.41-2.49-0.94-3.72-1.6c-9.71-5.22-11.65-18.6-8.84-38.87
		c1.58-11.41,4.29-17.72,6.71-21.17c1.79,0.11,3.78-0.67,5.38-2.29c0,0,2.74,7.37,13.92,7.37c11.17,0,18.61-8.23,18.61-8.23
		s5.6,7.51,11.66,9.51c0.9,0.3,1.8,0.48,2.71,0.49c0,0,1.66,7.16,1.99,13.91c0.32,6.75,0,10.03,0,10.03s0.36-0.15,0.98-0.46
		c-0.01,0.03-0.01,0.05-0.01,0.05s0.06-0.05,0.15-0.11c1.34-0.69,3.79-2.07,6.56-4.26c0.63-0.3,1.21-0.54,1.71-0.64
		C447.69,167.64,448.98,178.3,442.94,184.57z"/>
	<path class="st4" d="M296.81,369.29c-2.56-21.93-12.78-75.68-11.33-97.29c0,0-7.11,4.7-6.94,42.33
		c0.05,10.42-0.16,21.66-0.49,32.53c-11.37,7.86-36.72,24.74-52.03,24.74c-14.96,0.01-28.69-6.34-35.8-17.21
		c-0.09-5.48-0.22-10.77-0.41-15.39c-0.85-21.73-6.33-40.69-6.33-40.69c-0.7,14.9-18.66,64.22-18.66,64.22
		c2.27,14.37-0.86,39.44-1.71,48.35c2.66-0.38,4.72-0.34,5.77-0.27c0.51,0.02,0.78,0.06,0.78,0.06l0.02-0.03
		c0.01-0.06,0.06-0.34,0.17-0.83c-0.02-0.01-0.02-0.01,0-0.02c0.02-0.17,0.07-0.38,0.1-0.6c0.28-1.55,0.75-4.24,1.22-7.62
		c0.06-0.35,0.11-0.71,0.15-1.09c0.69-5.24,1.33-11.94,1.33-18.63c0-14.42-0.33-18.81-0.33-18.81c0.06-0.25,0.12-0.53,0.2-0.83
		c0.08-0.29,0.15-0.6,0.25-0.93c1.55-5.74,5.45-17.16,8.05-24.64c0.34-1.01,0.68-1.96,0.98-2.79c0.02-0.09,0.07-0.18,0.09-0.26
		c0.86-2.51,1.43-4.09,1.43-4.09v0.51c0,0,0,0.01,0,0.02c0.04,5.35,0.57,13.74,1.24,22.21c0.02,0.24,0.04,0.47,0.05,0.71
		c0.03,0.35,0.05,0.69,0.08,1.04c0.23,2.83,0.46,5.64,0.7,8.32c0.02,0.33,0.05,0.64,0.09,0.95c0.89,10.14,1.72,18.27,1.72,18.27
		s1,1.54,3.03,3.81c2.76,3.07,7.44,7.47,14.1,11.09c0.32,0.17,0.66,0.35,0.99,0.53c5.61,2.88,12.54,5.17,20.85,5.72
		c0.32,0.02,0.64,0.05,0.97,0.06c2.78,0.15,5.74,0.09,8.83-0.2c2.84-0.26,5.57-0.66,8.2-1.18c0.33-0.06,0.64-0.13,0.96-0.19
		c6.48-1.34,12.27-3.34,17.35-5.61c0.34-0.15,0.66-0.3,0.99-0.44c4.98-2.3,9.25-4.85,12.73-7.26c7.24-5,11.2-9.4,11.55-9.8
		c0.01-0.01,0.02-0.03,0.02-0.03c0.13,0.9,0.21,1.94,0.25,3.1c0,0,0,0,0,0.01c0.21,6.57-0.94,16.74-2.05,24.86
		c-0.05,0.33-0.09,0.65-0.13,0.97c-0.96,6.76-1.85,11.86-1.85,11.86c1.97,0.18,3.93,0.45,5.83,0.82
		C293.89,408.12,299.21,390,296.81,369.29z"/>
	<path class="st5" d="M442.94,184.57c-6.05,6.27-17.26,5.43-17.26,5.43s-2.63,3.13-6.92,6.51c-1.98,1.57-4.31,3.18-6.89,4.56
		c-6.42,3.44-14.3,5.83-22.07,4.21c-0.9-0.19-1.81-0.43-2.7-0.73c21.09,0.13,32.48-14.31,39.87-27.59
		c5.53-9.93,4.91-20.94,3.83-27.7c0.9,0.3,1.8,0.48,2.71,0.49c0,0,1.66,7.16,1.99,13.91c0.32,6.75,0,10.03,0,10.03
		s0.36-0.15,0.98-0.46c-0.01,0.03-0.01,0.05-0.01,0.05s0.06-0.05,0.15-0.11c1.34-0.69,3.79-2.07,6.56-4.26
		c0.63-0.3,1.21-0.54,1.71-0.64C447.69,167.64,448.98,178.3,442.94,184.57z"/>
	<g>
		<path class="st6" d="M230.41,250.55c0,5.73-0.23,12.2-0.56,19.56c-0.01,0.31-0.02,0.63-0.04,0.94c-0.17,3.59-0.35,7.39-0.55,11.4
			c-0.3,5.96-0.62,12.48-0.93,19.64c-0.25,5.55-0.47,8.63-0.66,11.01c-0.03,0.27-0.04,0.54-0.07,0.79c0,0.05-0.01,0.1-0.01,0.15
			c-0.19,2.57-0.36,4.71-0.48,9.28c0,0.3-0.01,0.62-0.02,0.94c-0.15,6.54-0.18,17.77-0.11,40.53v0.93
			c0.04,9.98,0.09,22.13,0.18,37.03c-0.32-0.01-0.65-0.04-0.97-0.06c-0.09-14.86-0.16-27-0.2-36.97v-0.94
			c-0.08-22.68-0.02-33.92,0.12-40.49c0.01-0.33,0.01-0.64,0.02-0.94c0.12-4.56,0.29-6.73,0.49-9.29c0-0.07,0-0.16,0.02-0.24
			c0.01-0.23,0.04-0.46,0.05-0.7c0.18-2.38,0.41-5.47,0.66-11.07c0.31-7.15,0.63-13.67,0.93-19.64c0.19-3.97,0.38-7.74,0.54-11.29
			c0.03-0.31,0.04-0.63,0.05-0.94c0.34-7.37,0.56-13.86,0.56-19.57v-0.94c-0.02-1.51-0.04-2.96-0.08-4.36
			c-0.01-0.26,0.19-0.48,0.47-0.49c0.25-0.01,0.5,0.2,0.51,0.45c0.04,1.41,0.06,2.85,0.06,4.35
			C230.41,249.92,230.41,250.23,230.41,250.55z"/>
	</g>
	<g>
		<g>
			<path class="st7" d="M298.53,247.94c-7.7-0.06-19.6,0.29-31.9,0.79c-0.32,0.01-0.65,0.03-0.97,0.04
				c-5.45,0.22-10.96,0.48-16.2,0.74c-0.32,0.02-0.64,0.04-0.97,0.05c-6.57,0.33-12.7,0.68-17.7,0.98
				c-0.13,0.01-0.25,0.01-0.37,0.01c-0.33,0.03-0.65,0.05-0.97,0.05c-3.01,0.16-6.18,0.22-9.43,0.22c-5.27,0-10.74-0.17-16.07-0.42
				c-0.32-0.03-0.64-0.04-0.96-0.05c-7.59-0.39-14.83-0.93-20.72-1.36c-1.84-0.14-3.61-0.28-5.21-0.39c-0.34-0.02-0.67-0.05-1-0.06
				c-0.24-0.02-0.46-0.04-0.68-0.05c0.17-0.21,0.35-0.43,0.53-0.64c0-0.09-0.02-0.17-0.04-0.27c0.08,0.01,0.17,0.01,0.26,0.02
				c0.24,0.01,0.48,0.04,0.74,0.05c1.51,0.11,3.33,0.24,5.46,0.4c5.88,0.44,13.09,0.98,20.62,1.37c0.33,0.01,0.65,0.03,0.97,0.04
				c8.61,0.43,17.61,0.63,25.5,0.21c0.32-0.01,0.64-0.03,0.95-0.05c0.12,0,0.22,0,0.33-0.01c5.03-0.3,11.21-0.64,17.85-0.98
				c0.33-0.01,0.65-0.03,0.97-0.04c5.23-0.26,10.73-0.52,16.17-0.74c0.32-0.01,0.65-0.02,0.97-0.04c11.95-0.49,23.53-0.84,31.25-0.8
				C298.14,247.3,298.35,247.61,298.53,247.94z"/>
		</g>
		<g>
			<path class="st7" d="M205.33,396.95c-0.33-0.17-0.67-0.35-0.99-0.53c-0.28-7.21-0.72-19.12-1.05-31.82
				c0-0.32-0.02-0.63-0.02-0.94c-0.29-11.71-0.48-24-0.36-33.86c0.01-1.59,0.04-3.36,0.05-5.29v-0.94c0.02-2.84,0.04-5.97,0.05-9.34
				v-0.93c0.04-11.96,0.04-26.69,0.01-40.89c0.02-0.31,0.02-0.63,0-0.94c0-7.37-0.02-14.57-0.04-21.13c0-0.31,0-0.62-0.02-0.94
				c0-5.07-0.02-9.74-0.04-13.78c0.32,0.24,0.65,0.46,0.97,0.66c0.01,3.9,0.04,8.34,0.04,13.15c0.02,0.31,0.02,0.64,0,0.95
				c0.02,6.53,0.04,13.7,0.05,21.05c0,0.31,0.02,0.63,0,0.94c0.03,14.18,0.04,28.94-0.01,40.9c0.01,0.31,0.01,0.61,0,0.93
				c0,3.37-0.03,6.52-0.04,9.35v0.94c-0.01,1.93-0.04,3.7-0.05,5.29c-0.12,9.87,0.07,22.2,0.36,33.92c0.02,0.31,0.02,0.63,0.02,0.94
				C204.6,377.67,205.05,389.83,205.33,396.95z"/>
		</g>
		<g>
			<path class="st7" d="M252.17,223.2c-0.54,5.23-1.51,14.53-2.63,25.38c-0.02,0.31-0.06,0.61-0.09,0.93
				c-0.63,6.21-1.3,12.9-1.97,19.61c-0.03,0.31-0.06,0.63-0.09,0.94c-0.96,9.76-1.89,19.51-2.63,27.83
				c-0.39,4.4-0.69,9.5-0.91,15.06c-0.01,0.31-0.02,0.62-0.04,0.94c-0.11,2.9-0.19,5.92-0.28,9.02c0,0.31-0.01,0.62-0.01,0.93
				c-0.28,13.1-0.25,27.56,0.01,40.69c0.02,0.31,0.03,0.63,0.03,0.94c0.31,15.17,0.89,28.48,1.57,35.71
				c-0.32,0.06-0.63,0.13-0.96,0.19c-0.67-7.25-1.27-20.61-1.58-35.86c0-0.31-0.01-0.63-0.01-0.95
				c-0.26-13.14-0.31-27.59-0.03-40.69c0-0.31,0.01-0.62,0.03-0.93c0.06-3.1,0.15-6.12,0.27-9.03c0-0.31,0.02-0.63,0.02-0.94
				c0.22-5.59,0.53-10.73,0.92-15.16c0.74-8.29,1.66-18,2.62-27.7c0.02-0.31,0.06-0.61,0.09-0.93c0.66-6.71,1.34-13.39,1.97-19.61
				c0.03-0.31,0.07-0.63,0.09-0.94c1.11-10.87,2.08-20.19,2.64-25.45l0.19-0.01C251.66,223.16,251.91,223.17,252.17,223.2z"/>
		</g>
		<g>
			<path class="st7" d="M268.24,226.15c-0.39,5.65-0.94,13.26-1.56,21.65c-0.01,0.31-0.04,0.62-0.06,0.93
				c-0.19,2.63-0.39,5.34-0.6,8.07c-0.22,3.05-0.53,7.09-0.84,11.83c-0.02,0.31-0.05,0.62-0.06,0.93
				c-0.8,11.57-1.72,27.16-2.12,43.13c-0.02,0.31-0.03,0.63-0.03,0.94c-0.08,2.92-0.13,5.84-0.15,8.77
				c-0.02,0.32-0.02,0.63-0.02,0.94c-0.07,7.71,0,15.32,0.32,22.43c0.27,6.22,0.44,12.31,0.54,18.03c0.01,0.31,0.01,0.63,0.01,0.93
				c0.21,13.02,0.04,24.05-0.19,30.39c-0.33,0.14-0.65,0.29-0.99,0.44c0.24-6.03,0.45-17.12,0.22-30.8c0-0.3-0.01-0.61-0.01-0.93
				c-0.09-5.63-0.27-11.7-0.54-18.02c-0.31-7.12-0.4-14.74-0.32-22.45v-0.94c0.04-2.92,0.09-5.86,0.15-8.78
				c0.01-0.31,0.02-0.63,0.02-0.94c0.42-15.97,1.34-31.55,2.13-43.13c0.02-0.32,0.05-0.63,0.06-0.93c0.34-4.79,0.63-8.84,0.87-11.91
				c0.19-2.69,0.4-5.37,0.58-7.96c0.02-0.32,0.05-0.63,0.06-0.93c0.64-8.54,1.18-16.26,1.58-21.97
				C267.61,225.96,267.92,226.05,268.24,226.15z"/>
		</g>
		<g>
			<path class="st7" d="M169.85,409.79c-0.02,0.01-0.02,0.01,0,0.02c-0.1,0.49-0.16,0.76-0.17,0.83l-0.02,0.03
				c0,0-0.27-0.04-0.78-0.06c-0.48-12.89-1.2-31.51-1.91-48.88c0-0.33-0.01-0.64-0.04-0.95c-0.58-14.53-1.15-28.09-1.55-36.58
				c-0.01-0.14-0.02-0.26-0.02-0.39c-0.02-0.19-0.02-0.36-0.03-0.55c-0.17-3.15-0.39-6.31-0.65-9.43l-0.08-0.94
				c-1.28-14.53-3.46-28.17-4.8-36.07v-0.01c0.23-0.54,0.48-1.07,0.71-1.59c1.31,7.64,3.7,22.16,5.05,37.7
				c0.03,0.31,0.06,0.64,0.09,0.95c0.25,3.11,0.48,6.27,0.63,9.4c0.02,0.16,0.02,0.33,0.02,0.49c0.02,0.15,0.02,0.3,0.03,0.45
				c0.4,8.51,0.98,22.11,1.57,36.64c0.02,0.33,0.03,0.64,0.04,0.95C168.64,378.81,169.34,396.97,169.85,409.79z"/>
		</g>
		<g>
			<path class="st7" d="M158.89,411.74c-0.32,0.09-0.65,0.18-0.97,0.28c0.38-9.49,0.55-24.93-0.65-41.73
				c-0.21-2.88-0.45-6.05-0.74-9.45c-0.02-0.31-0.05-0.62-0.08-0.95c-0.9-10.87-2.11-23.78-3.27-35.81
				c-0.04-0.31-0.07-0.63-0.09-0.93c-0.34-3.37-0.66-6.66-0.97-9.8c-0.03-0.33-0.07-0.64-0.09-0.95c-0.48-4.73-0.92-9.11-1.31-12.95
				c0.25-0.7,0.51-1.4,0.76-2.09c0.45,4.31,0.96,9.47,1.52,15.09c0.04,0.31,0.06,0.63,0.11,0.95c0.3,3.14,0.62,6.42,0.94,9.77
				c0.04,0.32,0.06,0.63,0.09,0.94c1.18,12.08,2.39,25,3.29,35.89c0.03,0.33,0.05,0.64,0.09,0.95c0.27,3.34,0.5,6.46,0.71,9.29
				C159.44,386.85,159.27,402.17,158.89,411.74z"/>
		</g>
		<g>
			<path class="st7" d="M324.38,311.94c-3.08-0.14-7.07-0.25-11.65-0.21c-0.33,0-0.65,0-0.97,0.01c-3.39,0.03-7.1,0.17-11.01,0.44
				c-0.32,0.03-0.65,0.04-0.97,0.07c-0.68,0.04-1.35,0.09-2.03,0.15c-7.21,0.61-20.2,0.98-34.78,1.23c-0.32,0-0.66,0.01-0.98,0.01
				c-5.91,0.1-12.05,0.18-18.17,0.24c-0.32,0-0.65,0.01-0.96,0.01c-5.19,0.05-10.33,0.1-15.28,0.14c-0.32,0-0.63,0-0.96,0.01
				c-2.38,0.01-4.72,0.03-6.99,0.05c-5.8,0.04-11.12,0.09-15.65,0.13c-0.32,0.01-0.65,0.01-0.97,0.01
				c-1.65,0.02-3.17,0.04-4.57,0.05c-2.01,0.04-4.12,0.05-6.29,0.05c-3.34,0-6.86-0.02-10.41-0.09c-0.32,0-0.64-0.01-0.97-0.01
				c-5.08-0.09-10.24-0.21-15.09-0.36c-0.32-0.01-0.65-0.03-0.97-0.04c-4.2-0.14-8.13-0.29-11.59-0.46
				c-0.34-0.01-0.66-0.03-0.98-0.04c-2.23-0.11-4.22-0.21-5.92-0.33c0.09-0.31,0.18-0.63,0.28-0.93c1.6,0.1,3.46,0.2,5.55,0.3
				c0.33,0.01,0.65,0.03,0.97,0.04c3.43,0.17,7.38,0.33,11.61,0.47c0.33,0.01,0.64,0.03,0.96,0.03c4.82,0.16,9.99,0.3,15.17,0.39
				c0.32,0,0.64,0,0.97,0.01c5.72,0.09,11.45,0.11,16.7,0.04c1.4-0.03,2.93-0.04,4.59-0.05c0.32-0.01,0.65-0.01,0.97-0.01
				c4.53-0.05,9.85-0.1,15.64-0.14c2.29-0.01,4.66-0.04,7.07-0.05c0.32,0,0.64-0.01,0.97-0.01c4.91-0.04,10.05-0.09,15.22-0.14
				c0.33,0,0.65,0,0.97-0.01c6.12-0.06,12.25-0.14,18.15-0.24c0.33-0.01,0.66-0.01,0.99-0.01c14.53-0.25,27.48-0.62,34.67-1.22
				c0.7-0.06,1.4-0.11,2.09-0.16c0.32-0.02,0.65-0.05,0.97-0.06c3.94-0.28,7.67-0.41,11.1-0.45c0.32-0.01,0.65-0.01,0.97-0.01
				c4.42-0.04,8.27,0.06,11.3,0.19v0.01C324.2,311.3,324.29,311.61,324.38,311.94z"/>
		</g>
		<g>
			<path class="st7" d="M327.22,322.83c-3.65-0.2-8.67-0.37-15.19-0.4h-1.23c-2.85,0-6.14,0.03-9.79,0.07
				c-0.32,0.01-0.65,0.01-0.97,0.01c-10.08,0.15-22.89,0.45-37.24,0.82c-0.32,0.01-0.64,0.03-0.97,0.03c-3.77,0.1-7.64,0.2-11.6,0.3
				c-2.2,0.05-4.43,0.11-6.69,0.16c-0.32,0.01-0.65,0.03-0.97,0.03c-5.04,0.12-10.22,0.26-15.49,0.4c-0.21,0-0.41,0.01-0.62,0.01
				c-0.12,0-0.24,0-0.35,0.01c-6.95,0.15-14.52,0.23-22.17,0.24h-1.74c-6.88,0-13.8-0.05-20.41-0.1c-0.32-0.02-0.65-0.02-0.97-0.02
				c-5.08-0.06-9.95-0.13-14.47-0.19c-0.32,0-0.65,0-0.96-0.01c-0.49,0-0.98,0-1.47-0.01c-3.43-0.04-6.74-0.07-9.79-0.11
				c-0.32,0-0.64,0-0.95-0.01c-3.91-0.04-7.35-0.06-9.99-0.05c0.06-0.31,0.14-0.63,0.23-0.94c2.38-0.01,5.56,0.01,9.66,0.06
				c0.31-0.01,0.62,0,0.95,0c2.85,0.03,6.14,0.06,9.9,0.11c0.46,0,0.92,0.01,1.4,0.01c0.31,0.01,0.64,0.01,0.96,0.01
				c4.53,0.06,9.42,0.13,14.5,0.18c0.33,0.01,0.65,0.01,0.97,0.01c6.87,0.06,14.06,0.12,21.19,0.12h0.98
				c7.68-0.01,15.26-0.09,22.19-0.24c0.11-0.01,0.2-0.01,0.3-0.01c0.22,0,0.45-0.01,0.67-0.01c5.27-0.14,10.45-0.26,15.49-0.39
				c0.32-0.01,0.63-0.02,0.95-0.02c2.25-0.06,4.47-0.13,6.66-0.18c3.96-0.1,7.85-0.2,11.63-0.3c0.34,0,0.66-0.01,0.98-0.03
				c14.35-0.35,27.14-0.65,37.23-0.8c0.32,0,0.65-0.01,0.97-0.01c3.65-0.05,6.93-0.08,9.79-0.08h1.28
				c6.34,0.03,11.27,0.19,14.92,0.38C327.07,322.21,327.14,322.52,327.22,322.83z"/>
		</g>
		<g>
			<path class="st7" d="M305.43,262.15c0,0.01,0,0.01,0,0.03c-0.28,1.83-0.56,3.64-0.83,5.4c-0.05,0.33-0.11,0.65-0.16,0.98
				c-0.04,0.26-0.07,0.51-0.12,0.78c-2.03,12.85-3.95,25.05-3.6,41.92c0.02,0.3,0.02,0.61,0.03,0.93c0.02,1.14,0.06,2.31,0.11,3.5
				c0.08,1.95,0.13,3.92,0.14,5.9c0.02,0.3,0.02,0.62,0,0.93c0.06,12.5-1.06,25.49-2.07,37.16c-0.06,0.74-0.13,1.47-0.19,2.19
				c-0.02,0.33-0.05,0.64-0.08,0.95c-0.86,9.92-1.57,19.21-1.39,26.86c0.28,10.92,0.53,23.37,0.7,31.99
				c-0.31-0.1-0.63-0.2-0.97-0.29c-0.18-8.6-0.42-20.89-0.7-31.67c-0.18-7.66,0.53-16.93,1.38-26.81c0.02-0.31,0.04-0.64,0.07-0.95
				c0.08-0.78,0.14-1.55,0.21-2.34c1.02-11.66,2.13-24.61,2.08-37.07c0.02-0.31,0.02-0.61,0-0.93c-0.01-1.97-0.06-3.93-0.15-5.87
				c-0.05-1.18-0.09-2.34-0.11-3.47c-0.02-0.31-0.02-0.63-0.03-0.94c-0.35-16.97,1.57-29.22,3.61-42.12
				c0.03-0.17,0.04-0.35,0.07-0.53c0.05-0.31,0.11-0.64,0.16-0.96c0.36-2.37,0.74-4.79,1.09-7.29
				C304.95,260.99,305.18,261.56,305.43,262.15z"/>
		</g>
		<g>
			<path class="st7" d="M314.91,285.19c-0.55,6.07-1.39,15.52-2.11,25.59c-0.03,0.31-0.04,0.62-0.06,0.94
				c-0.23,3.23-0.45,6.53-0.65,9.78c-0.01,0.32-0.04,0.62-0.06,0.93c-0.44,7.47-0.74,14.71-0.75,20.59
				c-0.02,4.98,0.04,11.17,0.15,17.88c0,0.31,0.01,0.63,0.01,0.94c0.25,16.45,0.76,35.74,1.19,47.46c-0.29,0.75-0.59,1.51-0.87,2.26
				c-0.47-11.54-1-32.39-1.27-49.64c-0.02-0.32-0.02-0.63-0.02-0.94c-0.1-6.9-0.17-13.15-0.15-17.95
				c0.02-5.88,0.32-13.12,0.74-20.59c0.03-0.32,0.04-0.62,0.06-0.93c0.19-3.25,0.41-6.53,0.65-9.76c0.01-0.32,0.04-0.63,0.07-0.94
				c0.8-11.22,1.74-21.68,2.29-27.57C314.37,283.88,314.63,284.53,314.91,285.19z"/>
		</g>
		<g>
			<path class="st7" d="M307.88,268.14c-1.1,0.14-2.25,0.28-3.44,0.42c-0.32,0.04-0.66,0.07-1,0.11c-6.95,0.76-15.25,1.39-22.27,1.1
				c-4.93-0.2-10.25-0.28-16.06-0.21c-0.32,0-0.66,0-0.98,0.01c-5.19,0.05-10.73,0.21-16.75,0.49c-0.32,0.01-0.65,0.03-0.97,0.04
				c-5.19,0.24-10.72,0.55-16.61,0.95c-0.32,0.01-0.65,0.04-0.98,0.06c-2.46,0.16-4.98,0.35-7.59,0.54
				c-5.26,0.39-11.17,0.63-17.25,0.74c-0.32,0.01-0.64,0.03-0.97,0.03c-3.49,0.06-7.04,0.09-10.54,0.09c-4.19,0-8.33-0.04-12.24-0.1
				c-0.32,0-0.65-0.01-0.97-0.01c-6.8-0.11-12.84-0.29-17.29-0.45c0.13-0.3,0.28-0.6,0.4-0.9c4.38,0.14,10.24,0.3,16.8,0.41
				c0.32,0,0.66,0.01,0.98,0.01c7.19,0.11,15.14,0.15,22.85,0.01c0.33,0,0.65-0.01,0.97-0.03c6.05-0.11,11.94-0.34,17.17-0.73
				c2.64-0.2,5.22-0.38,7.72-0.55c0.33-0.03,0.65-0.04,0.97-0.06c5.92-0.4,11.46-0.71,16.66-0.94c0.32-0.03,0.65-0.04,0.97-0.05
				c6-0.26,11.55-0.43,16.72-0.47c0.34-0.01,0.66-0.01,0.98-0.01c5.79-0.06,11.1,0.01,16.03,0.21c7.06,0.29,15.43-0.36,22.39-1.14
				c0.34-0.04,0.66-0.08,1-0.13c1-0.11,1.98-0.23,2.89-0.34C307.62,267.54,307.75,267.84,307.88,268.14z"/>
		</g>
		<g>
			<path class="st7" d="M167.92,360.85c1.6,0.15,3.21,0.28,4.85,0.43c-0.09,0.33-0.17,0.64-0.25,0.93c-1.54-0.14-3.06-0.26-4.56-0.4
				l-0.97-0.08c-2.72-0.24-5.36-0.46-7.89-0.68c-0.53-0.05-1.05-0.09-1.57-0.14c-0.33-0.03-0.66-0.05-0.99-0.09
				c-7-0.59-13.33-1.14-17.67-1.47c-0.02-0.31-0.02-0.63-0.02-0.94c3.74,0.28,9.41,0.75,17.61,1.46c0.31,0.04,0.65,0.06,0.97,0.09
				c0.57,0.05,1.15,0.1,1.75,0.15c2.49,0.21,5.1,0.44,7.76,0.66C167.27,360.8,167.6,360.83,167.92,360.85z"/>
			<path class="st7" d="M326.39,359.36c-0.04,0.33-0.11,0.64-0.16,0.97v0.01c-4.02,0.52-9.07,1.02-14.79,1.51
				c-0.31,0.03-0.63,0.05-0.95,0.08c-3.7,0.3-7.67,0.6-11.81,0.89c-0.32,0.03-0.66,0.04-0.98,0.08
				c-10.87,0.73-22.81,1.37-34.02,1.84c-0.32,0.02-0.64,0.04-0.96,0.04c-6.79,0.3-13.3,0.53-19.14,0.69
				c-0.32,0.01-0.65,0.03-0.97,0.04c-5.68,0.14-10.67,0.23-14.6,0.23c-0.35,0-0.68,0-1.02-0.01c-0.33,0.01-0.66,0-0.98,0
				c-0.31,0-0.62-0.01-0.92-0.01c-5.16-0.07-12.5-0.46-20.8-1.03c-0.32-0.01-0.64-0.04-0.98-0.06c-5.65-0.39-11.71-0.85-17.8-1.34
				c-0.04-0.31-0.07-0.63-0.09-0.95c6.12,0.5,12.21,0.97,17.87,1.35c0.32,0.03,0.66,0.05,0.98,0.06c8.33,0.58,15.68,0.97,20.85,1.04
				c0.28,0,0.58,0.01,0.89,0c0.32,0.01,0.65,0.01,0.98,0.01c4.07,0.01,9.44-0.06,15.62-0.24c0.31,0,0.63-0.02,0.95-0.03
				c5.85-0.16,12.35-0.39,19.15-0.68c0.33-0.01,0.64-0.03,0.96-0.04c11.25-0.49,23.23-1.13,34.1-1.87c0.33-0.03,0.66-0.05,0.99-0.07
				c4.1-0.28,8.03-0.56,11.71-0.88c0.33-0.03,0.65-0.05,0.96-0.07C317.25,360.41,322.38,359.89,326.39,359.36z"/>
		</g>
	</g>
	<path class="st6" d="M486.32,644.85c-0.21,3.89-2.63,7.1-4.28,8.87c-0.88,0.94-1.55,1.48-1.55,1.48s-36.9-53.61-47.26-72.1
		c-10.36-18.5-15.86-28.84-21.36-55.17c-4.41-21.02-17.05-67.02-21.96-84.75c0-0.03-0.01-0.04-0.01-0.06
		c-1.25-4.44-1.98-7.1-1.98-7.11c-0.01,0-0.09,0.04-0.21,0.1c-1.19,0.59-6.91,3.74-6.91,3.74s-1.94,10.66-5.19,27.12
		c-3.23,16.46-16.5,66.6-16.5,66.6s6.14,21.94,4.85,51.41c-1.3,29.47-21.05,76.8-22.34,80.56c-0.39,1.13-1.12,1.87-1.98,2.33
		c-1.97,1.1-4.5,0.8-4.5,0.8s-5.17-52.98-6-74.61c-0.83-21.63-7.27-80.25-5.97-107.84c0.47-10.07,1.4-24.07,2.37-37.82
		c1.71-23.94,3.61-47.05,3.61-47.05l5.44-7.08c0.42,1.23,0.68,1.98,0.68,1.98c7.37-0.84,16.26-2.99,24.3-5.27
		c12.25-3.47,22.53-7.27,22.53-7.27c34.96,1.88,50.82-9.62,50.82-9.62s6.8,40.65,10.36,66.67c3.56,26.02,7.12,88.4,7.12,88.4
		s15.86,10.97,24.6,35.42C483.73,589.05,486.32,644.85,486.32,644.85z"/>
	<path class="st8" d="M387.7,436.1c-1.19,0.59-6.91,3.74-6.91,3.74s-1.94,10.66-5.19,27.12c-3.23,16.46-16.5,66.6-16.5,66.6
		s6.14,21.94,4.85,51.41c-1.3,29.47-21.05,76.8-22.34,80.56c-0.39,1.13-1.12,1.87-1.98,2.33c3.65-12.63,11.65-43.79,13.31-79.35
		c2.17-46.4,0-56.43,0-56.43s13.78-58.61,20.91-79.46l6.69-13.21c0,0,6.65-4.65,7.13-3.84C387.69,435.61,387.7,435.79,387.7,436.1z"
		/>
	<path class="st9" d="M387.71,437.55c0,0.02,0,0.02,0,0.03c-0.01-0.04-0.01-0.05-0.01-0.05S387.7,437.54,387.71,437.55z"/>
	<path class="st9" d="M387.71,437.55c0,0.02,0,0.02,0,0.03c-0.01-0.04-0.01-0.05-0.01-0.05S387.7,437.54,387.71,437.55z"/>
	<path class="st8" d="M482.03,653.72c-0.88,0.94-1.55,1.48-1.55,1.48s-36.9-53.61-47.26-72.1c-10.36-18.5-15.86-28.84-21.36-55.17
		c-4.41-21.02-17.05-67.02-21.96-84.75c6.27,16.01,24.17,61.61,31.24,77.82c8.62,19.82,19.43,50.82,38.3,86.34
		C470.62,628.36,478.2,644.6,482.03,653.72z"/>
	<path class="st8" d="M359.55,391c-6.03,6.54-11.33,13.1-15.62,18.92c-4.19,5.68-12.08,23.48-18.4,38.49
		c1.71-23.94,3.61-47.05,3.61-47.05l5.44-7.08c0.42,1.23,0.68,1.98,0.68,1.98C342.62,395.42,351.51,393.28,359.55,391z"/>
	<path class="st10" d="M464.53,270.7v0.01c0.22,9.15-1.46,18.73-4.44,28.06c-2.36,7.35-4.71,13-6.81,17.27
		c-0.79,1.61-1.54,3.02-2.23,4.25c-0.02,0.02-0.03,0.05-0.05,0.08c-1.25,2.15-2.34,3.76-3.17,4.9c-1.11,1.51-1.82,2.19-1.94,2.32
		c-0.02,0.01-0.02,0.02-0.04,0.05c-0.33,1.25-11.01,40.22-12.79,46.04c-0.06,0.18-0.11,0.31-0.15,0.43c0,0-15.86,11.5-50.82,9.62
		c0,0-0.42,0.15-1.18,0.43c-1.08,0.39-2.89,1.02-5.19,1.81c-0.04,0.02-0.08,0.04-0.11,0.04c-1.07,0.36-2.23,0.75-3.5,1.17h-0.01
		c-0.45,0.14-0.88,0.29-1.34,0.44l-0.94,0.3c-9.87,3.15-23.84,7.15-34.56,8.36c0,0-0.26-0.75-0.68-1.98
		c-0.43-1.28-1.01-3.06-1.63-5.07c-0.22-0.69-0.43-1.39-0.65-2.1c-0.05-0.2-0.1-0.4-0.17-0.6c-0.91-3.03-1.78-6.24-2.27-8.79
		c-0.3-1.49-0.47-2.75-0.43-3.61l1.38-1.29l1.99-1.85c0,0,0-0.01,0.01-0.01l0.08-0.07c0,0,0.72-13.78,1.38-29.25
		c0.53-12.41,1.01-25.91,1.04-34.23c0-1.69-0.02-3.17-0.05-4.39c-0.42-13.99,2.55-36.8,2.8-38.59c0-0.01,0-0.01,0-0.01
		c0.01-0.06,0.01-0.1,0.01-0.1s-0.27,0.51-0.76,1.43c-0.24,0.44-0.53,0.98-0.85,1.6c-3.36,6.23-11.07,20.65-15.45,28.84
		c-0.03,0.05-0.06,0.1-0.09,0.16c-0.35,0.66-0.67,1.25-0.97,1.82l-0.05-0.11l-0.45-1.12v-0.01l-3.32-8.26l-13.11-32.5
		c0,0,19.53-35.6,36.37-40.99c9.44-3.03,20.33-4.95,32.29-6.11c2.8-0.28,5.65-0.5,8.58-0.69c0.32-0.03,0.66-0.05,0.98-0.06
		c2.81-0.19,5.65-0.33,8.56-0.44c-0.01,1.54,0.02,3.13,0.03,4.31c-0.01,0-0.02-0.01-0.03-0.01c0,0-0.34,3.36-0.75,7.9
		c-0.85,9.09-2.03,22.93-1.66,24.14c0.36,1.2,9.76-12.41,16.07-21.74c3.23-4.77,5.63-8.41,5.63-8.41l3.03-5.48
		c1.54,0.88,4,2.31,7.02,4.17c0.28,0.16,0.54,0.33,0.83,0.5c3.08,1.91,6.66,4.21,10.43,6.82c7.04,4.87,14.73,10.77,20.91,16.96
		C460.35,246.12,464.25,257.98,464.53,270.7z"/>
	<path class="st11" d="M389.79,212.17c-0.01,0-0.02-0.01-0.03-0.01c0,0-0.34,3.36-0.75,7.9c-9.73-2.96-14.88-7.87-17.37-11.01
		c2.8-0.28,5.65-0.5,8.58-0.69c0.32-0.03,0.66-0.05,0.98-0.06c2.81-0.19,5.65-0.33,8.56-0.44
		C389.75,209.39,389.78,210.99,389.79,212.17z"/>
	<path class="st11" d="M430.36,220.05c-10.7,2.18-19.57,2.79-26.93,2.39c3.23-4.77,5.63-8.41,5.63-8.41l3.03-5.48
		c1.54,0.88,4,2.31,7.02,4.17c0.28,0.16,0.54,0.33,0.83,0.5C423,215.14,426.59,217.44,430.36,220.05z"/>
	<path class="st11" d="M340.65,250.55l-4.2,16.78c-3.36,6.23-11.07,20.65-15.45,28.84c-0.03,0.05-0.06,0.1-0.09,0.16
		c-0.35,0.66-0.67,1.25-0.97,1.82l-0.05-0.11l-0.45-1.12v-0.01l-3.32-8.26C322.41,279.71,335.71,260.62,340.65,250.55z"/>
	<path class="st11" d="M464.53,270.71c0.22,9.15-1.46,18.73-4.44,28.06c-2.36,7.35-4.71,13-6.81,17.27
		c-0.79,1.61-1.54,3.02-2.23,4.25c-0.02,0.02-0.03,0.05-0.05,0.08c-1.25,2.15-2.34,3.76-3.17,4.9c-0.71-0.25-1.16-0.43-1.16-0.43
		s-10.08,16.88-24.7,32.4c-14.63,15.51-33.64,22.82-48.1,28.38c0,0-0.65,0.56-1.76,1.54h-0.01c-0.45,0.14-0.88,0.29-1.34,0.44
		l-0.94,0.3c-9.87,3.15-23.84,7.15-34.56,8.36c0,0-0.26-0.75-0.68-1.98c-0.43-1.28-1.01-3.06-1.63-5.07
		c3.07-0.94,26.19-8.21,50.83-20.95c26.47-13.69,53.01-43.16,64.34-62.28C454.8,294.71,460.81,280.29,464.53,270.71z"/>
	<path class="st11" d="M367.27,342.97c-0.42,0.43-7.22,7.5-18.09,16.39c-11.21,9.17-18.35,14.28-18.35,14.28l-0.02-0.83l1.99-1.85
		c0,0,0-0.01,0.01-0.01l0.08-0.07c0,0,0.72-13.78,1.38-29.25C347.35,349.64,365.13,344.8,367.27,342.97z"/>
	<g>
		<path class="st3" d="M335.25,396.26c0.19,0.64-11.66,9.19-11.66,9.19s-7.39,8.25-12.79,8.46c0,0,1.62-4.14,3.78-10.33
			c2.3-6.59,5.24-15.53,7.53-24.3l7.31-5.18c0,0,2.06,8.08,3.77,14.6C334.09,392.09,334.89,395.05,335.25,396.26z"/>
		<path class="st5" d="M335.25,396.26c0.19,0.64-11.66,9.19-11.66,9.19s-7.39,8.25-12.79,8.46c0,0,1.62-4.14,3.78-10.33
			c7.66-4.12,15.34-11.43,18.61-14.88C334.09,392.09,334.89,395.05,335.25,396.26z"/>
	</g>
	<path class="st3" d="M256.43,204.42c-3.28,7.84-11.92,6.58-11.92,6.58s-0.78,3.86-3.02,8.15c-0.98,1.89-2.06,4.05-3.2,6.11
		c-2.66,4.75-6.14,8.96-8.3,10.73c-0.38,0.33-0.73,0.56-1.02,0.72c-1.13,0.59-2.97,1.34-5.24,1.93c-6.18,1.63-15.58,2.12-22.92-4.75
		c-0.7-0.65-1.38-1.33-2.06-2.02c-9.1-9.32-16.51-22.65-18.01-46.57c-1.62-25.7,17.04-31.3,25.57-33.23
		c7.25-1.63,17.66-0.7,27.68,6.11c0.38,0.25,0.75,0.51,1.13,0.79c0.3,0.23,0.59,0.46,0.88,0.73c0.61,0.65,2.83,4.76,1.89,10.77v0.01
		c-0.09,0.64-0.23,1.29-0.4,1.97c-1.83,7.11-2.48,9.28,1.19,17.03c0.45,0.96,0.9,1.88,1.33,2.72c2.99,5.97,5.14,9.09,5.14,9.09
		s2.89-4.65,3.17-6.56c1.76-3.2,3.99-6.46,5.89-6.92C258.1,186.86,259.72,196.58,256.43,204.42z"/>
	<path class="st5" d="M237.89,170.46c-1.01-4.31-2.33-8.44-3.9-12.29c0.38,0.25,0.75,0.51,1.13,0.79c0.3,0.23,0.59,0.46,0.88,0.73
		C236.61,160.34,238.82,164.45,237.89,170.46z"/>
	<path class="st5" d="M256.43,204.42c-3.28,7.84-11.92,6.58-11.92,6.58s-0.78,3.86-3.02,8.15c-0.98,1.89-2.06,4.05-3.2,6.11
		c-2.66,4.75-6.14,8.96-8.3,10.73c2.81-8.19,8.13-17.34,9.34-35.95c0.17-2.63,0.6-5.24,0.69-7.85c2.99,5.97,5.14,9.09,5.14,9.09
		s2.89-4.65,3.17-6.56c1.76-3.2,3.99-6.46,5.89-6.92C258.1,186.86,259.72,196.58,256.43,204.42z"/>
	<g>
		<path class="st6" d="M288.39,381.31c-0.25,0-0.46-0.2-0.48-0.45c-0.01-0.2-1.06-20.22-1.86-30.75c-0.4-5.28-1.1-11.92-1.98-20.32
			c-0.87-8.27-1.95-18.55-3.04-30.46c-2.02-22.12,6.2-33.64,9.71-38.56c0.27-0.38,0.52-0.72,0.73-1.03
			c0.15-0.22,0.45-0.27,0.67-0.13c0.22,0.14,0.28,0.44,0.14,0.65c-0.22,0.31-0.46,0.66-0.74,1.04c-3.45,4.84-11.53,16.16-9.54,37.94
			c1.09,11.9,2.17,22.18,3.04,30.44c0.89,8.41,1.59,15.06,1.98,20.35c0.8,10.54,1.85,30.57,1.86,30.77
			c0.01,0.26-0.19,0.48-0.46,0.49C288.41,381.31,288.4,381.31,288.39,381.31z"/>
	</g>
	<g>
		<path class="st6" d="M182.03,333.62c-0.04,0-0.09,0-0.14-0.02c-0.25-0.07-0.4-0.33-0.32-0.58c2.4-7.83,5.87-35.35,6.88-47.13
			c0.02-0.26,0.26-0.45,0.52-0.43c0.27,0.02,0.47,0.25,0.44,0.51c-1.02,11.81-4.5,39.44-6.92,47.32
			C182.44,333.48,182.25,333.62,182.03,333.62z"/>
	</g>
	<g>
		<path class="st12" d="M187.21,382c-0.25,0-0.46-0.18-0.48-0.43c-0.02-0.18-1.72-18.2-2.72-30.19c-1-12.01-0.98-24.59-0.97-24.71
			c0-0.26,0.22-0.47,0.49-0.47l0,0c0.27,0,0.49,0.21,0.49,0.47c0,0.12-0.02,12.66,0.97,24.63c1,11.99,2.7,30,2.72,30.18
			c0.02,0.26-0.17,0.49-0.44,0.51C187.24,382,187.23,382,187.21,382z"/>
	</g>
	<path class="st13" d="M227.84,247.68c-0.89,0.65-8.11,1.73-11.82,15.05l-1.32-23.1c3.32,0.17,6.44-0.31,9.03-0.99
		c0.35-0.09,0.69-0.19,1.01-0.28L227.84,247.68z"/>
	<path class="st13" d="M251.41,223.15c-0.74,2.62-1.88,6.91-3.08,11.99c-2.01,8.46-7.44,28.53-7.44,28.53
		c-2.8-9.87-8.85-16.16-10.14-16.76c0,0,5.77-15.27,8.62-22.73L251.41,223.15z"/>
	<g>
		<path class="st7" d="M180.82,336.64c0.01-3.77,0.01-7.91,0-12.24c0-0.31,0-0.64-0.02-0.95c0-3.01-0.01-6.11-0.04-9.22
			c-0.01-0.32-0.01-0.63-0.01-0.93c-0.09-9.6-0.26-19.32-0.59-27.37c-0.17-3.84-0.43-8.44-0.88-13.54
			c-0.03-0.31-0.07-0.63-0.09-0.94c-0.64-6.93-1.62-14.77-3.12-22.92c-0.04-0.23-0.1-0.45-0.15-0.69c0-0.09-0.02-0.17-0.04-0.27
			c0.08,0.01,0.17,0.01,0.26,0.02c0.2-0.23,0.39-0.45,0.6-0.68c0.06,0.25,0.1,0.49,0.14,0.73c0.06,0.33,0.13,0.64,0.18,0.95
			c1.5,8.12,2.47,15.95,3.1,22.87l0.08,0.94c0.45,5.08,0.72,9.67,0.88,13.51c0.34,8.06,0.5,17.81,0.6,27.41
			c0,0.31,0.01,0.62,0.01,0.93c0.03,3.11,0.04,6.21,0.04,9.22c0.01,0.32,0.01,0.64,0.01,0.96c0.02,3.27,0.02,6.44,0.02,9.43
			C181.5,334.68,181.16,335.63,180.82,336.64z"/>
	</g>
	<path class="st14" d="M254.87,223.43c-5.16,6.8-14.88,16.93-28.46,19.98c-15.23,3.42-27.59-4.49-33.25-9.12
		c1.79-0.9,3.63-1.7,5.58-2.42c0.67,0.69,1.36,1.37,2.06,2.02c0.69,0.65,1.4,1.23,2.13,1.74c0.32,0.24,0.65,0.46,0.97,0.66
		c3.48,2.23,7.24,3.16,10.8,3.34c3.32,0.17,6.44-0.31,9.03-0.99c0.35-0.09,0.69-0.19,1.01-0.28c1.81-0.54,3.28-1.15,4.23-1.65
		c1.91-1,5.31-6.43,8.44-12.04l0.95-0.19c0,0,0.34-0.13,1.01-0.31l11.85-1l0.19-0.01c0.25,0.01,0.5,0.02,0.76,0.05
		C253.04,223.25,253.93,223.32,254.87,223.43z"/>
	<path class="st15" d="M169.67,410.67c0,0,0-0.02,0-0.03V410.67L169.67,410.67z"/>
	<path class="st3" d="M170,409.19c0,0-0.02,0-0.04,0c-0.15,0.86-0.26,1.37-0.28,1.46L170,409.19z"/>
	<path class="st16" d="M198.43,191.04c0.05-1.77-2.8-5.23-7.12-4.6c-4.32,0.63-11.42,5.64-9.92,5.95c1.5,0.32,6.03-1.25,10.99-1.35
		C197.36,190.94,198.39,192.38,198.43,191.04z"/>
	<path class="st16" d="M213.11,188.32c-1.62-0.21,1.19-4.39,5.5-6.9c4.31-2.51,8.52-2.72,10.25-0.52c1.73,2.2,0.98,2.77-0.75,2.95
		c-1.72,0.18-4.39,0-8.69,2.06C216.34,187.4,213.11,188.32,213.11,188.32z"/>
	<path class="st16" d="M248.33,194.72L248.33,194.72c-1.83,3.31-3.17,6.56-3.17,6.56S248.04,196.62,248.33,194.72z"/>
	<path class="st16" d="M248.32,194.72c-1.83,3.31-3.17,6.56-3.17,6.56s-2.34-3.42-5.57-9.94c-0.3-0.6-0.6-1.22-0.91-1.87
		c-3.66-7.75-3.02-9.92-1.18-17.03c1.83-7.07-0.82-12.04-1.51-12.75c0.38,0.21,7.11,4.24,10.78,13.48c0.01,0.04,0.02,0.06,0.04,0.1
		C250.53,182.78,248.32,194.72,248.32,194.72z"/>
	<path class="st17" d="M443.18,168.9c-2.59,1.25-5.86,3.72-6.57,4.26C437.97,172.47,440.41,171.09,443.18,168.9z"/>
	<path class="st6" d="M394.87,159.12c1.8-1.22-1.07-5.02-5.84-5.8c-4.76-0.78-10.36,0.31-9.71,1.1c0.65,0.78,4.75,1.57,7.96,3.29
		C390.5,159.43,393.25,160.21,394.87,159.12z"/>
	<path class="st6" d="M425.78,161.63c-0.32-2.04-4.7-4.18-10.52-4.23c-7.55-0.07-8.82,2.72-7.29,5.02c0.81,1.2,2.88,0.63,8.64,0
		C422.39,161.78,425.78,161.63,425.78,161.63z"/>
	<path class="st18" d="M389.8,212.17c-0.02-0.01-0.03-0.01-0.05-0.02c0,0-2.96,30.23-2.4,32.04c0.56,1.81,21.72-30.16,21.72-30.16
		S398.53,216,389.8,212.17z"/>
	<path class="st10" d="M222.17,661.67c0,0-25.89,15.15-32.37,21.74h36.25L222.17,661.67z"/>
	<polygon class="st10" points="265.33,664.27 265.33,683.41 299.53,683.41 275.37,664.27 	"/>
	<g>
		<path class="st16" d="M201.24,160.1c-0.23,0-0.43-0.15-0.47-0.38c-0.2-0.95-1.93-9.42,0.1-11.82c0.17-0.2,0.47-0.23,0.68-0.06
			c0.21,0.16,0.23,0.46,0.07,0.66c-1.47,1.74-0.43,8.56,0.1,11.03c0.05,0.25-0.12,0.5-0.38,0.55
			C201.3,160.09,201.27,160.1,201.24,160.1z"/>
	</g>
	<g>
		<path class="st16" d="M203.61,158.7c-0.05,0-0.1-0.01-0.15-0.02c-0.26-0.08-0.4-0.34-0.32-0.59c0.62-1.91,2.78-8.2,4.38-8.86
			c0.24-0.1,0.53,0.01,0.64,0.25c0.11,0.24-0.01,0.52-0.25,0.62c-0.81,0.34-2.62,4.56-3.83,8.28
			C204.01,158.57,203.82,158.7,203.61,158.7z"/>
	</g>
	<g>
		<path class="st16" d="M198.43,158.7c-0.19,0-0.37-0.11-0.45-0.3c-0.47-1.13-1.13-2.93-1.65-4.39c-0.41-1.11-0.83-2.26-0.92-2.42
			c-0.12-0.23-0.04-0.52,0.21-0.64c0.23-0.12,0.52-0.04,0.65,0.19c0.11,0.19,0.36,0.86,0.98,2.56c0.53,1.44,1.18,3.24,1.64,4.35
			c0.1,0.24-0.02,0.51-0.28,0.61C198.56,158.69,198.49,158.7,198.43,158.7z"/>
	</g>
	<g>
		<path class="st6" d="M246.74,206.14c-0.24,0-0.46-0.19-0.49-0.43c-0.5-5.47,4.79-11.08,5.02-11.31c0.18-0.19,0.49-0.2,0.68-0.02
			c0.2,0.18,0.21,0.47,0.03,0.66c-0.05,0.05-5.22,5.53-4.76,10.59c0.03,0.26-0.17,0.49-0.44,0.51
			C246.77,206.14,246.75,206.14,246.74,206.14z"/>
	</g>
	<g>
		<path class="st6" d="M249.43,203.63c-0.07,0-0.15-0.01-0.22-0.02c-1.05-0.19-2-1.78-2.17-2.1c-0.13-0.23-0.04-0.51,0.19-0.64
			c0.23-0.13,0.53-0.04,0.66,0.19c0.34,0.61,1.06,1.54,1.51,1.62c0.05,0.01,0.09,0.01,0.15-0.04c0.4-0.32,0.32-2.96-0.17-5.63
			c-0.04-0.25,0.13-0.5,0.39-0.55c0.26-0.04,0.52,0.13,0.56,0.38c0.31,1.67,0.91,5.65-0.17,6.52
			C249.94,203.54,249.7,203.63,249.43,203.63z"/>
	</g>
	<g>
		<path class="st6" d="M200.64,220.87c-0.21,0-0.39-0.13-0.46-0.32c-0.58-1.69-0.6-9.43-0.07-23.65c0.03-0.78,0.05-1.28,0.05-1.38
			c0-0.26,0.21-0.47,0.48-0.47c0.27,0,0.49,0.21,0.49,0.47c0,0.11-0.02,0.62-0.05,1.42c-0.49,13.1-0.51,20.82-0.07,22.98
			c1.4-0.09,6.37-0.71,8.59-4.75c0.13-0.23,0.42-0.32,0.66-0.19c0.23,0.12,0.32,0.41,0.2,0.63
			C207.6,220.81,200.93,220.87,200.64,220.87z"/>
	</g>
	<g>
		<path class="st19" d="M203.39,226.2c-0.23,0-0.43-0.16-0.47-0.39c-0.05-0.26,0.13-0.5,0.39-0.55c0.13-0.02,13.18-2.36,16.43-5.22
			c0.2-0.17,0.51-0.16,0.69,0.04c0.18,0.19,0.17,0.49-0.04,0.66c-3.46,3.03-16.36,5.34-16.91,5.44
			C203.46,226.2,203.42,226.2,203.39,226.2z"/>
	</g>
	<g>
		<path class="st6" d="M170,368.76c-0.02,0-0.05,0-0.08-0.01c-0.28-0.04-0.47-0.3-0.43-0.57c0.71-4.42,3.46-9.57,3.58-9.79
			c0.14-0.25,0.45-0.34,0.7-0.21c0.25,0.13,0.35,0.43,0.22,0.68c-0.03,0.05-2.8,5.23-3.48,9.48
			C170.47,368.59,170.25,368.76,170,368.76z"/>
	</g>
	<g>
		<path class="st6" d="M196.26,391.04c-3.79,5.45-11.47,15.53-18.84,20.98c0.13-0.5,0.26-0.99,0.38-1.47
			c7.02-5.53,14.18-15,17.71-20.13C195.76,390.62,196,390.83,196.26,391.04z"/>
	</g>
	<g>
		<path class="st6" d="M285.84,410.33c-0.07,0.19-0.26,0.29-0.45,0.29c-0.03,0-0.05,0-0.07-0.01c-0.04,0.01-0.08,0-0.11-0.01
			c-7.97-3.12-10.85-14.08-12.08-20.7c0.29-0.19,0.59-0.38,0.88-0.56c1.15,6.36,3.89,17.27,11.45,20.34
			c0.04,0.02,0.07,0.04,0.12,0.05C285.81,409.82,285.93,410.09,285.84,410.33z"/>
	</g>
	<g>
		<path class="st3" d="M240.52,230.12c-0.4,1.88-2.17,6.17-4.28,10.3c-2.31,4.55-5.02,8.89-6.72,9.55
			c-2.06,0.79-3.89-3.95-4.93-7.55c-0.59-2.08-0.91-3.77-0.85-3.79c2.27-0.59,4.12-1.34,5.24-1.93c2.62-1.37,7.99-10.98,11.68-18.06
			C240.86,221.49,241.15,227.21,240.52,230.12z"/>
		<path class="st5" d="M240.52,230.12c-0.4,1.88-2.17,6.17-4.28,10.3c-4.13,1.49-8.26,1.96-11.66,2c-0.59-2.08-0.91-3.77-0.85-3.79
			c2.27-0.59,4.12-1.34,5.24-1.93c2.62-1.37,7.99-10.98,11.68-18.06C240.86,221.49,241.15,227.21,240.52,230.12z"/>
	</g>
	<g>
		<path class="st6" d="M328.59,333.78c-0.33,0-0.62-0.25-0.64-0.59c-0.76-11.06-6.73-30.5-17.75-57.77
			c-6.14-15.22-13.88-29.7-13.96-29.85c-0.17-0.31-0.04-0.69,0.28-0.84c0.32-0.16,0.7-0.04,0.87,0.27
			c0.08,0.14,7.85,14.69,14.03,29.97c11.06,27.39,17.06,46.95,17.83,58.15c0.02,0.34-0.25,0.64-0.61,0.67
			C328.62,333.78,328.6,333.78,328.59,333.78z"/>
	</g>
	<g>
		<path class="st12" d="M306.11,424.95c-0.07,0-0.15-0.02-0.23-0.06c-7.4-3.89-21.89-5.58-22.03-5.59
			c-0.25-0.02-0.46-0.24-0.45-0.49c0.01-0.25,0.22-0.45,0.48-0.45c0.12,0,14.82,1.68,22.45,5.7c0.24,0.13,0.33,0.41,0.2,0.64
			C306.46,424.86,306.29,424.95,306.11,424.95z"/>
	</g>
	<g>
		<path class="st6" d="M222.17,662.14c-0.01,0-0.01,0-0.02,0c-0.27-0.01-0.48-0.23-0.47-0.49c0.03-0.62,2.95-62.39-2.93-79.34
			c-5.88-16.96-21.4-36.36-21.57-36.55c-0.09-0.12-0.13-0.27-0.09-0.41c0.22-0.78,21.96-77.7,22.16-78.51
			c0.06-0.25,0.32-0.41,0.58-0.35c0.26,0.06,0.42,0.32,0.36,0.57c-0.19,0.75-20.55,72.82-22.1,78.31
			c1.62,2.05,15.94,20.42,21.57,36.64c5.94,17.12,3.1,77.13,2.98,79.68C222.64,661.95,222.43,662.14,222.17,662.14z"/>
	</g>
	<g>
		<path class="st6" d="M285.38,562.25c-0.08,0-0.16-0.02-0.24-0.05c-1.67-0.88-3.45-3.78-4.89-6.11c-0.65-1.06-1.27-2.07-1.55-2.31
			c-0.2-0.17-0.22-0.47-0.04-0.66c0.17-0.2,0.48-0.22,0.68-0.04c0.38,0.32,0.89,1.13,1.75,2.53c1.3,2.12,3.08,5.01,4.52,5.77
			c0.24,0.13,0.32,0.41,0.19,0.64C285.72,562.16,285.56,562.25,285.38,562.25z"/>
	</g>
	<g>
		<path class="st6" d="M181.6,562.25c-0.09,0-0.17-0.02-0.25-0.07c-0.23-0.14-0.3-0.43-0.15-0.65c0.03-0.05,3.2-5,3.73-6.21
			c0.1-0.24,0.39-0.35,0.63-0.25c0.25,0.1,0.36,0.38,0.26,0.62c-0.56,1.27-3.67,6.13-3.8,6.33
			C181.92,562.17,181.76,562.25,181.6,562.25z"/>
	</g>
	<g>
		<path class="st2" d="M419.93,213.23c-9.56,12.93-30.82,40.93-35.89,40.93c-0.19,0-0.35-0.03-0.5-0.12
			c-4.05-2.28-3.57-35.08-3.31-45.68c0.32-0.03,0.66-0.05,0.98-0.06c-0.48,18.13-0.1,43.28,2.82,44.94
			c0.08,0.04,0.17,0.06,0.28,0.06c3.14,0,19.27-19.55,34.8-40.56C419.38,212.89,419.64,213.06,419.93,213.23z"/>
	</g>
	<g>
		<path class="st6" d="M384.99,183.41c-0.13,0-0.26-0.05-0.35-0.14c-0.11-0.11-0.16-0.26-0.13-0.42c0.49-2.71,9.23-18.44,9.6-19.11
			c0.13-0.23,0.42-0.31,0.66-0.19c0.23,0.12,0.32,0.41,0.2,0.64c-2.87,5.15-8.16,14.98-9.3,18.14c2.24-0.4,8.16-1.44,8.87-1.44
			c0.27,0,0.48,0.21,0.48,0.47c0,0.26-0.21,0.47-0.48,0.47c-0.56,0-6.1,0.96-9.47,1.56C385.04,183.41,385.01,183.41,384.99,183.41z"
			/>
	</g>
	<path class="st20" d="M382.4,191.41c0.97-0.16,14.41-4.75,21.86-3.08c0,0-3.24,7.33-10.2,8.18
		C387.1,197.36,382.4,191.41,382.4,191.41z"/>
	<path class="st6" d="M441.56,172.9c-0.15-0.22-0.45-0.27-0.68-0.13c-1.25,0.82-2.39,1.73-3.42,2.67c-0.03,0.02-0.04,0.04-0.06,0.06
		c-1.69,1.56-3.08,3.19-4.16,4.66c-0.01,0.01-0.02,0.03-0.04,0.05c-1.65,2.24-2.56,4.06-2.71,4.46c-0.08,0.25,0.06,0.51,0.3,0.59
		c0.05,0.02,0.11,0.02,0.16,0.02c0.2,0,0.39-0.12,0.46-0.32c0.12-0.34,0.85-1.78,2.15-3.62c0.53,0.78,1.51,2.02,2.7,2.31
		c0.18,0.04,0.36,0.06,0.53,0.06c0.43,0,0.84-0.13,1.23-0.39c2.13-1.43,0.74-6.06,0.28-7.37c0.95-0.85,1.99-1.67,3.11-2.4
		C441.65,173.41,441.72,173.12,441.56,172.9z M437.48,182.56c-0.31,0.21-0.63,0.27-0.97,0.19c-0.96-0.23-1.91-1.52-2.34-2.23
		c0.91-1.21,2.03-2.54,3.36-3.82C438.08,178.47,438.75,181.71,437.48,182.56z"/>
	<g>
		<path class="st2" d="M319.43,298.31c-0.08,0-0.17-0.02-0.24-0.07c-0.23-0.13-0.31-0.42-0.18-0.64c0.06-0.09,5.47-9,10.41-18.22
			c4.93-9.22,10.24-20.65,10.29-20.77c0.11-0.24,0.4-0.34,0.64-0.23c0.24,0.1,0.36,0.38,0.24,0.62
			c-0.05,0.12-5.36,11.57-10.31,20.81c-4.96,9.24-10.38,18.17-10.44,18.26C319.76,298.22,319.6,298.31,319.43,298.31z"/>
	</g>
	<g>
		<path class="st2" d="M335.3,307.39c-0.27,0-0.48-0.21-0.49-0.46c-0.49-24.75,2.83-43.93,3.06-44.41c0.11-0.24,0.4-0.34,0.64-0.23
			c0.23,0.1,0.34,0.37,0.25,0.59c-0.31,1.01-3.47,19.75-2.98,44.02C335.79,307.17,335.58,307.39,335.3,307.39
			C335.3,307.39,335.3,307.39,335.3,307.39z"/>
	</g>
	<g>
		<path class="st2" d="M335.25,396.73c-0.21,0-0.41-0.14-0.47-0.35c-0.02-0.1-2.6-9.61-3.67-13.75c-1.08-4.18-2.17-8.41-2.17-8.41
			c-0.04-0.18,0.03-0.37,0.18-0.49c0.3-0.23,30.96-23.31,42.67-35.06c12.54-12.58,30.61-34.29,40.27-54.05
			c9.84-20.13,10.63-25.82,10.64-25.87c0.03-0.25,0.26-0.44,0.53-0.41c0.27,0.03,0.45,0.26,0.43,0.52
			c-0.03,0.23-0.78,5.8-10.73,26.17c-9.71,19.87-27.86,41.67-40.45,54.31c-11.2,11.23-39.56,32.73-42.53,34.96
			c0.26,1.03,1.18,4.59,2.08,8.11c0.94,3.63,3.03,11.41,3.55,13.31c34.99-6.52,63.83-18.4,79.15-32.62
			c17.24-15.99,37.71-46.59,37.91-46.9c0.15-0.22,0.45-0.28,0.68-0.14c0.22,0.14,0.29,0.43,0.15,0.65
			c-0.21,0.31-20.74,31.01-38.05,47.07c-15.53,14.4-44.73,26.41-80.1,32.94C335.31,396.73,335.29,396.73,335.25,396.73z"/>
	</g>
	<g>
		<path class="st2" d="M391.21,384.74c-6.54,0-10.66-0.65-10.73-0.65c-0.27-0.04-0.45-0.28-0.4-0.54c0.04-0.26,0.28-0.43,0.56-0.39
			c0.13,0.02,12.43,1.94,28.33-0.94c15.89-2.87,23.56-8.42,23.64-8.48c0.21-0.16,0.51-0.12,0.68,0.09c0.17,0.21,0.13,0.5-0.09,0.66
			c-0.32,0.23-7.94,5.74-24.05,8.65C402.28,384.38,396.08,384.74,391.21,384.74z"/>
	</g>
	<g>
		<path class="st21" d="M357.04,621.54c-0.04,0-0.09-0.01-0.13-0.02c-0.26-0.07-0.41-0.34-0.33-0.58
			c3.83-12.47,5.61-23.71,7.06-44.56c1.37-19.6-4.95-42.46-5.02-42.69c-0.03-0.09-0.02-0.18,0-0.26
			c9.91-31.17,21.56-93.05,21.68-93.68c0.02-0.14,0.11-0.26,0.24-0.32l7.13-3.84c0.22-0.12,0.52-0.05,0.66,0.18
			c0.13,0.22,0.04,0.51-0.19,0.64l-6.92,3.73c-0.77,4.08-11.99,63.11-21.62,93.44c0.53,1.91,6.34,23.88,5.02,42.86
			c-1.46,20.93-3.25,32.23-7.11,44.76C357.44,621.41,357.26,621.54,357.04,621.54z"/>
	</g>
	<g>
		<path class="st21" d="M338.32,547.62c-0.1,0-0.21-0.03-0.29-0.09c-0.22-0.15-0.27-0.45-0.1-0.66l5.14-6.69
			c0.16-0.21,0.46-0.25,0.68-0.1c0.21,0.15,0.26,0.45,0.1,0.66l-5.14,6.69C338.61,547.56,338.46,547.62,338.32,547.62z"/>
	</g>
	<g>
		<path class="st21" d="M437.16,590.23c-0.16,0-0.32-0.08-0.41-0.23c-20.91-32.27-26.25-64.81-26.79-68.41
			c-0.04-0.25,0.13-0.54,0.39-0.59c0.25-0.05,0.49,0.06,0.55,0.31c0,0.01,0.02,0.13,0.02,0.15c0.53,3.58,5.84,35.94,26.65,68.05
			c0.15,0.22,0.07,0.51-0.15,0.65C437.34,590.2,437.25,590.23,437.16,590.23z"/>
	</g>
	<g>
		<path class="st21" d="M437.16,549.29c-0.1,0-0.19-0.03-0.28-0.09c-0.21-0.15-0.27-0.45-0.12-0.65c0.9-1.25,6.21-8.08,6.44-8.37
			c0.16-0.21,0.47-0.25,0.68-0.1c0.21,0.16,0.26,0.45,0.1,0.66c-0.06,0.07-5.53,7.11-6.42,8.35
			C437.47,549.23,437.32,549.29,437.16,549.29z"/>
	</g>
	<g>
		<path class="st21" d="M377.55,414.39c-0.21,0-0.41-0.14-0.47-0.35l-7.38-26.53c-0.07-0.25,0.08-0.51,0.34-0.58
			c0.27-0.07,0.53,0.08,0.6,0.33l7.38,26.53c0.07,0.25-0.09,0.51-0.34,0.58C377.64,414.38,377.59,414.39,377.55,414.39z"/>
	</g>
	<g>
		<path class="st6" d="M171.32,400.48c-0.05,0.38-0.1,0.74-0.15,1.09c-8.48,3.41-22.41,4.09-27.61,4.21
			c-0.05-0.3-0.11-0.61-0.17-0.93C148.5,404.7,163.09,404,171.32,400.48z"/>
	</g>
	<g>
		<path class="st6" d="M310.37,415.07c-0.13,0.3-0.25,0.59-0.38,0.88c-8.51-1.83-17-5.71-22.42-8.2c-0.6-0.26-1.19-0.53-1.71-0.78
			c0.04-0.31,0.08-0.64,0.13-0.97c0.56,0.25,1.22,0.55,2,0.91C293.4,409.39,301.9,413.28,310.37,415.07z"/>
	</g>
	<g>
		<path class="st6" d="M220.07,240.13c-0.25,0-0.47-0.19-0.48-0.43c-0.03-0.26,0.18-0.49,0.44-0.51c0.06,0,5.81-0.54,12.36-7.11
			c8.18-8.2,11.4-20.62,11.43-20.75c0.07-0.25,0.34-0.4,0.59-0.35c0.26,0.06,0.42,0.32,0.36,0.57c-0.03,0.13-3.3,12.79-11.67,21.18
			c-6.83,6.85-12.74,7.37-12.99,7.39C220.09,240.13,220.08,240.13,220.07,240.13z"/>
	</g>
	<path class="st3" d="M273.48,215.86c-6.99-2.29-13.11-1.9-17.05,4.2c-4.75,7.38-5.78,15.53-2.98,17s6.26-11.08,6.26-10.45
		c0,0.63-4.76,14.84-2.38,16.09c2.38,1.25,9.29-14.63,9.07-13.79c-0.21,0.84-5.84,15.05-2.71,16.3c3.15,1.25,8.54-14.84,8.54-14.84
		s-4.97,11.49-1.73,12.12c3.24,0.63,7.74-12.65,7.74-12.65s6.12,6.6,9.14,4.51C290.42,232.26,284,219.31,273.48,215.86z"/>
	<path class="st6" d="M218.75,197.02c0.41,2.74-0.17,5.08-1.28,5.23c-1.11,0.15-2.34-1.94-2.74-4.67c-0.41-2.74,0.17-5.08,1.28-5.23
		C217.12,192.19,218.35,194.28,218.75,197.02z"/>
	<path class="st6" d="M197.01,201.98c0.4,2.74-0.17,5.08-1.28,5.23c-1.11,0.15-2.34-1.94-2.75-4.67c-0.4-2.74,0.17-5.08,1.29-5.23
		C195.38,197.15,196.61,199.24,197.01,201.98z"/>
	<path class="st6" d="M406.22,173.14c-1.43,2.51-3.23,4.2-4.04,3.77c-0.8-0.43-0.3-2.81,1.13-5.32c1.41-2.51,3.22-4.2,4.03-3.77
		C408.15,168.25,407.64,170.63,406.22,173.14z"/>
	<path class="st6" d="M385.95,167.81c-1.42,2.51-3.23,4.19-4.03,3.77c-0.81-0.43-0.3-2.81,1.12-5.32c1.42-2.51,3.23-4.2,4.04-3.77
		C387.88,162.92,387.37,165.3,385.95,167.81z"/>
	<path class="st22" d="M202.87,162.01c-2.49,1.46-4.87,3.7-3.14,5.34c1.72,1.64,9.98-2.29,8.85-4.24
		C207.44,161.16,205.05,160.73,202.87,162.01z"/>
	<path class="st5" d="M169.99,443.11c-0.04-0.79-0.15-1.52-0.28-2.17C169.92,441.69,170.03,442.43,169.99,443.11z"/>
	<g>
		<path class="st21" d="M347.12,684.98h-44.13c7.02-4.39,31.88-18.53,31.88-19.1l4.77-1.37l2.65-0.76L347.12,684.98z"/>
		<path class="st0" d="M347.12,684.98h-9.93c1.03-5.83,2.16-13.45,2.45-20.46l2.65-0.76L347.12,684.98z"/>
	</g>
	<g>
		<path class="st21" d="M497.32,668.71c-4.76,4.29-10.99,7.6-17.01,10.07c-10.75,4.43-20.86,6.19-20.86,6.19
			c7.76-8.46,18.66-33.25,18.41-33.62c0,0,0.7-0.54,1.7-1.34c2.48-1.97,6.76-5.53,6.76-6.42
			C486.32,642.34,497.32,668.71,497.32,668.71z"/>
		<path class="st0" d="M480.31,678.78c-10.75,4.43-20.86,6.19-20.86,6.19c7.76-8.46,18.66-33.25,18.41-33.62c0,0,0.7-0.54,1.7-1.34
			C480.88,656.49,482.48,668.5,480.31,678.78z"/>
	</g>
	<g>
		<path class="st6" d="M447.24,165.23c-1.37,1.41-2.74,2.63-4.06,3.67c-2.57,1.24-5.85,3.72-6.56,4.26
			c-0.05,0.01-0.1,0.04-0.14,0.06c-0.62,0.32-0.98,0.46-0.98,0.46s0.32-3.28,0-10.03c-0.33-6.75-1.99-13.91-1.99-13.91
			c-6.99-0.1-14.37-9.99-14.37-9.99s-7.44,8.23-18.61,8.23c-11.18,0-13.92-7.37-13.92-7.37c-1.59,1.63-3.59,2.41-5.38,2.29
			c-1.99-0.11-3.74-1.37-4.34-3.85c-0.07-0.35-0.14-0.69-0.15-1.02c-0.35-4.07,3.43-6.37,3.88-6.51c0,0-3.08-10.36,8.25-13.79
			c4.85-1.48,7.76,0.78,7.93,1.25c0.16,0.47,5.33-6.88,17.17-6.88c11.84,0,16,9.39,16,9.39s6.14,1.09,13.27,7.2
			c0.48,0.41,0.91,0.85,1.29,1.31c5.58,6.32,3.88,16.41,3.88,16.41C451.85,149.56,452.97,159.28,447.24,165.23z"/>
		<path class="st8" d="M447.24,165.23c-1.37,1.41-2.74,2.63-4.06,3.67c-2.57,1.24-5.85,3.72-6.56,4.26
			c-0.05,0.01-0.1,0.04-0.14,0.06c-0.62,0.32-0.98,0.46-0.98,0.46s0.32-3.28,0-10.03c-0.33-6.75-1.99-13.91-1.99-13.91
			c-6.99-0.1-14.37-9.99-14.37-9.99s-7.44,8.23-18.61,8.23c-11.18,0-13.92-7.37-13.92-7.37c-1.59,1.63-3.59,2.41-5.38,2.29
			c-1.99-0.11-3.74-1.37-4.34-3.85c-0.07-0.35-0.14-0.69-0.15-1.02c2.45,1.16,6.05,1.74,10.44-0.71c0,0,1.25,6.76,12.81,5.58
			c11.54-1.19,21.26-11.22,21.26-11.22s2.91,12.23,12.62,9.72c5.58-1.44,8.76-7.12,10.68-11.4c5.58,6.32,3.88,16.41,3.88,16.41
			C451.85,149.56,452.97,159.28,447.24,165.23z"/>
	</g>
	<g>
		<path class="st23" d="M119.44,682.57c-0.05,0-0.1,0-0.16-0.01c-0.7-0.09-1.21-0.71-1.12-1.4c1.15-9.08,28.32-222.37,31.33-231.37
			c0.04-0.14,0.11-0.27,0.21-0.38c0.17-0.2,4.09-5.03,10.12-5.03c5.16,0,10.8,10.41,11.15,39.64c0.28,23.56,0,195.56,0,197.3
			c0,0.69-0.58,1.25-1.3,1.25c-0.73-0.02-1.29-0.56-1.29-1.25c0-1.74,0.28-173.72,0-197.27c-0.29-24.14-4.63-37.16-8.56-37.16
			c-4.18,0-7.24,3.13-7.93,3.89c-3.26,11.66-30.87,228.49-31.15,230.69C120.65,682.11,120.1,682.57,119.44,682.57z"/>
	</g>
	<g>
		<path class="st23" d="M347.12,684.67c-0.62,0-1.17-0.44-1.28-1.05c-0.35-2.05-34.77-205.37-38.26-220.49
			c-2.28-9.85-8.37-16.67-12.44-16.67c-0.02,0-0.04,0-0.05,0c-2.98,0.04-4.21,4.04-4.69,6.42c-2.89,14.64,23.24,228.23,23.5,230.38
			c0.09,0.69-0.42,1.31-1.13,1.4c-0.72,0.08-1.36-0.41-1.44-1.1c-1.08-8.82-26.43-216.13-23.46-231.15
			c1.44-7.29,5.11-8.43,7.18-8.46c0.04,0,0.06,0,0.1,0c5.89,0,12.58,8.32,14.96,18.63c3.51,15.2,37.95,218.58,38.3,220.63
			c0.11,0.68-0.36,1.33-1.07,1.44C347.26,684.66,347.2,684.67,347.12,684.67z"/>
	</g>
	<g>
		<path class="st23" d="M295.01,529.79H140.44c-0.72,0-1.3-0.56-1.3-1.25c0-0.69,0.58-1.25,1.3-1.25h154.31l23.77-9.25
			c0.66-0.25,1.42,0.06,1.68,0.7c0.27,0.64-0.05,1.37-0.72,1.63l-24,9.34C295.34,529.76,295.17,529.79,295.01,529.79z"/>
	</g>
	<g>
		<path class="st23" d="M292.03,485.71H145.36c-0.71,0-1.3-0.56-1.3-1.25c0-0.69,0.59-1.26,1.3-1.26h146.43l19.26-7.5
			c0.66-0.25,1.42,0.06,1.68,0.69c0.27,0.65-0.05,1.38-0.72,1.63l-19.49,7.59C292.36,485.68,292.19,485.71,292.03,485.71z"/>
	</g>
	<g>
		<path class="st23" d="M300.39,580.58c-0.51,0-1-0.3-1.2-0.79c-0.26-0.65,0.07-1.38,0.73-1.63L327,567.72
			c0.67-0.26,1.42,0.05,1.68,0.7c0.27,0.65-0.06,1.37-0.72,1.63l-27.1,10.44C300.71,580.55,300.55,580.58,300.39,580.58z"/>
	</g>
	<g>
		<path class="st23" d="M132.12,584.37c-0.62,0-1.16-0.43-1.27-1.03c-0.13-0.68,0.35-1.33,1.05-1.45l37.66-6.45
			c0.7-0.13,1.38,0.33,1.5,1.02c0.13,0.68-0.34,1.33-1.04,1.45l-37.67,6.45C132.27,584.37,132.19,584.37,132.12,584.37z"/>
	</g>
	<g>
		<rect x="111.25" y="674.36" class="st23" width="16.4" height="9.05"/>
		<rect x="160.23" y="674.36" class="st23" width="16.41" height="9.05"/>
	</g>
	<g>
		<rect x="305.14" y="675.62" class="st23" width="16.4" height="9.05"/>
		<rect x="339.57" y="675.62" class="st23" width="16.4" height="9.05"/>
	</g>
	<g>
		<path class="st3" d="M169.99,443.11c0.01,0.01,0.01,0.03,0,0.05c0,0.11-0.03,0.23-0.04,0.34c-0.63,4.12-5.71,11.32-7.91,10.68
			c-0.03-0.01-0.05-0.01-0.08-0.03c-2.16-0.84,0.22-8.36,0-10.46c-0.22-2.08-3.46-2.51-7.34-0.41c-3.88,2.1-7.33,4.6-3.66,9.41
			c2,2.63,2.13,4.01,1.85,4.71c-0.11,0.28-0.3,0.45-0.45,0.57c-0.19,0.11-0.33,0.15-0.33,0.15s0.36,0.32,0.76,0.83
			c0.68,0.89,1.43,2.36,0.33,3.56c-1.74,1.88-15.33-5.84-15.64-8.78c-0.32-2.92,3.13-2.3,3.13-2.3s-4.96-4.17-2.38-8.78
			c2.59-4.6,11.65-7.11,11.65-7.11c-1.51-3.55-3.88-17.34-3.88-17.34c6.02-4.74,12.19-6.58,16.73-7.27
			c4.17-0.62,6.94-0.26,6.94-0.26l-4.89,22.17c0,0,1.23,1.37,2.48,3.25c0.01,0.01,0.03,0.03,0.04,0.04
			c0.96,1.43,1.94,3.16,2.42,4.82C169.92,441.69,170.03,442.43,169.99,443.11z"/>
		<g>
			<path class="st6" d="M152.79,458.95c-4.68-0.37-10.09-5.26-10.36-5.49c-0.2-0.19-0.21-0.47-0.03-0.66
				c0.19-0.19,0.49-0.2,0.68-0.03c0.06,0.07,5.05,4.58,9.27,5.21c-0.19,0.11-0.33,0.15-0.33,0.15S152.39,458.44,152.79,458.95z"/>
		</g>
		<path class="st5" d="M169.66,410.67l-4.89,22.17c0,0,1.23,1.37,2.48,3.25c-2.2-2.19-4.93-2.21-4.97-2.21
			c1.57-4.58,0.95-16.25,0.43-22.95C166.89,410.32,169.66,410.67,169.66,410.67z"/>
		<path class="st5" d="M162.04,454.18c-0.03-0.01-0.05-0.01-0.08-0.03c-2.16-0.84,0.22-8.36,0-10.46c-0.22-2.08-3.46-2.51-7.34-0.41
			c-3.88,2.1-7.33,4.6-3.66,9.41c2,2.63,2.13,4.01,1.85,4.71c-8.39-6.77-5.1-12.38,0.92-16.21c6.23-3.96,8.88-2.08,11.09,1.7
			C166.6,445.92,163.71,451.3,162.04,454.18z"/>
	</g>
	<path class="st3" d="M302.99,465.02c-1.81,0.29-2.49,0.1-2.69-0.2c-0.18-0.27,0.06-0.65,0.17-0.79c-0.29,0.3-2.72,2.68-4.54,2.91
		c-0.22,0.03-0.43,0.03-0.62-0.01c-0.8-0.16-1.17-0.43-1.29-0.7c-0.22-0.4,0.02-0.78,0.02-0.78s-0.76,0.68-1.53,1.12
		c-0.26,0.15-0.52,0.26-0.75,0.32c-0.65,0.16-1.13-0.1-0.96-1.44c0.43-3.35,6.05-12.13,4.11-14.85c-1.94-2.71-7.12-3.96-10.16-3.76
		c-0.36,0.03-0.64,0.18-0.85,0.43c-1.5,1.82,0.6,8.84-1.29,10.86c-1.11,1.19-2.68,0.21-4.08-1.89c-1.34-1.98-2.53-4.99-3.04-8.14
		c-1.09-6.47,6.26-14.84,6.26-14.84s2.27-13.79,2.27-14.42c1.72,0.15,3.44,0.39,5.13,0.68c0.58,0.12,1.16,0.23,1.73,0.34
		c8.33,1.71,15.26,4.63,15.26,4.63l-5.61,12.75c0,0,5.19,12.33,7.55,17.34C310.43,459.59,306.98,464.39,302.99,465.02z"/>
	<g>
		<path class="st6" d="M300.08,456.02c-0.16,0.35-3.01,6.13-6.06,10.2c-0.22-0.4,0.02-0.78,0.02-0.78s-0.76,0.68-1.53,1.12
			c2.66-3.25,5.51-8.54,6.71-10.95c0.11-0.24,0.4-0.34,0.63-0.22C300.1,455.5,300.19,455.77,300.08,456.02z"/>
	</g>
	<g>
		<path class="st6" d="M296.41,467.43c-0.2,0-0.38-0.12-0.45-0.31c-0.09-0.25,0.04-0.51,0.29-0.6c5.06-1.72,8.09-10.76,8.12-10.85
			c0.08-0.25,0.36-0.38,0.62-0.31c0.25,0.08,0.39,0.35,0.31,0.59c-0.13,0.39-3.21,9.58-8.72,11.45
			C296.51,467.42,296.46,467.43,296.41,467.43z"/>
	</g>
	<path class="st5" d="M289.13,419.51c-1.99,5.34-5.24,14.79-5.24,14.79s-4.45,3.37-5.62,11.35c-0.53,3.62-0.21,7.46,0.25,10.58
		c-1.34-1.98-2.53-4.99-3.04-8.14c-1.09-6.47,6.26-14.84,6.26-14.84s2.27-13.79,2.27-14.42
		C285.72,418.98,287.44,419.22,289.13,419.51z"/>
	<path class="st5" d="M296.81,455.34c-0.74,3.57-3.46,8.45-5.05,11.55c-0.65,0.16-1.13-0.1-0.96-1.44
		c0.43-3.35,6.05-12.13,4.11-14.85c-1.94-2.71-7.12-3.96-10.16-3.76c-0.36,0.03-0.64,0.18-0.85,0.43c0.79-2.46,4.03-2.29,8.61-1.62
		C298.53,446.53,297.92,449.97,296.81,455.34z"/>
	<g>
		<path class="st6" d="M275.49,445.64c-0.26,0-0.47-0.2-0.48-0.45c-0.17-3.86,5.49-11.15,6.26-12.13l3.23-20.36
			c0.04-0.25,0.28-0.44,0.55-0.39c0.27,0.04,0.45,0.28,0.41,0.54l-3.25,20.48c-0.01,0.08-0.05,0.16-0.1,0.22
			c-0.06,0.08-6.3,7.89-6.13,11.61c0.01,0.26-0.2,0.48-0.47,0.49C275.51,445.64,275.5,445.64,275.49,445.64z"/>
	</g>
	<g>
		<path class="st3" d="M418.76,196.5l-6.68,12.05l-3.03,5.48c0,0-0.49,0.09-1.35,0.19c-3.11,0.39-11.06,0.95-17.91-2.05
			c-0.02-1.18-0.04-2.77-0.03-4.31c0-0.9,0.02-1.79,0.03-2.57c4.84,1.01,9.72,0.47,14.25-0.93c2.75-0.84,5.4-1.98,7.82-3.28
			C414.45,199.69,416.78,198.07,418.76,196.5z"/>
		<path class="st5" d="M418.76,196.5l-6.68,12.05l-3.03,5.48c0,0-0.49,0.09-1.35,0.19c-1.02-3.19-2.46-6.83-3.66-9.87
			c2.75-0.84,5.4-1.98,7.82-3.28C414.45,199.69,416.78,198.07,418.76,196.5z"/>
	</g>
	<path class="st24" d="M248.32,194.72c-1.83,3.31-3.17,6.56-3.17,6.56s-2.34-3.42-5.57-9.94c2.57-5.02,5.37-12.69,7.22-18.07
		C250.53,182.78,248.32,194.72,248.32,194.72z"/>
</g>
</svg>
