<?xml version="1.0" encoding="utf-8"?>
<!-- Generator: Adobe Illustrator 23.1.0, SVG Export Plug-In . SVG Version: 6.00 Build 0)  -->
<svg version="1.1" id="Layer_1" xmlns="http://www.w3.org/2000/svg" xmlns:xlink="http://www.w3.org/1999/xlink" x="0px" y="0px"
	 viewBox="0 0 595.28 841.89" style="enable-background:new 0 0 595.28 841.89;" xml:space="preserve">
<style type="text/css">
	.st0{fill:#98D9EA;}
	.st1{fill:#C7E9EF;}
	.st2{fill:#9EDAE1;}
	.st3{fill:#3983C5;}
	.st4{fill:#938B8B;}
	.st5{fill:#F89839;}
	.st6{fill:#E3822E;}
	.st7{fill:#D65028;}
	.st8{fill:#C34028;}
	.st9{fill:#E18727;}
	.st10{fill:#B8544A;}
	.st11{fill:#A13F38;}
	.st12{fill:#F0B5AB;}
	.st13{fill:#F6958E;}
	.st14{fill:#5F1E17;}
	.st15{fill:#253D7F;}
	.st16{fill:#993322;}
	.st17{fill:#9A3F3B;}
	.st18{fill:#FFFFFF;}
	.st19{fill:#A8DEEB;}
	.st20{fill:#1E1725;}
	.st21{fill:#A5D6B5;}
	.st22{fill:#FFC516;}
	.st23{fill:#A0D9D5;}
	.st24{fill:#CF625B;}
	.st25{fill:#4E4363;}
	.st26{fill:#CA6528;}
	.st27{opacity:0.5;fill:#CF625B;}
	.st28{fill:#9C3D37;}
	.st29{fill:#872E2C;}
	.st30{fill:#A79E9E;}
	.st31{fill:#BAB0B0;}
	.st32{fill:#FDC115;}
</style>
<g>
	<g>
		<g>
			<path class="st0" d="M449.8,540.89H77.76c-0.91,28.99-3.14,52.04-3.43,54.99h376.97C450.14,576.54,449.7,558.09,449.8,540.89z"/>
			<path class="st1" d="M471.75,338.61c0,9.7-5.71,56.27-10.3,91.5l-0.65,0.07c-2.63,8.67-5.23,22.77-7.26,40.99H76.21
				c-1.62-16.57-4.39-31.68-8.88-42.91c-6.67-40.07-16.47-90.46-16.47-90.46c5.83-7.1,173.08-2.41,217.96-2.94
				c0.39,0,0.76-0.02,1.14-0.02c0.69,0,1.33-0.01,1.94-0.03C311.55,334.01,471.75,338.61,471.75,338.61z"/>
			<path class="st1" d="M66.97,430.7c-0.13-0.67-0.24-1.33-0.4-2c-0.57-2.42-1.33-4.73-2.23-6.91
				c-6.36-15.2-20.36-24.02-33.74-20.21c-5.71,1.62-10.5,5.32-14.01,10.32c-5.91,8.38-8.24,20.43-5.37,32.53
				c2.73,11.52,9.55,20.48,17.84,24.91c5.64,3.02,11.94,3.96,18.13,2.2C61.95,467.35,70.51,449.32,66.97,430.7z"/>
			<path class="st0" d="M30.6,401.59c13.38-3.81,27.38,5.01,33.74,20.21l0,0c1.06,1.95,2.05,4.08,2.96,6.36l-6.36-36.57
				c-37.8-8.11-44.35,20.32-44.35,20.32h0.01C20.1,406.91,24.9,403.2,30.6,401.59z"/>
			<path class="st2" d="M76.2,471.19c0.62,6.36,1.07,12.93,1.38,19.59h374.16c0.52-6.91,1.12-13.42,1.79-19.48
				C423.84,472.07,109.68,471.28,76.2,471.19z"/>
			<path class="st0" d="M77.58,490.78c0.79,16.95,0.68,34.41,0.19,50.11H449.8c0.1-18.29,0.83-35.16,1.94-50.11H77.58z"/>
			<path class="st0" d="M77.58,490.78c-0.3-6.66-0.75-13.23-1.38-19.59c-1.89-0.01,0-0.01,0-0.01c-1.61-16.57-4.38-31.68-8.86-42.91
				c0.15,0.91-0.04-0.11-0.04-0.11c-0.91-2.28-1.9-4.41-2.96-6.36c0.91,2.17,1.66,4.48,2.23,6.91c0.16,0.67,0.27,1.33,0.4,2
				c3.54,18.63-5.02,36.65-19.77,40.85c-6.19,1.76-12.49,0.82-18.13-2.2c0,0,17.31,57.37,12.32,126.86H74.3c0,0,0.01-0.12,0.03-0.32
				c0.29-2.96,2.52-26,3.43-54.99C78.26,525.18,78.37,507.73,77.58,490.78z"/>
			<path class="st0" d="M512.83,455.54c-7.19,12.1-20.01,18.37-32.12,14.5c-14.52-4.66-22.7-22.22-19.02-39.94l-0.26,0.02
				l-0.64,0.06c-2.62,8.68-5.23,22.78-7.25,41c0,0,1.44,0.09-0.02,0.12c-0.67,6.06-1.27,12.56-1.79,19.48
				c-1.11,14.96-1.84,31.82-1.94,50.11c-0.1,17.2,0.35,35.66,1.51,54.99h20.44h17.91C489.66,595.88,482.1,511.94,512.83,455.54z"/>
			<path class="st0" d="M498.6,403.1c5.98,1.91,10.86,6.03,14.31,11.44c-7.03-13.94-22.42-35.75-46.42-24.41l-5.71,40.06h0.01
				c1.19-3.93,2.38-6.78,3.52-8.38C470.83,406.99,485.16,398.79,498.6,403.1z"/>
			<path class="st1" d="M517.34,424.91c-0.01-0.04-0.02-0.07-0.03-0.11c-0.23-0.68-1.69-4.89-4.4-10.26
				c-3.45-5.41-8.34-9.52-14.31-11.44c-13.44-4.32-27.77,3.89-34.28,18.7c-0.84,1.89-1.54,3.87-2.1,5.96
				c-0.2,0.78-0.35,1.55-0.52,2.33c-3.68,17.71,4.5,35.28,19.02,39.94c12.11,3.87,24.93-2.39,32.12-14.5
				c1.81-3.05,3.27-6.45,4.26-10.17C518.97,438.34,518.94,431.26,517.34,424.91z"/>
			<g>
				<path class="st3" d="M272.77,471.18h-1.13l-2.81-136.31c0.39,0,0.76-0.02,1.14-0.02L272.77,471.18z"/>
			</g>
			<g>
				<path class="st3" d="M272.64,539.85c-0.3,0-0.56-0.27-0.56-0.6l-0.36-48.47c0-0.34,0.25-0.62,0.56-0.63
					c0.3-0.06,0.57,0.28,0.57,0.62l0.36,48.47C273.2,539.58,272.96,539.85,272.64,539.85C272.64,539.85,272.64,539.85,272.64,539.85
					z"/>
			</g>
			<g>
				<path class="st3" d="M449.63,540.95H77.78c-0.31,0-0.56-0.28-0.56-0.61c0-0.34,0.25-0.61,0.56-0.61h371.85
					c0.31,0,0.57,0.27,0.57,0.61C450.19,540.68,449.94,540.95,449.63,540.95z"/>
			</g>
			<g>
				<path class="st3" d="M488.25,456.43L488.25,456.43c-0.49,0-1-0.06-1.51-0.16c-6.34-1.25-7.98-9.12-7.46-15.48
					c0.66-8.14,4.87-16.78,11.37-16.78c0.55,0,1.1,0.06,1.65,0.18c6.37,1.41,7.95,9.36,7.38,15.77
					C498.95,447.96,494.71,456.43,488.25,456.43z M490.65,425.24c-5.82,0-9.63,8.07-10.25,15.66c-0.47,5.84,0.95,13.06,6.55,14.16
					c0.43,0.09,0.88,0.14,1.3,0.14c5.79,0,9.63-7.91,10.31-15.35c0.53-5.89-0.84-13.21-6.48-14.44
					C491.61,425.3,491.13,425.24,490.65,425.24z"/>
			</g>
			<g>
				<path class="st3" d="M39.05,456.83C39.04,456.83,39.04,456.83,39.05,456.83c-8.52,0-12.66-9.85-13.61-18.29
					c-0.97-8.54,1.12-18.04,6.96-19.64c0.73-0.2,1.49-0.31,2.24-0.31c7.9,0,15.03,11.39,16.15,21.58c0.92,8.48-2.33,14.55-8.7,16.24
					C41.04,456.68,40.02,456.83,39.05,456.83z M34.64,419.83c-0.66,0-1.32,0.08-1.96,0.27c-5.22,1.43-7.03,10.29-6.12,18.29
					c0.96,8.56,5.2,17.21,12.48,17.21c0,0,0,0,0.01,0c0.89,0,1.81-0.13,2.76-0.38c8.32-2.21,8.26-11.16,7.86-14.91
					C48.61,430.64,41.96,419.83,34.64,419.83z"/>
			</g>
			<g>
				<path class="st3" d="M74.34,596.49c-0.03,0-0.04,0-0.07,0c-0.3-0.05-0.53-0.35-0.49-0.68c6.66-64.18,1.45-126.79,0.84-133.73
					c-1.36-15.31-4.65-25.97-6.93-31.82c2.11,13.76-1.92,33.03-15.02,39.64c-15.05,7.61-23.59,0.24-23.95-0.08
					c-0.24-0.21-0.28-0.59-0.08-0.85c0.19-0.28,0.55-0.3,0.78-0.1c0.08,0.08,8.39,7.19,22.76-0.07
					c14.52-7.34,17.43-30.93,13.06-43.95c-0.1-0.3,0.03-0.63,0.28-0.77c0.26-0.14,0.57-0.05,0.72,0.22
					c0.07,0.13,7.28,12.92,9.49,37.67c0.62,6.94,5.84,69.66-0.84,133.98C74.86,596.26,74.62,596.49,74.34,596.49z"/>
			</g>
			<g>
				<path class="st3" d="M451.31,596.49c-0.29,0-0.54-0.24-0.56-0.56c-0.04-0.49-3.75-49.81,0.03-99.51
					c3.79-49.76,9.85-64.34,10.1-64.93c0.12-0.28,0.41-0.43,0.68-0.32c0.27,0.1,0.43,0.41,0.37,0.7c-0.01,0.08-1.36,7.64,0.32,16.02
					c2.23,11.15,8.49,18.4,18.62,21.55c24.15,7.52,33.34-17.52,33.71-18.59c0.11-0.31,0.43-0.47,0.73-0.34
					c0.28,0.11,0.43,0.46,0.32,0.8c-0.09,0.27-9.92,27.15-35.07,19.32c-18.74-5.84-20.54-24.47-20.21-33.7
					c-2.08,7.69-5.84,25.38-8.45,59.6c-3.78,49.6-0.07,98.8-0.03,99.3c0.03,0.33-0.2,0.63-0.51,0.67
					C451.34,596.49,451.32,596.49,451.31,596.49z"/>
			</g>
		</g>
	</g>
	<path class="st4" d="M453.53,471.3c0.01-0.04,0.01-0.07,0.02-0.12H76.2v0.01C109.68,471.28,423.84,472.07,453.53,471.3z"/>
	<g>
		<path class="st3" d="M451.81,491.4H77.58c-0.3,0-0.56-0.28-0.56-0.62c0-0.33,0.25-0.62,0.56-0.62h374.23
			c0.31,0,0.56,0.29,0.56,0.62C452.36,491.12,452.11,491.4,451.81,491.4z"/>
	</g>
	<path class="st5" d="M584.7,606.43c0,6.67-16.44,12.32-39.03,14.17c-5.08,0.42-10.47,0.64-16.07,0.64
		c-30.43,0-55.1-6.64-55.1-14.81l0.1-6.76l0.05-1.83l1.58-95.87c0,7.91,23.89,14.34,53.37,14.34c10.46,0,20.21-0.8,28.44-2.21
		c14.98-2.54,24.92-7.02,24.92-12.13l1.56,93.91l0.03,1.75L584.7,606.43z"/>
	<path class="st6" d="M584.7,606.43c0,6.67-16.44,12.32-39.03,14.17c8-31.28,11.09-74.73,12.37-106.5
		c14.98-2.54,24.92-7.02,24.92-12.13l1.56,93.91l0.03,1.75L584.7,606.43z"/>
	<path class="st7" d="M433.29,570.18l-3.18,1.01c0,0-20.76-27.84-32.17-43.22c-11.39-15.35-27.29-33.38-35.15-51.82
		c-6.84-16.03-21.59-59.32-25.31-70.33c11.58-4.19,18.74-10.63,21.94-19.78c5.44-15.57,0.19-33.19-4.49-43.23
		c-1.75-3.75-4.02-8.59-6.17-13.16c-0.36-0.78-0.7-1.53-1.06-2.27c-1.54-3.27-2.97-6.3-4-8.5c-0.15-0.3-0.29-0.57-0.4-0.83
		c-0.43-0.93-0.78-1.67-1.02-2.17c-0.12-0.24-0.21-0.42-0.27-0.55c-0.03-0.08-0.06-0.16-0.09-0.18v-0.02
		c0.42-0.36,0.83-0.74,1.22-1.13c0.41-0.38,0.82-0.78,1.21-1.16c2.39-2.35,4.55-4.71,6.34-7.04l0.05-0.04
		c0.01,0.02,0.01,0.02,0.03,0.02c0.13,0.15,0.27,0.28,0.4,0.42c9.05,8.89,15.29,27.52,19.37,46.03v0.01
		c3.06,13.88,4.95,27.7,5.91,37.27c2.24,22.55,6.91,78.05,6.91,78.05c17.76,5.52,25.99,16.59,30.3,30.52
		c0.88,2.87,2.36,8.06,4.11,14.41C423.84,534.46,433.29,570.18,433.29,570.18z"/>
	<path class="st7" d="M305.57,487.62c11.77,16.58,8.6,36.68,2.62,58.38c-5.64,20.47-16.09,52.43-16.09,52.43l-3.5-0.8l-2.68-0.62
		c0,0-3.74-82.75-4.49-107.95c-0.66-22.51-2.51-68.34-2.65-78.47c2.69,0.66,6.84,1.21,13.18,1.29c3.94,0.05,8.72-0.07,14.54-0.46
		c3.09-0.21,6.04-0.47,8.86-0.8L305.57,487.62z"/>
	<path class="st8" d="M433.29,570.18l-3.18,1.01c0,0-20.76-27.84-32.17-43.22c-11.39-15.35-27.29-33.38-35.15-51.82
		c-6.84-16.03-21.59-59.32-25.31-70.33c11.58-4.19,18.74-10.63,21.94-19.78c5.44-15.57,0.19-33.19-4.49-43.23
		c-1.75-3.75-4.02-8.59-6.17-13.16c-0.36-0.78-0.7-1.53-1.06-2.27c-1.54-3.27-2.97-6.3-4-8.5c-0.15-0.3-0.29-0.57-0.4-0.83
		c-0.43-0.93-0.78-1.67-1.02-2.17c-0.12-0.24-0.21-0.42-0.27-0.55c-0.03-0.08-0.06-0.16-0.09-0.18v-0.02
		c0.42-0.36,0.83-0.74,1.22-1.13c0.41-0.38,0.82-0.78,1.21-1.16c2.39-2.35,4.55-4.71,6.34-7.04l0.05-0.04
		c0.01,0.02,0.01,0.02,0.03,0.02c0.13,0.15,0.27,0.28,0.4,0.42c9.05,8.89,15.29,27.52,19.37,46.03v0.01
		c-2.65,13.16-6.54,32.21-7.38,54.68c-1.12,29.91,9.43,69.65,9.43,69.65s21.71,31.6,45.18,35.93
		C423.84,534.46,433.29,570.18,433.29,570.18z"/>
	<path class="st8" d="M315.37,410.63l-9.8,77c11.77,16.58,8.6,36.68,2.62,58.38c-5.64,20.47-16.09,52.43-16.09,52.43l-3.5-0.8
		c4.04-14.52,14.38-52.18,15.93-72.72c1.96-25.82-4.36-31.96-4.36-31.96c-0.72-18.37-5.76-62.34-8.2-81.06
		c3.94,0.05,8.72-0.07,14.54-0.46C309.6,411.22,312.55,410.96,315.37,410.63z"/>
	<path class="st5" d="M354.93,212.14c0,0-3.52,4.73-5.79,10.65c-0.76,1.99-1.73,4.18-2.68,6.19c-1.87,4.02-3.65,7.4-3.65,7.4
		l-3.58-2.46l-0.64-0.44l-6.91-4.75l-0.32-0.2c-0.09,0.08-0.18,0.18-0.27,0.28c-6.95,7.43-10.77,20.95-10.77,32.06
		c0,11.28,4.68,22.12,9.54,25.83c4.16,3.15,13.12,11.41,15.61,13.7c-0.54,0.88-1.2,1.89-2,3c-3.47,4.85-9.62,11.56-19.76,17.5
		c-6.88,4.04-14.54,6.49-21.44,7.97c-0.25,0.06-0.51,0.11-0.77,0.17c-11.32,2.36-20.43,2.13-20.43,2.13
		c-0.57-2.65-5.06-22.33-6.18-36.88c-0.33-4.29-0.73-8.63-1.12-12.64c-0.81-8.16-1.6-14.87-1.81-16.61
		c-0.05-0.3-0.06-0.44-0.06-0.44c-1.15-0.41-2.23-0.82-3.25-1.26h-0.01c-4.2-1.76-7.21-3.64-9.35-5.56
		c-3.84-3.44-4.94-6.97-5.14-9.99c-0.38-5.12,6.73-18.85,9.07-26.42c1.79-5.77,4.05-17.88,5.53-24.21c0.46-1.96,0.84-3.37,1.11-3.85
		c0.55-1.03,2.38-2.82,4.38-4.78c0.39-0.38,0.79-0.78,1.18-1.15c1.65-1.63,3.27-3.28,4.34-4.68c0.09,0.35,0.15,0.71,0.18,1.09
		c0.23,2.34,0.59,8.75,1.33,14.02c0.52,3.63,1.22,6.72,2.19,7.53c0.03,0.02,0.04,0.03,0.04,0.03c0.09,0.09,0.18,0.12,0.27,0.14
		c0.17,0.03,0.31-0.02,0.46-0.14c0,0,0.08-0.06,0.21-0.18c0.06-0.08,0.14-0.17,0.19-0.27c0.9-1.37,1.76-4.99,2.8-8.73
		c0.35-1.25,0.72-2.52,1.13-3.72c2.04-6.16,6.16-14.36,5.98-15.57c0,0,0.87,0.01,2.26,0.06c3.41,0.1,9.95,0.31,14.62,0.68
		c1.92,0.17,3.5,0.34,4.43,0.55c4.13,0.88,8.61,4.63,16.84,11.81c5.31,4.62,13.01,12.48,17.83,17.48c0.19,0.19,0.38,0.37,0.54,0.55
		C353.41,210.52,354.93,212.14,354.93,212.14z"/>
	<g>
		<path class="st9" d="M279.94,183.78c0.23,2.34,0.59,8.75,1.33,14.02c-5.8,1.06-9.8,0.47-12.52-0.67c0.46-1.96,0.84-3.37,1.11-3.85
			c0.55-1.03,2.38-2.82,4.38-4.78c0.39-0.38,0.79-0.78,1.18-1.15c1.65-1.63,3.27-3.28,4.34-4.68
			C279.85,183.04,279.91,183.4,279.94,183.78z"/>
		<path class="st9" d="M311.42,177.66c-4.13,5.42-12.68,14.57-23.98,18.53c0.35-1.25,0.72-2.52,1.13-3.72
			c2.04-6.16,6.16-14.36,5.98-15.57c0,0,0.87,0.01,2.26,0.06C300.21,177.08,306.75,177.28,311.42,177.66z"/>
	</g>
	<path class="st9" d="M329.88,286.7c4.16,3.15,13.12,11.41,15.61,13.7c-0.54,0.88-1.2,1.89-2,3c-7.14-5.52-22.61-18.16-25.72-26.13
		c-4.08-10.44-1.7-20.88-1.7-20.88c-6.9,4.71-15.88,1.63-15.88,1.63c15.34-2.45,21.51-9.16,21.74-22.32
		c0.22-13.15-2.68-18.63-2.68-18.63s-3.19-3.91,4.4-1.86c6.57,1.77,17.42,9.26,22.85,13.78c-1.87,4.02-3.65,7.4-3.65,7.4l-3.58-2.46
		l-0.64-0.44l-6.91-4.75l-0.32-0.2c-0.09,0.08-0.18,0.18-0.27,0.28c-6.95,7.43-10.77,20.95-10.77,32.06
		C320.33,272.15,325.01,282.99,329.88,286.7z"/>
	<path class="st10" d="M288.16,153.21c0.25-4.67-0.04-8.14-0.04-8.14c11.55-10.33,3.65-23.62,0-22.56
		c-3.66,1.06-3.49,8.22-3.49,8.22s0,0-4.99-9.28c-1.27-2.35-3.16-4.08-5.38-5.26c-6.58-3.52-16.11-2.41-21.56,1.05
		c-7.31,4.64-15.4,14.34-16.55,20.67c-3.27-0.7-9.01-5.08-10.8-13.08c-2.11-9.48,5.21-27.39,15.22-32.89
		c9.8-5.34,23.98-0.22,24.57-0.01c-0.34-0.43-5.24-6.52,0.01-6.74c4.79-0.18,18.05,8.4,21.22,10.52c0.45,0.28,0.69,0.44,0.69,0.44
		s12.8,13.09,15.69,26.59C305.62,136.23,302.26,155.22,288.16,153.21z"/>
	<path class="st11" d="M288.16,153.21c0.25-4.67-0.04-8.14-0.04-8.14c11.55-10.33,3.65-23.62,0-22.56
		c-3.66,1.06-3.49,8.22-3.49,8.22s0,0-4.99-9.28c-1.27-2.35-3.16-4.08-5.38-5.26c16.42-1.72,14.4-8.79,12.1-20.49
		c0.45,0.28,0.69,0.44,0.69,0.44s12.8,13.09,15.69,26.59C305.62,136.23,302.26,155.22,288.16,153.21z"/>
	<path class="st10" d="M338.35,127.57c-0.96,9.91-6.16,19.4-14.04,22.35c0,0,3.08-9.46,0.95-14.33c-1.65-3.78-2.7-3.37-8.47-2.33
		c-5.77,1.05-9.62-1.04-10.96-9.69c-1.31-8.35-3.71-22.56-13.39-25.62c1.63-5.32,0.13-10.2-3.25-10.57c0.34-2.31,1.23-5.8,3.05-9.05
		c2.48-4.44,6.7-8.44,13.6-8.34c12.5,0.21,16.36,9.08,18.28,19.19c1.77,9.34-2.17,20.82-2.8,22.56c0.43-0.92,2.33-4.47,6.85-3.36
		c4.33,1.04,9.19,6.79,10.13,14.42c0,0,0,0,0,0.01C338.47,124.35,338.5,125.94,338.35,127.57z"/>
	<path class="st11" d="M338.35,127.57c-0.96,9.91-6.16,19.4-14.04,22.35c0,0,3.08-9.46,0.95-14.33c-1.65-3.78-2.7-3.37-8.47-2.33
		c-5.77,1.05-9.62-1.04-10.96-9.69c-1.31-8.35-3.71-22.56-13.39-25.62c1.63-5.32,0.13-10.2-3.25-10.57c0.34-2.31,1.23-5.8,3.05-9.05
		c11.95-2.7,22.11-0.9,25.51,10.33c4.05,13.37-1.13,26.47,0.97,26.89c1.82,0.37,15.07-7.79,19.58,7.25c0,0,0,0,0,0.01
		C338.47,124.35,338.5,125.94,338.35,127.57z"/>
	<path class="st12" d="M288.11,145.07c0,0,0.14,1.72,0.14,4.36c0,1.12-0.02,2.4-0.1,3.78c-0.3,5.92-1.48,13.78-5.25,18.84
		c-0.06,0.08-0.12,0.18-0.19,0.24c-1.38,1.86-2.77,3.48-4.2,4.92c-5.44,5.43-11.44,7.68-20.06,6.03
		c-10.97-2.11-15.97-11.38-18.09-23.84c-2.12-12.42-4.25-21.47-4.25-21.47c0.02-0.02,0.02-0.02,0.02-0.02
		c1.15-6.33,9.24-16.03,16.55-20.67c5.1-3.23,13.78-4.42,20.26-1.66c2.8,1.18,5.19,3.09,6.69,5.88c4.99,9.28,4.99,9.28,4.99,9.28
		s-0.18-7.16,3.49-8.22C291.76,121.45,299.66,134.74,288.11,145.07z"/>
	<path class="st13" d="M288.11,145.07c0,0,0.14,1.72,0.14,4.36c0,1.12-0.02,2.4-0.1,3.78c-0.3,5.92-1.48,13.78-5.25,18.84
		c-0.06,0.08-0.12,0.18-0.19,0.24c5.24-26.8-4.52-47.84-9.77-56.72c2.8,1.18,5.19,3.09,6.69,5.88c4.99,9.28,4.99,9.28,4.99,9.28
		s-0.18-7.16,3.49-8.22C291.76,121.45,299.66,134.74,288.11,145.07z"/>
	<path class="st14" d="M289.17,87.39c-0.05,0-0.09-0.02-0.14-0.02c-4.14-0.29-3.29,7.91-3.29,7.91c2.74,1.76,5.46,5.65,5.46,5.65
		c0.53-0.99,0.92-2,1.23-2.98C294.07,92.64,292.57,87.76,289.17,87.39z"/>
	<path class="st12" d="M365,322.58c0.14-0.41,0.22-0.67,0.22-0.67S365.13,322.18,365,322.58z"/>
	<path class="st10" d="M260.96,137.49c0,0-0.95-5.69,3.38-6.33c4.33-0.63,10.48,3.16,10.48,3.16S263.27,133.9,260.96,137.49z"/>
	<path class="st10" d="M248.43,140.16c0,0-3.02-2.5-6.41,0c-3.4,2.52-3.02,7.34-3.02,7.34s2.45-2.49,5.28-4.22
		C247.11,141.53,248.43,140.16,248.43,140.16z"/>
	<path class="st14" d="M341.88,315.16c3.4-3.08,6.41-6.26,8.82-9.35l-8.84,9.36C341.87,315.17,341.87,315.17,341.88,315.16z"/>
	<g>
		<path class="st15" d="M354.93,342.81c-1.75-3.75-4.02-8.59-6.17-13.16c-0.36-0.78-0.72-1.53-1.06-2.27c-1.54-3.27-2.97-6.3-4-8.5
			c-0.15-0.3-0.29-0.57-0.4-0.83c-0.43-0.93-0.78-1.67-1.02-2.17c-0.12-0.24-0.21-0.42-0.27-0.55c-0.05-0.08-0.08-0.16-0.09-0.18
			v-0.02l7.86-8.37l0.91-0.96l-0.09-0.1l-5.11-5.31c-2.89,4.76-9.32,13.19-21.77,20.49c-18.52,10.87-42.64,10.26-42.64,10.26v5.72
			c0,0.03-0.02,0.08-0.02,0.12c-0.03,0.19-0.07,0.47-0.12,0.82c-1.08,8.59-7.17,63.91-7.17,70.33c0,0,0.54,1.36,5.01,2.45
			c4.38,1.06,12.55,1.86,27.72,0.83c3.09-0.21,6.04-0.47,8.86-0.8c8.66-1.02,16.01-2.59,22.11-4.81
			c11.58-4.19,18.74-10.63,21.94-19.78C364.86,370.47,359.62,352.85,354.93,342.81z M341.84,315.17l0.03-0.01
			c-0.02,0.01-0.03,0.03-0.05,0.05L341.84,315.17z"/>
		<path class="st14" d="M345.59,300.22c0.01-0.02,0.03-0.05,0.03-0.06C345.62,300.19,345.6,300.2,345.59,300.22z"/>
		<path class="st14" d="M350.76,305.79c-0.21,0.3-0.42,0.55-0.08,0.02C351.14,305.23,350.96,305.53,350.76,305.79z"/>
	</g>
	<path class="st14" d="M341.83,315.21c0.02-0.02,0.03-0.03,0.05-0.05c-0.01,0.01-0.01,0.01-0.03,0.02L341.83,315.21z"/>
	<path class="st15" d="M292.1,598.44c0,0-5.88-3.49-13.31-1.84c-7.44,1.63-15.11,9.83-15.11,9.83h28.43V598.44z"/>
	<path class="st15" d="M429.63,570.55c0.48,0.64-1.57,22.09-3.45,25.61c-1.87,3.51-8.6,6.15-8.97,7.69
		c-0.38,1.55,12.53,2.96,16.08,0c3.55-2.95,11.04-23.84,11.04-23.84l-11.52-12.05L429.63,570.55z"/>
	<path class="st15" d="M283.46,205.34c-0.63-0.45-6.88-4.89-11.55-2.56c0,0,1.17-8.91,3.52-15.41c1.65-1.63,3.27-3.28,4.34-4.68
		c0.09,0.35,0.15,0.71,0.18,1.09C280.33,187.73,281.06,203.32,283.46,205.34z"/>
	<path class="st15" d="M302.2,195.54c-6.76,0.38-16.26,8.36-17.76,9.65c1.28-1.49,2.43-7.73,4.12-12.71
		c2.04-6.16,6.16-14.36,5.98-15.57c0,0,0.87,0.01,2.26,0.06L302.2,195.54z"/>
	<g>
		<path class="st16" d="M288.49,137.89c-0.11,0-0.22-0.06-0.3-0.18c-2.9-4.4-1.32-9.76-0.11-12.56l0.06-0.15
			c0.08-0.2,0.29-0.31,0.48-0.23c0.19,0.07,0.29,0.3,0.23,0.51c-0.01,0.03-0.04,0.1-0.09,0.22c-1.14,2.64-2.63,7.66,0.04,11.73
			c0.12,0.19,0.09,0.44-0.09,0.58C288.65,137.87,288.57,137.89,288.49,137.89z"/>
	</g>
	<g>
		<path class="st16" d="M287.55,134.2c-0.15,0-0.3-0.1-0.35-0.28c-0.08-0.21,0.03-0.44,0.22-0.52c0.07-0.03,1.6-0.66,1.38-2.02
			c-0.07-0.45-0.27-0.55-0.32-0.58c-0.39-0.22-1.1,0.07-1.31,0.19c-0.19,0.1-0.41,0.03-0.51-0.18c-0.09-0.2-0.02-0.45,0.16-0.55
			c0.12-0.06,1.19-0.63,1.99-0.19c0.27,0.15,0.61,0.47,0.73,1.18c0.26,1.65-1.11,2.63-1.86,2.94
			C287.63,134.2,287.59,134.2,287.55,134.2z"/>
	</g>
	<g>
		<g>
			<path class="st17" d="M235.64,129.37c-0.19,0-0.36-0.18-0.38-0.39c-0.02-0.27-0.48-6.42,1.24-8.54c0.15-0.18,0.39-0.19,0.55-0.04
				c0.16,0.16,0.17,0.43,0.03,0.6c-1.25,1.53-1.19,6.22-1.06,7.9c0.02,0.23-0.14,0.44-0.35,0.46
				C235.67,129.37,235.66,129.37,235.64,129.37z"/>
		</g>
		<g>
			<path class="st17" d="M242.97,106.7c-0.05,0-0.12-0.02-0.17-0.06c-0.19-0.1-0.27-0.35-0.17-0.55c0.22-0.51,3.86-6.07,6.17-7.05
				c0.19-0.08,0.42,0.02,0.5,0.23c0.08,0.21-0.02,0.46-0.22,0.55c-2.07,0.89-5.54,6.18-5.76,6.66
				C243.24,106.61,243.11,106.7,242.97,106.7z"/>
		</g>
		<g>
			<path class="st17" d="M271.65,107.22c-0.09,0-0.18-0.02-0.25-0.08c-3.78-3.44-13.96-2.35-14.06-2.34
				c-0.21,0.03-0.4-0.15-0.42-0.38c-0.03-0.22,0.13-0.43,0.35-0.46c0.43-0.05,10.6-1.14,14.63,2.51c0.16,0.16,0.19,0.42,0.05,0.6
				C271.87,107.18,271.76,107.22,271.65,107.22z"/>
		</g>
		<g>
			<path class="st17" d="M277.71,105.93c-0.13,0-0.26-0.07-0.33-0.2c-1.38-2.58-5.44-5.93-5.48-5.95c-0.17-0.15-0.2-0.41-0.08-0.6
				c0.14-0.18,0.37-0.22,0.54-0.08c0.17,0.14,4.22,3.49,5.68,6.2c0.11,0.19,0.04,0.45-0.14,0.57
				C277.84,105.91,277.78,105.93,277.71,105.93z"/>
		</g>
		<g>
			<path class="st17" d="M231.9,129.37c-0.1,0-0.2-0.05-0.28-0.13c-2.56-2.91-1.27-10.62-1-11.07c0.12-0.19,0.35-0.24,0.54-0.12
				c0.16,0.13,0.22,0.36,0.12,0.56c-0.26,0.72-1.23,7.62,0.9,10.05c0.14,0.16,0.14,0.43-0.01,0.59
				C232.09,129.32,231.99,129.37,231.9,129.37z"/>
		</g>
	</g>
	<g>
		<g>
			<path class="st14" d="M314.86,98.16c-0.18,0-0.33-0.13-0.37-0.32c-0.03-0.12-2.63-11.61-9.66-14.14
				c-6.87-2.47-8.55,2.43-8.56,2.48c-0.07,0.23-0.29,0.34-0.5,0.27c-0.19-0.08-0.3-0.31-0.23-0.55c0.02-0.06,1.95-5.73,9.53-3
				c7.44,2.67,10.06,14.26,10.17,14.74c0.05,0.23-0.08,0.45-0.29,0.52C314.92,98.16,314.89,98.16,314.86,98.16z"/>
		</g>
		<g>
			<path class="st14" d="M318.33,92.04h-0.01c-0.21,0-0.38-0.2-0.37-0.43c0.19-5.6-3.37-12.04-3.41-12.1
				c-0.11-0.19-0.05-0.45,0.13-0.57c0.19-0.13,0.42-0.06,0.53,0.14c0.15,0.27,3.71,6.7,3.52,12.57
				C318.7,91.86,318.53,92.04,318.33,92.04z"/>
		</g>
		<g>
			<path class="st14" d="M295.9,93.31c-0.06,0-0.12-0.02-0.18-0.05c-0.19-0.11-0.27-0.36-0.16-0.56c0.08-0.18,1.97-4.14,4.49-4.02
				c0.22,0.01,0.38,0.2,0.37,0.43c-0.01,0.24-0.22,0.38-0.4,0.4c-1.69-0.09-3.3,2.55-3.78,3.58
				C296.18,93.22,296.04,93.31,295.9,93.31z"/>
		</g>
		<g>
			<path class="st14" d="M309.28,113.88c-0.19,0-0.36-0.17-0.38-0.37c-0.65-5.47-7.05-11.44-9-13.14c-0.08-0.07-0.12-0.11-0.13-0.12
				c-0.15-0.17-0.15-0.43,0-0.59c0.14-0.17,0.37-0.18,0.52-0.02l0.08,0.07c2,1.74,8.59,7.89,9.28,13.68
				c0.03,0.23-0.12,0.44-0.33,0.47C309.32,113.88,309.3,113.88,309.28,113.88z"/>
		</g>
		<g>
			<path class="st14" d="M330.84,137.91c-0.01,0-0.03,0-0.05-0.01c-0.21-0.03-0.35-0.25-0.33-0.48c0.56-4.39-3.27-13.4-3.82-13.95
				c-0.16-0.17-0.17-0.43-0.03-0.6c0.14-0.17,0.37-0.19,0.54-0.05c0.87,0.82,4.66,10.1,4.07,14.72
				C331.2,137.75,331.03,137.91,330.84,137.91z"/>
		</g>
		<g>
			<path class="st14" d="M334.02,132.48c-0.01,0-0.03,0-0.04-0.01c-0.21-0.03-0.36-0.23-0.35-0.46c0.35-3.45-0.5-6.85-2.5-10.09
				c-0.07-0.11-0.12-0.18-0.14-0.24c-0.11-0.19-0.05-0.45,0.13-0.57c0.19-0.12,0.42-0.06,0.52,0.15c0.03,0.04,0.07,0.1,0.12,0.19
				c2.62,4.26,2.88,8.14,2.63,10.66C334.38,132.32,334.21,132.48,334.02,132.48z"/>
		</g>
	</g>
	<path class="st18" d="M259.61,171.86c0,0,11.36-6.02,13.67-10.23c0,0,0.48,7.59-3.66,12.66
		C265.49,179.34,259.61,171.86,259.61,171.86z"/>
	<g>
		<path class="st16" d="M252.51,166.56c-1.67,0-3.12-0.51-3.21-0.54c-0.19-0.06-0.3-0.29-0.25-0.5c0.01-0.04,0.97-4.04,1.73-8.62
			c0.75-4.53,0.69-7.22-1.66-10.31c-0.13-0.17-0.1-0.43,0.05-0.57c0.16-0.15,0.4-0.13,0.53,0.05c2.52,3.32,2.59,6.3,1.81,10.98
			c-0.62,3.78-1.38,7.16-1.65,8.28c0.87,0.26,3.23,0.79,4.97-0.07c2.13-1.07,2.7-2.61,2.7-2.63c0.07-0.21,0.29-0.31,0.49-0.24
			c0.19,0.08,0.29,0.31,0.22,0.53c-0.03,0.08-0.66,1.86-3.09,3.08C254.31,166.41,253.38,166.56,252.51,166.56z"/>
	</g>
	<g>
		<path class="st17" d="M302.28,328.86c-0.25,0.06-0.51,0.11-0.77,0.17c-3.51-8.14-9.66-31.71-12.26-42.71
			c-1.84-7.8-3.8-14.1-5.54-19.67c-1.43-4.63-2.68-8.63-3.56-12.52c-1.96-8.51-0.91-15.05,0.4-23.33l0.33-2.14
			c0.87-5.54,1.45-10.8,1.96-15.43c0.33-2.97,0.63-5.63,0.93-7.72c0.17,0.03,0.31-0.02,0.46-0.14c0,0,0.08-0.06,0.21-0.18
			c0.06-0.08,0.14-0.17,0.19-0.27c-0.36,2.17-0.67,5.1-1.05,8.39c-0.51,4.65-1.09,9.94-1.96,15.48l-0.35,2.14
			c-1.3,8.19-2.33,14.65-0.42,23.01c0.88,3.86,2.12,7.83,3.54,12.43c1.73,5.58,3.71,11.92,5.56,19.73
			C292.9,298.42,298.99,321.39,302.28,328.86z"/>
	</g>
	<g>
		<path class="st17" d="M301.5,258.08c-0.79,0-1.26-0.06-1.33-0.06c-0.21-0.03-0.35-0.22-0.33-0.45c0.03-0.22,0.21-0.39,0.41-0.36
			c0.07,0.01,7.18,0.8,13.7-4.36c6.49-5.14,8.06-10.95,8.7-15.44c0.03-0.22,0.21-0.37,0.43-0.34c0.2,0.03,0.34,0.25,0.31,0.47
			c-0.66,4.65-2.28,10.65-9,15.96C309.27,257.55,303.93,258.08,301.5,258.08z"/>
	</g>
	<g>
		<path class="st17" d="M274.27,265.36c-0.87,0-2.67-0.21-5.44-1.49c-0.19-0.09-0.28-0.33-0.2-0.54c0.08-0.21,0.3-0.31,0.49-0.22
			c3.77,1.74,5.61,1.4,5.63,1.39c0.19-0.05,0.39,0.1,0.43,0.32c0.04,0.23-0.09,0.44-0.3,0.48
			C274.87,265.32,274.67,265.36,274.27,265.36z"/>
	</g>
	<g>
		<path class="st17" d="M331.69,228.74l-0.32-0.2c-0.09,0.08-0.18,0.18-0.27,0.28l-9.09-8.66c-0.15-0.14-0.16-0.41-0.03-0.56
			c0.13-0.18,0.38-0.2,0.52-0.04l9.1,8.66C331.77,228.35,331.79,228.57,331.69,228.74z"/>
	</g>
	<g>
		<path class="st17" d="M351.06,208.06c-9.12,9.74-11.73,25.57-11.76,25.73c-0.01,0.05-0.03,0.12-0.06,0.15l-0.64-0.44
			c0.3-1.68,3.13-16.58,11.92-25.99C350.7,207.7,350.9,207.87,351.06,208.06z"/>
	</g>
	<g>
		<path class="st19" d="M351.17,306.2c-2.28,3.11-5.34,6.42-8.89,9.67c-3.66,3.36-7.87,6.69-12.31,9.67
			c-0.21,0.18-0.44,0.32-0.66,0.46c-6.15,4.09-12.74,7.52-19.03,9.54c-0.24,0.1-0.48,0.18-0.73,0.25c-1.06,0.33-2.11,0.62-3.14,0.86
			c-6.16,1.48-11.58,1.96-16.02,1.96c-0.54,0-1.06,0-1.57-0.02c-0.25-0.02-0.51-0.02-0.75-0.04c-2.94-0.11-5.34-0.43-7.12-0.74
			c0.05-0.35,0.09-0.63,0.12-0.82c4.6,0.82,13.51,1.63,25.19-1.14c1.08-0.27,2.17-0.55,3.28-0.91c0.12-0.05,0.24-0.08,0.36-0.11
			h0.02c11.02-3.57,23.05-11.45,31.92-19.63c0.03-0.02,0.06-0.04,0.09-0.06v-0.02c0.42-0.36,0.83-0.74,1.22-1.13
			c0.41-0.38,0.82-0.78,1.21-1.16c2.06-2.07,3.89-4.1,5.43-6.07c0.28-0.36,0.55-0.71,0.82-1.06l0.09,0.1
			c0.45-0.57,0.27-0.28,0.08-0.02C350.9,305.94,351.03,306.06,351.17,306.2z"/>
	</g>
	<g>
		<path class="st19" d="M285.5,357.91c-0.03,0-0.05-0.01-0.07-0.01c-0.21-0.05-0.34-0.25-0.3-0.48c0.62-3.78,2.97-19.12,2.99-19.27
			c0.04-0.22,0.23-0.38,0.43-0.33c0.21,0.03,0.35,0.25,0.31,0.47c-0.03,0.16-2.38,15.5-3,19.28
			C285.83,357.76,285.68,357.91,285.5,357.91z"/>
	</g>
	<g>
		<path class="st19" d="M313.3,357.91c-0.2,0-0.37-0.19-0.38-0.4c-0.25-8.73-3.45-22.03-3.48-22.17c-0.05-0.21,0.07-0.44,0.27-0.5
			c0.21-0.07,0.41,0.06,0.46,0.29c0.03,0.13,3.25,13.53,3.5,22.35C313.68,357.7,313.51,357.9,313.3,357.91
			C313.3,357.91,313.3,357.91,313.3,357.91z"/>
	</g>
	<g>
		<path class="st19" d="M339.6,357.08c-0.14,0-0.27-0.09-0.34-0.23c-0.03-0.08-3.41-7.89-6.61-15.72
			c-3.23-7.9-3.34-15.23-3.34-15.29c0-0.24,0.16-0.42,0.37-0.42h0.01c0.2,0,0.37,0.18,0.37,0.41c0,0.06,0.11,7.22,3.27,14.97
			c3.2,7.82,6.57,15.61,6.6,15.7c0.09,0.2,0.01,0.45-0.18,0.54C339.71,357.07,339.66,357.08,339.6,357.08z"/>
	</g>
	<path class="st20" d="M246.7,152.57c0.82,2.63,0.56,5.13-0.6,5.57c-1.16,0.43-2.76-1.35-3.59-3.99c-0.83-2.63-0.55-5.12,0.61-5.56
		C244.28,148.15,245.88,149.94,246.7,152.57z"/>
	<path class="st20" d="M267.23,143.89c0.83,2.63,0.56,5.13-0.6,5.56c-1.16,0.43-2.76-1.35-3.58-3.98c-0.83-2.63-0.56-5.12,0.6-5.56
		C264.8,139.46,266.41,141.25,267.23,143.89z"/>
	<g>
		<path class="st12" d="M273.78,281.63v3.21c0,0-5.98,14.97-10.85,24.17c-4.86,9.21-16.45,17.61-16.45,17.61
			c-2.98,3.65-6.1,7.46-7.72,6.43c-0.12-0.07-0.2-0.17-0.31-0.28c-1.49-1.84,1.68-6.55,1.68-6.55l-5.24,2.64
			c0,0-0.74,7.38-2.62,6.78c-1.87-0.6-1.49-9.84,0-12.5c1.49-2.66,8.79-4.93,8.79-4.93s4.49-10.44,9.54-24.77
			c5.06-14.34,8.22-35.85,8.22-35.85l0.48,0.17c2.23,1.98,5.36,3.95,9.82,5.75c0.88,0.36,1.81,0.72,2.8,1.06
			C271.91,264.58,272.83,272.12,273.78,281.63z"/>
		<path class="st13" d="M273.78,281.63v3.21c0,0-5.98,14.97-10.85,24.17c-4.86,9.21-16.45,17.61-16.45,17.61
			c-2.98,3.65-6.1,7.46-7.72,6.43c2.03-2.4,4.92-5.89,6.42-7.64c2.42-2.84,18.88-27.06,21.3-36.69c1.66-6.52,2.36-18.33,2.63-25.22
			c0.88,0.36,1.81,0.72,2.8,1.06C271.91,264.58,272.83,272.12,273.78,281.63z"/>
	</g>
	<g>
		<path class="st21" d="M474.89,548.05c-25.35,0-40.87-51.97-53.87-108.36c-12.55-54.48-32.04-85.2-63.61-122.84
			c-30.46-36.31-50.44-33.62-73.41-26.33c-21.56,6.85-37.49,35.86-39.05,39.76c-0.51,2.11-2.26,3.66-4.34,3.66
			c-2.48,0-4.49-2.2-4.49-4.92c0-5.21,19.94-39.86,45.38-47.94c25.1-7.98,48.63-11.29,82.52,29.11
			c32.57,38.84,52.69,70.59,65.7,127.08c7,30.38,23.26,100.94,45.2,100.94c0.32,0,0.62-0.02,0.94-0.04c2.5-0.26,4.64,1.78,4.84,4.48
			c0.21,2.7-1.63,5.08-4.1,5.31C476.04,548.03,475.46,548.05,474.89,548.05z"/>
	</g>
	<g>
		<path class="st12" d="M294.54,176.91c0.18,1.21-3.94,9.41-5.98,15.57c-2.07,6.12-3.34,14.21-5.06,12.89
			c-2.42-1.85-3.17-17.61-3.56-21.59c-0.03-0.38-0.09-0.74-0.18-1.09c-0.13-0.57-0.31-1.12-0.56-1.65
			c-0.61-1.51-1.52-2.78-2.21-3.63c1.45-1.46,2.86-3.12,4.26-5.02c3.67-4.91,4.81-12.55,5.11-18.29c1.69,3.37,3.53,8.31,5.06,12.76
			C293.15,171.95,294.45,176.36,294.54,176.91z"/>
		<path class="st13" d="M291.41,166.85c-3.68,7.33-9.17,11.93-12.21,14.19c-0.61-1.51-1.52-2.78-2.21-3.63
			c1.45-1.46,2.86-3.12,4.26-5.02c3.67-4.91,4.81-12.55,5.11-18.29C288.05,157.46,289.89,162.4,291.41,166.85z"/>
	</g>
	<g>
		<g>
			<path class="st12" d="M376.08,316.39c1.3,8.38-1.32,13.93-2.99,13.93c-1,0-0.81-2.19-0.49-3.94v-0.02
				c0.19-1.06,0.43-1.97,0.48-2.16c-0.05,0.09-0.17,0.33-0.35,0.69c-0.01,0.02-0.01,0.04-0.01,0.04c-0.96,1.86-3.52,6.54-4.87,6.2
				c-0.87-0.2-0.85-1.54-0.61-2.78c0,0,0,0,0-0.02c0.14-0.89,0.41-1.72,0.53-2.11c-0.12,0.28-0.35,0.78-0.64,1.38
				c-0.02,0.01-0.03,0.03-0.03,0.06c-0.75,1.44-1.89,3.21-2.82,2.45c-0.6-0.49-0.57-1.89-0.31-3.39c0.23-1.44,0.66-2.97,0.96-3.89
				c-0.09,0.24-0.19,0.52-0.31,0.82c-0.69,1.7-1.8,3.91-2.76,2.97c-1.49-1.45,1.11-14.52,1.11-14.52s-4.48,3.67-6.17,1.2
				c-0.25-0.37-0.31-0.84-0.22-1.37c0.51-2.92,5.4-7.59,5.09-8.46c-0.37-1.02-1.69-22.73-4.49-37.48
				c-2.79-14.74-1.69-18.43-1.87-19.26c-0.16-0.72-10.3-7.54-12.49-10.35c0,0,1.83-3.48,3.73-7.57c0.93-1.99,1.86-4.1,2.6-6.03
				c2.27-5.92,5.79-10.65,5.79-10.65c6.54,5.73,18.51,21.69,18.51,21.69s2.63,3.49,2.98,17.01c0.36,13.52-3.34,51.62-3.34,51.62
				S374.76,308.01,376.08,316.39z"/>
			<path class="st13" d="M363.16,282.6c0,16.78-1.43,22.88-1.43,22.88s-1.81,2.9-5.15,6.45c0.51-2.92,5.4-7.59,5.09-8.46
				c-0.37-1.02-1.69-22.73-4.49-37.48c-2.79-14.74-1.69-18.43-1.87-19.26c-0.16-0.72-10.3-7.54-12.49-10.35c0,0,1.83-3.48,3.73-7.57
				c6.75,6.38,10.38,13.31,11.76,16.92C359.79,249.62,363.16,265.79,363.16,282.6z"/>
		</g>
		<g>
			<path class="st17" d="M363.97,326.73c0.23-1.44,0.66-2.97,0.96-3.89c-0.09,0.24-0.19,0.52-0.31,0.82
				c0.51-1.95,0.79-4.28,0.88-6.98c0.02-0.1,0.09-0.18,0.19-0.18c0.1,0.02,0.19,0.1,0.18,0.21
				C365.74,320.95,365.09,324.32,363.97,326.73z"/>
		</g>
		<g>
			<path class="st17" d="M367.24,328.33c0.14-0.89,0.41-1.72,0.53-2.11c-0.12,0.28-0.35,0.78-0.64,1.38
				c0.67-1.79,1.45-4.33,2.13-7.67c0.02-0.12,0.11-0.18,0.21-0.15c0.1,0.02,0.16,0.13,0.14,0.22
				C368.85,323.8,367.97,326.52,367.24,328.33z"/>
		</g>
		<g>
			<path class="st17" d="M372.59,326.37c0.19-1.06,0.43-1.97,0.48-2.16c-0.05,0.09-0.17,0.33-0.35,0.69
				c0.76-2.31,1.16-4.34,1.2-6.05c0-0.11,0.06-0.21,0.19-0.19c0.09,0,0.18,0.08,0.18,0.19
				C374.25,320.93,373.69,323.45,372.59,326.37z"/>
		</g>
	</g>
	<ellipse class="st22" cx="529.6" cy="501.97" rx="53.36" ry="14.34"/>
	<path class="st5" d="M529.6,493.19c-18.04,0-32.67,3.94-32.67,8.78c0,4.84,14.63,8.77,32.67,8.77c18.04,0,32.67-3.93,32.67-8.77
		C562.27,497.13,547.64,493.19,529.6,493.19z"/>
	<path class="st14" d="M478.42,616.9c1.35-5.2,5.88-8.34,10.12-7.02c4.23,1.31,6.57,6.6,5.22,11.8c-1.35,5.2-5.88,8.34-10.11,7.03
		C479.41,627.39,477.07,622.1,478.42,616.9z"/>
	<path class="st23" d="M485.62,624.09c-0.25,0-0.5-0.04-0.74-0.12c-1.08-0.33-1.66-1.31-1.9-1.86c-0.5-1.14-0.59-2.51-0.24-3.86
		c0.64-2.47,2.41-3.75,3.83-3.75c0.25,0,0.5,0.04,0.74,0.11c1.08,0.33,1.65,1.32,1.9,1.87c0.51,1.14,0.59,2.51,0.24,3.86
		C488.81,622.79,487.03,624.09,485.62,624.09z"/>
	<g>
		<path class="st24" d="M584.55,597.63c-9.5,4.54-28.61,11.87-54.92,13.17c-2.18,0.1-4.32,0.15-6.4,0.15
			c-16.9,0-29.78-3.36-37.91-6.39c-4.63-1.7-8.19-3.48-10.72-4.89l0.05-1.83c7.49,4.28,26.22,12.74,54.92,11.32
			c26.66-1.33,45.81-8.85,54.95-13.28L584.55,597.63z"/>
	</g>
	<g>
		<g>
			<path class="st24" d="M562.01,529.23c-0.95,0-1.56-0.02-1.67-0.02c-0.31-0.01-0.55-0.29-0.55-0.63c0.01-0.33,0.29-0.63,0.57-0.6
				c0.12,0,11.93,0.25,16.76-1.6c0.29-0.12,0.61,0.05,0.71,0.38c0.11,0.31-0.05,0.67-0.34,0.77
				C573.55,529.05,565.51,529.23,562.01,529.23z"/>
		</g>
		<g>
			<path class="st24" d="M562.03,535.31c-0.96,0-1.58-0.01-1.69-0.01c-0.31-0.01-0.55-0.3-0.55-0.63c0.01-0.34,0.23-0.58,0.57-0.6
				c0.12,0,11.93,0.25,16.76-1.61c0.29-0.12,0.61,0.06,0.71,0.38c0.11,0.31-0.05,0.67-0.34,0.79
				C573.55,535.13,565.54,535.31,562.03,535.31z"/>
		</g>
		<g>
			<path class="st24" d="M562.03,541.52c-0.96,0-1.58-0.02-1.69-0.02c-0.31-0.01-0.55-0.29-0.55-0.64c0.01-0.33,0.23-0.58,0.57-0.59
				c0.12,0,11.93,0.25,16.76-1.61c0.29-0.11,0.61,0.06,0.71,0.38c0.11,0.32-0.05,0.67-0.34,0.78
				C573.55,541.33,565.54,541.52,562.03,541.52z"/>
		</g>
		<g>
			<path class="st24" d="M562.01,547.61c-0.95,0-1.56-0.01-1.67-0.01c-0.31-0.01-0.55-0.29-0.55-0.63c0.01-0.33,0.29-0.58,0.57-0.6
				c0.12,0.01,11.93,0.25,16.76-1.6c0.29-0.12,0.61,0.06,0.71,0.37c0.11,0.32-0.05,0.67-0.34,0.79
				C573.55,547.44,565.51,547.61,562.01,547.61z"/>
		</g>
		<g>
			<path class="st24" d="M562.03,553.77c-0.96,0-1.58-0.01-1.69-0.02c-0.31-0.01-0.55-0.3-0.55-0.63c0.01-0.34,0.23-0.57,0.57-0.6
				c0.12,0,11.93,0.25,16.76-1.61c0.29-0.1,0.61,0.06,0.71,0.38c0.11,0.31-0.05,0.67-0.34,0.79
				C573.55,553.59,565.54,553.77,562.03,553.77z"/>
		</g>
		<g>
			<path class="st24" d="M562.03,559.32c-0.96,0-1.58-0.01-1.69-0.02c-0.31,0-0.55-0.3-0.55-0.63c0.01-0.34,0.23-0.62,0.57-0.6
				c0.12,0,11.93,0.25,16.76-1.61c0.29-0.11,0.61,0.06,0.71,0.38c0.11,0.32-0.05,0.67-0.34,0.79
				C573.55,559.15,565.54,559.32,562.03,559.32z"/>
		</g>
		<g>
			<path class="st24" d="M562.03,564.95c-0.96,0-1.58-0.01-1.69-0.01c-0.31-0.01-0.55-0.29-0.55-0.63c0.01-0.33,0.23-0.63,0.57-0.6
				c0.12,0.01,11.93,0.25,16.76-1.6c0.29-0.12,0.61,0.06,0.71,0.37c0.11,0.32-0.05,0.67-0.34,0.79
				C573.55,564.79,565.54,564.95,562.03,564.95z"/>
		</g>
		<g>
			<path class="st24" d="M562.01,570.22c-0.95,0-1.56-0.01-1.67-0.02c-0.31,0-0.55-0.29-0.55-0.62c0.01-0.34,0.29-0.57,0.57-0.61
				c0.12,0,11.93,0.26,16.76-1.6c0.29-0.11,0.61,0.06,0.71,0.38c0.11,0.32-0.05,0.67-0.34,0.79
				C573.55,570.05,565.51,570.22,562.01,570.22z"/>
		</g>
		<g>
			<path class="st24" d="M562.03,577.46c-0.96,0-1.58-0.02-1.69-0.02c-0.31-0.01-0.55-0.3-0.55-0.63c0.01-0.34,0.23-0.63,0.57-0.6
				c0.12,0,11.93,0.24,16.76-1.61c0.29-0.11,0.61,0.06,0.71,0.38c0.11,0.31-0.05,0.67-0.34,0.78
				C573.55,577.27,565.54,577.46,562.03,577.46z"/>
		</g>
	</g>
	<polygon class="st25" points="246.01,328.09 213.64,405.98 202.38,433.02 146.32,567.92 136.89,590.59 124.66,592.5 135.06,567.92 
		192.14,433.02 203.56,405.98 236.12,329.03 	"/>
	<polygon class="st5" points="124.67,592.5 84.03,607.8 155.34,609.17 148.61,603.85 137.18,589.89 	"/>
	<polygon class="st26" points="84.03,607.8 84.03,615.99 155.34,615.99 155.34,609.17 	"/>
	<polygon class="st15" points="213.64,405.98 202.38,433.02 192.14,433.02 203.56,405.98 	"/>
	<polygon class="st15" points="146.32,567.92 136.89,590.59 124.66,592.5 135.06,567.92 	"/>
	<path class="st17" d="M279.94,215.01c0,0.94-0.39,1.7-0.87,1.7c-0.48,0-0.88-0.76-0.88-1.7c0-0.93,0.4-1.69,0.88-1.69
		C279.55,213.32,279.94,214.07,279.94,215.01z"/>
	<path class="st17" d="M277.87,244.97c0,0.94-0.39,1.7-0.88,1.7c-0.48,0-0.87-0.76-0.87-1.7c0-0.93,0.39-1.69,0.87-1.69
		C277.48,243.28,277.87,244.04,277.87,244.97z"/>
	<path class="st17" d="M283.37,271.52c0.11,0.93-0.19,1.75-0.67,1.81c-0.48,0.06-0.95-0.63-1.06-1.56c-0.11-0.93,0.18-1.74,0.67-1.8
		C282.78,269.9,283.25,270.59,283.37,271.52z"/>
	<path class="st17" d="M289.73,296.52c0.11,0.92-0.19,1.74-0.67,1.8c-0.48,0.07-0.95-0.63-1.06-1.56c-0.11-0.92,0.19-1.73,0.67-1.8
		C289.14,294.88,289.62,295.58,289.73,296.52z"/>
	<path class="st17" d="M294.09,315.1c0.11,0.92-0.19,1.73-0.67,1.8c-0.47,0.06-0.95-0.64-1.06-1.56c-0.11-0.92,0.19-1.74,0.67-1.8
		C293.5,313.46,293.98,314.15,294.09,315.1z"/>
	<path class="st14" d="M555.47,605.51c2.62-10.1,11.41-16.2,19.63-13.64c8.23,2.56,12.78,12.82,10.15,22.92
		c-2.62,10.09-11.41,16.19-19.63,13.63C557.4,625.85,552.86,615.59,555.47,605.51z"/>
	<path class="st23" d="M569.44,624.09c-0.87,0-1.75-0.14-2.6-0.4c-2.73-0.85-4.98-3-6.33-6.06c-1.43-3.24-1.7-7.07-0.73-10.79
		c1.62-6.27,6.35-10.64,11.5-10.64c0.88,0,1.75,0.14,2.6,0.4c2.73,0.85,4.98,3,6.33,6.04c1.44,3.25,1.7,7.08,0.73,10.8
		C579.32,619.71,574.59,624.09,569.44,624.09z"/>
	<path class="st27" d="M554.73,501.28c0,1.07-0.78,1.92-1.75,1.92H497.6c-0.96,0-1.75-0.85-1.75-1.92l0,0c0-1.05,0.79-1.9,1.75-1.9
		h55.38C553.95,499.37,554.73,500.22,554.73,501.28L554.73,501.28z"/>
	<g>
		<path class="st28" d="M554.74,501.97h-6.93l-2.01-13.8c0,0-27.67-4.35-42.13,1.38l-0.51,12.42h-7.48l0.84-13.45l0.42-6.63
			c0,0,37.64-5.2,56.1,0l0.42,4.93L554.74,501.97z"/>
		<path class="st29" d="M554.74,501.97h-6.93l-2.01-13.8c0,0-27.67-4.35-42.13,1.38l-0.51,12.42h-7.48l0.84-13.45
			c4.55-1.82,15.29-5.4,28.77-4.99c12.53,0.38,22.97,2.21,28.17,3.29L554.74,501.97z"/>
	</g>
	<path class="st30" d="M67.3,428.15l0.5,2.85c-0.15-0.91-0.3-1.82-0.46-2.74C67.33,428.23,67.32,428.19,67.3,428.15z"/>
	<path class="st30" d="M76.2,471.18h-2.9C73.3,471.18,74.31,471.18,76.2,471.18L76.2,471.18z"/>
	<path class="st30" d="M453.53,471.3c1.46-0.03,2.25-0.07,2.27-0.12h-2.25C453.54,471.22,453.54,471.26,453.53,471.3z"/>
	<path class="st30" d="M517.35,424.91c0,0-0.02-0.05-0.04-0.11C517.32,424.84,517.33,424.87,517.35,424.91L517.35,424.91z"/>
	<path class="st30" d="M462.21,427.77c0.56-2.09,1.27-4.08,2.1-5.96c-1.14,1.6-2.33,4.45-3.52,8.38l0.9-0.08
		C461.86,429.32,462.01,428.54,462.21,427.77z"/>
	<path class="st31" d="M512.91,414.54c2.71,5.37,4.17,9.58,4.4,10.26C516.36,421.06,514.87,417.61,512.91,414.54z"/>
	<polygon class="st32" points="486.85,522.59 504.17,524.78 496.93,603.41 486.85,598.44 	"/>
</g>
</svg>
