<?xml version="1.0" encoding="utf-8"?>
<!-- Generator: Adobe Illustrator 23.1.0, SVG Export Plug-In . SVG Version: 6.00 Build 0)  -->
<svg version="1.1" id="Layer_1" xmlns="http://www.w3.org/2000/svg" xmlns:xlink="http://www.w3.org/1999/xlink" x="0px" y="0px"
	 viewBox="0 0 595.28 841.89" style="enable-background:new 0 0 595.28 841.89;" xml:space="preserve">
<style type="text/css">
	.st0{fill:url(#SVGID_1_);}
	.st1{fill:none;stroke:#D1D7DB;stroke-width:0.6976;stroke-miterlimit:10;}
	.st2{fill:#D1D7DB;}
	.st3{fill:#FFFFFF;}
	.st4{fill:none;stroke:#F15E60;stroke-width:0.7562;stroke-miterlimit:10;}
	.st5{fill:none;stroke:#D1D7DB;stroke-width:0.7562;stroke-miterlimit:10;}
	.st6{fill:none;stroke:#213134;stroke-width:1.0385;stroke-miterlimit:10;}
	.st7{fill:#F15E60;}
	.st8{fill:#FBC9BE;}
	.st9{fill:#0C0E0E;}
	.st10{fill:#2D4295;}
	.st11{fill:#4755A5;}
	.st12{fill:#C3CAE7;}
	.st13{fill:none;stroke:#9DABD7;stroke-width:0.75;stroke-miterlimit:10;}
	.st14{fill:#EFB2A8;}
	.st15{fill:#DE9891;}
	.st16{fill:none;stroke:#201D2F;stroke-width:0.5676;stroke-linecap:round;stroke-linejoin:round;stroke-miterlimit:10;}
	.st17{fill:#201D2F;}
	.st18{fill:none;stroke:#FFFFFF;stroke-width:0.7575;stroke-linecap:round;stroke-linejoin:round;stroke-miterlimit:10;}
	.st19{fill:#121D35;}
	.st20{fill:#24385B;}
	.st21{fill:#3E5157;}
	.st22{fill:#283338;}
</style>
<linearGradient id="SVGID_1_" gradientUnits="userSpaceOnUse" x1="-1184.958" y1="253.2867" x2="-661.2566" y2="253.2867" gradientTransform="matrix(-1 0 0 1 -640.2344 0)">
	<stop  offset="0.1136" style="stop-color:#293B8F"/>
	<stop  offset="0.3083" style="stop-color:#2C3D90;stop-opacity:0.7566"/>
	<stop  offset="0.5239" style="stop-color:#384395;stop-opacity:0.4869"/>
	<stop  offset="0.7487" style="stop-color:#494E9D;stop-opacity:0.2058"/>
	<stop  offset="0.9132" style="stop-color:#5958A6;stop-opacity:0"/>
</linearGradient>
<path class="st0" d="M350.35,77.51c0,0-240.26-76.99-310.3-37.46c-70.04,39.53,77.89,179.38,49.71,228.04
	c-28.18,48.65-17.75,136.83,80.7,160.41c98.45,23.58,347.57,75.46,368.25,33.36c20.68-42.1-11.55-112.32-103.5-200.87
	C343.25,172.43,457.27,113.77,350.35,77.51z"/>
<g>
	<g>
		<g>
			<g>
				<rect x="193.27" y="187.05" class="st1" width="97.02" height="13.22"/>
			</g>
			<rect x="211.71" y="164.54" class="st1" width="16.1" height="22.51"/>
			<rect x="235.38" y="144.15" class="st1" width="9.15" height="42.9"/>
			<rect x="244.54" y="144.15" class="st1" width="9.15" height="42.9"/>
			<polygon class="st1" points="274.62,180.55 266.34,186.32 254.07,147.49 262.36,141.72 			"/>
		</g>
		<g>
			<g>
				<polygon class="st2" points="566.4,164.91 557.5,152.29 527.78,197.31 537.37,210.79 				"/>
				<ellipse class="st2" cx="550.74" cy="186.26" rx="21.26" ry="31.56"/>
				<ellipse class="st3" cx="543.34" cy="175.82" rx="21.26" ry="31.56"/>
			</g>
			<g>
				<line class="st4" x1="556.98" y1="163.03" x2="543.52" y2="175.82"/>
				<path class="st2" d="M546.12,175.82c0,2.47-1.35,4.48-3.02,4.48c-1.67,0-3.02-2.01-3.02-4.48c0-2.47,1.35-4.48,3.02-4.48
					C544.77,171.34,546.12,173.35,546.12,175.82z"/>
				<line class="st5" x1="535.68" y1="166.16" x2="542.53" y2="175.82"/>
			</g>
		</g>
	</g>
	<g>
		<g>
			<g>
				<g>
					<line class="st6" x1="333.09" y1="392.35" x2="380.57" y2="503.65"/>
					<line class="st6" x1="374.46" y1="392.35" x2="330.93" y2="503.87"/>
				</g>
				<path class="st3" d="M386.92,401.4c0,0-7.56,10.32-37.56,5.84c-30.01-4.48-48.91-27.57-50.45-79.27
					c-1.54-51.7,17.24-88.04,17.24-88.04l72.3,112.59L386.92,401.4z"/>
			</g>
			<g>
				<path class="st7" d="M332.86,209.52c0,0-13.4-8.79-15.98,9.2c0,0-9.94-2.46-15.03,14.38c-6.98,23.12,11,34.09,11,34.09
					l51.19-3.22c0,0,14.3-27.44-2.59-38.03c0,0,0.27-17.02-11.08-13.48L332.86,209.52z"/>
				<g>
					<g>
						<g>
							<g>
								<polygon class="st8" points="443.12,487.44 430.4,487.36 424.23,457.33 436.09,453.24 								"/>
							</g>
							<g>
								<path class="st9" d="M429.94,483.46c2.99,1.19,9.77,5.07,12.95-1.77l21.48,17.28l-37.92-0.37l1.77-13.45
									C428.34,483.93,429.14,483.14,429.94,483.46z"/>
								<polygon class="st3" points="464.34,503.85 426.42,503.48 426.45,498.6 464.37,498.97 								"/>
							</g>
						</g>
						<path class="st10" d="M386.92,342.89l24.06,12.08c6.31,3.17,11.23,10.59,13.26,20l21.63,93.59l-22.78,4.01l-24.98-91.52
							L386.92,342.89z"/>
					</g>
					<g>
						<g>
							<g>
								<polygon class="st8" points="379.11,487.4 366.39,487.33 373,457.37 385.72,457.45 								"/>
							</g>
							<g>
								<path class="st9" d="M367.05,483.46c2.99,1.19,9.77,5.07,12.95-1.77l21.48,17.28l-37.92-0.37l1.77-13.45
									C365.45,483.93,366.25,483.14,367.05,483.46z"/>
								<polygon class="st3" points="401.45,503.85 363.53,503.48 363.56,498.6 401.48,498.97 								"/>
							</g>
						</g>
						<path class="st11" d="M327.62,338.67c0,0-9.16,33.17,8.53,44c0,0,13.5,6.38,46.83,3.67l-17.38,81.71l21.23,3.46l22-87.99
							c2.64-10.55-0.27-22.39-6.86-27.95l-20.05-16.91H327.62z"/>
					</g>
				</g>
				<g>
					<g>
						<path class="st12" d="M357.17,244.7c0,0,5.84,0.08,8.37,13.02c2.53,12.94,9.54,44.06,9.54,44.06l-17.21,19.57l-2.64-38.33
							L357.17,244.7z"/>
						<g>
							<path class="st8" d="M408.86,319.74h14.79c2.69,0,5.3,1.38,7.38,3.92l4.71,5.74l-2.46,2.52h-26.09L408.86,319.74z"/>
							<polygon class="st12" points="375.09,301.78 411.03,313.62 409.95,328.82 362.15,328.82 361.07,304.36 							"/>
						</g>
					</g>
					<g>
						<path class="st12" d="M335.78,237.78l-16.63,8.77l7.45,85.36h33.79l1.58-39.83c0,0,2.12-3.78,2.55-13.87
							c0.44-10.28-1.08-18.05-4.66-26.88l-2.69-6.64l-12.87-5.77L335.78,237.78z"/>
						<path class="st13" d="M360.4,262.61c0,0,7.12,15.4,1.57,33.78l-0.55,15.93"/>
					</g>
					<g>
						<path class="st12" d="M319.15,246.55c0,0-7.59,0.9-6.82,20.63c0.51,13.18,1.85,37.63,2.68,52.42
							c0.39,6.97,4.31,12.32,9.02,12.32h12.57l-5.8-69.31L319.15,246.55z"/>
						<g>
							<path class="st8" d="M366.19,319.74h14.79c2.69,0,5.3,1.38,7.38,3.92l4.71,5.74l-2.46,2.52h-26.09L366.19,319.74z"/>
							<polygon class="st12" points="328.95,304.36 368.2,314.09 366.85,331.91 328.98,331.91 							"/>
						</g>
						<polyline class="st13" points="331.09,267.18 333.09,305.39 368.2,314.09 367.73,320.26 						"/>
						<line class="st13" x1="334.41" y1="305.71" x2="326.33" y2="304.36"/>
					</g>
				</g>
				<g>
					<g>
						<g>
							<path class="st14" d="M350.12,205.63c-0.34,4.19,1.67,8,4.5,8.51c2.82,0.5,5.39-2.49,5.73-6.68c0.34-4.19-1.67-8-4.5-8.51
								C353.03,198.45,350.46,201.44,350.12,205.63z"/>
						</g>
						<path class="st7" d="M346.55,170.74c0,6.74-3.68,12.2-8.22,12.2c-4.54,0-8.22-5.46-8.22-12.2c0-6.74,3.68-12.2,8.22-12.2
							C342.87,158.54,346.55,164,346.55,170.74z"/>
						<path class="st7" d="M357.87,192c0,12.82-7,23.22-15.64,23.22c-8.64,0-17.13-8.18-17.13-21c0-12.82,8.5-25.43,17.13-25.43
							C350.87,168.79,357.87,179.18,357.87,192z"/>
						<path class="st8" d="M347.5,227.27l-1.27,16.56c-0.44,5.82-3.09,8.52-6.94,7.84l0,0c-3.29-0.59-6.17-3.66-6.19-8.58
							l2.85-25.92L347.5,227.27z"/>
						<path class="st15" d="M346.88,235.23c-7.82-1.01-12.02-15.34-12.02-15.34l12.79,5.7L346.88,235.23z"/>
						<path class="st8" d="M343.93,228.86L343.93,228.86c6.61,0.52,12.33-6.8,12.8-14.8l1.03-18.88
							c0.59-10.03-4.29-18.94-11.02-20.14l0,0c-6.89-1.23-14.35,5.85-15.18,16.08l-0.72,15.2
							C330.29,218.07,335.46,227.89,343.93,228.86z"/>
						<g>
							<polyline class="st16" points="350.6,211.63 351.43,215.21 349.36,215.22 							"/>
							<path class="st7" d="M343.55,197.24c0,0,3.31-0.57,3.2,1.96c0,0-0.1,1.72-2.99,2.11c-2.88,0.4-3.6,0.01-3.77-1.59
								C339.82,198.11,342.01,197.29,343.55,197.24z"/>
							<path class="st7" d="M354.85,198.03c0,0-2.35-0.68-2.58,1.63c0,0-0.14,1.56,1.92,2.06c2.06,0.49,2.74-0.02,2.96-1.27
								C357.39,199.02,355.97,198.14,354.85,198.03z"/>
							<path class="st17" d="M345.48,206.54c0,0.97-0.53,1.75-1.18,1.75c-0.65,0-1.18-0.78-1.18-1.75c0-0.97,0.53-1.75,1.18-1.75
								C344.95,204.79,345.48,205.58,345.48,206.54z"/>
							<ellipse class="st17" cx="354.18" cy="207.22" rx="1.06" ry="1.58"/>
							<path class="st3" d="M344.31,217.8h6.73c0,0,0.24,3.53-3.37,3.48C344.03,221.23,344.31,217.8,344.31,217.8z"/>
						</g>
						<path class="st7" d="M333.09,201.89c0,0,9.41-3.44,12.25-18.64l-1.18-9.32c0,0-16.94-2.39-13.62,23.92L333.09,201.89z"/>
						<path class="st7" d="M340.29,184.27c0,0,5.19,10.29,21.79,12.25c0,0,0.85-25.02-17.92-22.59L340.29,184.27z"/>
						<path class="st18" d="M331.09,175.73c0,0,3.55-4.72,7.84-6.15c4.42-1.48,7.36,0,7.36,0"/>
						<polygon class="st7" points="336.13,198.68 332.17,207.92 331.09,193.64 						"/>
						<g>
							<path class="st8" d="M323.84,203.88c-0.34,4.19,1.67,8,4.5,8.51c2.82,0.5,5.39-2.49,5.73-6.68c0.34-4.19-1.67-8-4.5-8.51
								C326.74,196.7,324.18,199.69,323.84,203.88z"/>
							<path class="st16" d="M330.56,207.37c0,0,0.45-5.5-3.17-5.27"/>
						</g>
					</g>
					<path class="st8" d="M325.11,243.41c0,0,4.56,8.36,14.88,11.69c4.54,1.47,9.38-0.49,12.51-5.61c1.23-2.02,2.41-4.08,2.75-5.66
						c0,0-9.31-6.05-11.88-6.05l-9.81,1.18L325.11,243.41z"/>
				</g>
			</g>
		</g>
		<g>
			<g>
				<g>
					<polyline class="st6" points="439.95,504 475.57,338.67 512.08,501.99 					"/>
					<polyline class="st6" points="276.34,504 311.96,338.67 348.47,501.99 					"/>
				</g>
				<rect x="264.34" y="332.01" class="st19" width="101.33" height="13.32"/>
				<rect x="363.42" y="332.01" class="st20" width="171.82" height="13.32"/>
			</g>
			<g>
				<g>
					<path class="st9" d="M396.67,326.77h44.22c0.98,0,1.78,1.18,1.78,2.64l0,0c0,1.46-0.8,2.64-1.78,2.64h-44.22
						c-0.98,0-1.78-1.18-1.78-2.64l0,0C394.89,327.95,395.69,326.77,396.67,326.77z"/>
					<path class="st21" d="M373.96,326.77h31.81c0.98,0,1.78,1.18,1.78,2.64l0,0c0,1.46-0.8,2.64-1.78,2.64h-31.81
						c-0.98,0-1.78-1.18-1.78-2.64l0,0C372.18,327.95,372.97,326.77,373.96,326.77z"/>
				</g>
				<g>
					<path class="st22" d="M401.29,306.84h95.9c1.59,0,2.87-1.29,2.87-2.87v-95.15c0-1.59-1.29-2.87-2.87-2.87h-95.9
						c-1.59,0-2.87,1.29-2.87,2.87v95.15C398.42,305.55,399.71,306.84,401.29,306.84z"/>
					<path class="st22" d="M403.52,306.84h95.9c1.59,0,2.87-1.29,2.87-2.87v-95.15c0-1.59-1.29-2.87-2.87-2.87h-95.9
						c-1.59,0-2.87,1.29-2.87,2.87v95.15C400.65,305.55,401.94,306.84,403.52,306.84z"/>
				</g>
				<g>
					<polygon class="st9" points="444.92,252.85 420.57,306.84 455.6,306.84 					"/>
					<g>
						<path class="st21" d="M462.39,251.47h-15.67c-1.4,0-2.46,1.91-2.18,3.95l10.12,73.98c0.21,1.54,1.12,2.64,2.18,2.64h16.45
							c1.42,0,2.47-1.95,2.17-4l-10.9-73.98C464.33,252.55,463.43,251.47,462.39,251.47z"/>
						<path class="st21" d="M439.51,326.77h28.91v5.29h-28.91c-0.98,0-1.78-1.18-1.78-2.64l0,0
							C437.73,327.95,438.52,326.77,439.51,326.77z"/>
					</g>
				</g>
			</g>
			<line class="st6" x1="571.36" y1="503.87" x2="206.97" y2="503.87"/>
		</g>
	</g>
</g>
</svg>
